<svg width="460" height="356" viewBox="0 0 460 356" fill="none" xmlns="http://www.w3.org/2000/svg">
<rect x="1" y="75" width="102" height="280" fill="#B4D2D4" stroke="#386676" stroke-width="2"/>
<rect x="89" y="64" width="16" height="291" rx="4" fill="#386676" stroke="#386676" stroke-width="2"/>
<rect x="1" y="64" width="16" height="291" rx="4" fill="#386676" stroke="#386676" stroke-width="2"/>
<line x1="27" y1="76" x2="27" y2="354" stroke="#386676" stroke-width="2"/>
<line x1="40" y1="76" x2="40" y2="354" stroke="#386676" stroke-width="2"/>
<line x1="53" y1="76" x2="53" y2="354" stroke="#386676" stroke-width="2"/>
<line x1="66" y1="76" x2="66" y2="354" stroke="#386676" stroke-width="2"/>
<line x1="79" y1="76" x2="79" y2="354" stroke="#386676" stroke-width="2"/>
<rect x="111" y="16" width="102" height="339" fill="#B4D2D4" stroke="#386676" stroke-width="2"/>
<rect x="199" y="1" width="16" height="354" rx="4" fill="#386676" stroke="#386676" stroke-width="2"/>
<rect x="111" y="1" width="16" height="354" rx="4" fill="#386676" stroke="#386676" stroke-width="2"/>
<line x1="137" y1="16.6309" x2="137" y2="354" stroke="#386676" stroke-width="2"/>
<line x1="150" y1="16.6309" x2="150" y2="354" stroke="#386676" stroke-width="2"/>
<line x1="163" y1="16.6309" x2="163" y2="354" stroke="#386676" stroke-width="2"/>
<line x1="176" y1="16.6309" x2="176" y2="354" stroke="#386676" stroke-width="2"/>
<line x1="189" y1="16.6309" x2="189" y2="354" stroke="#386676" stroke-width="2"/>
<rect x="227" y="52" width="108" height="303" fill="#B4D2D4" stroke="#386676" stroke-width="2"/>
<rect x="320" y="36" width="17" height="319" rx="4" fill="#386676" stroke="#386676" stroke-width="2"/>
<rect x="227" y="36" width="17" height="319" rx="4" fill="#386676" stroke="#386676" stroke-width="2"/>
<line x1="254.412" y1="51.498" x2="254.412" y2="354" stroke="#386676" stroke-width="2"/>
<line x1="268.176" y1="51.498" x2="268.176" y2="354" stroke="#386676" stroke-width="2"/>
<line x1="281.941" y1="51.498" x2="281.941" y2="354" stroke="#386676" stroke-width="2"/>
<line x1="295.705" y1="51.498" x2="295.705" y2="354" stroke="#386676" stroke-width="2"/>
<line x1="309.471" y1="51.498" x2="309.471" y2="354" stroke="#386676" stroke-width="2"/>
<rect x="355" y="77" width="102" height="278" fill="#B4D2D4" stroke="#386676" stroke-width="2"/>
<rect x="443" y="64" width="16" height="291" rx="4" fill="#386676" stroke="#386676" stroke-width="2"/>
<rect x="355" y="64" width="16" height="291" rx="4" fill="#386676" stroke="#386676" stroke-width="2"/>
<line x1="381" y1="76" x2="381" y2="354" stroke="#386676" stroke-width="2"/>
<line x1="394" y1="76" x2="394" y2="354" stroke="#386676" stroke-width="2"/>
<line x1="407" y1="76" x2="407" y2="354" stroke="#386676" stroke-width="2"/>
<line x1="420" y1="76" x2="420" y2="354" stroke="#386676" stroke-width="2"/>
<line x1="433" y1="76" x2="433" y2="354" stroke="#386676" stroke-width="2"/>
<rect x="168" y="166.685" width="102" height="188.315" fill="#B4D2D4" stroke="#386676" stroke-width="2"/>
<rect x="256" y="156" width="16" height="199" rx="4" fill="#386676" stroke="#386676" stroke-width="2"/>
<rect x="168" y="156" width="16" height="199" rx="4" fill="#386676" stroke="#386676" stroke-width="2"/>
<line x1="194" y1="166" x2="194" y2="354" stroke="#386676" stroke-width="2"/>
<line x1="207" y1="166" x2="207" y2="354" stroke="#386676" stroke-width="2"/>
<line x1="220" y1="166" x2="220" y2="354" stroke="#386676" stroke-width="2"/>
<line x1="233" y1="166" x2="233" y2="354" stroke="#386676" stroke-width="2"/>
<line x1="246" y1="166" x2="246" y2="354" stroke="#386676" stroke-width="2"/>
<rect x="298" y="146.823" width="102" height="208.176" fill="#B4D2D4" stroke="#386676" stroke-width="2"/>
<rect x="386" y="135" width="16" height="220" rx="4" fill="#386676" stroke="#386676" stroke-width="2"/>
<rect x="298" y="135" width="16" height="220" rx="4" fill="#386676" stroke="#386676" stroke-width="2"/>
<line x1="324" y1="146" x2="324" y2="354" stroke="#386676" stroke-width="2"/>
<line x1="337" y1="146" x2="337" y2="354" stroke="#386676" stroke-width="2"/>
<line x1="350" y1="146" x2="350" y2="354" stroke="#386676" stroke-width="2"/>
<line x1="363" y1="146" x2="363" y2="354" stroke="#386676" stroke-width="2"/>
<line x1="376" y1="146" x2="376" y2="354" stroke="#386676" stroke-width="2"/>
</svg>
