<svg width="1920" height="500" viewBox="0 0 1920 500" fill="none" xmlns="http://www.w3.org/2000/svg">
<rect y="381" width="1922" height="119" fill="white"/>
<path d="M6.28754 408.574H918.166C925.823 408.574 944.4 366.706 939.054 325.097C932.31 272.597 890.009 238.097 853.235 238.097C853.235 186.097 794.336 109.626 670.997 101.097C547.658 92.5681 472.065 159.245 470.077 193.597C460.626 148.097 433.77 141.597 415.369 141.597C394.684 141.597 367.13 163.598 367.13 188.097C357.182 159.597 314.909 134.097 260.203 141.597C201.293 149.674 177.152 183.595 165.216 247.595C148.307 244.595 107.926 202.693 46.3548 264.595C-15.2169 326.498 0.137817 407.095 6.28754 408.574Z" fill="white"/>
<path d="M1559.44 5.09656C1634.53 -7.05254 1722.88 2.1605 1802.63 36.5968C1848.47 56.3874 1887.16 82.4384 1920 110.71V408.577H966.689C958.058 408.577 896.137 384.778 905.401 311.705C915.485 232.162 966.689 224.978 1008.14 224.978C1025.28 177.953 1105.38 88.5968 1188.93 65.8932C1272.48 43.1895 1371.95 43.8935 1426.15 83.0971C1444.06 43.8935 1524.09 10.8159 1559.44 5.09656Z" fill="white"/>
<path d="M308.939 306.765C322.367 302.265 356.683 297.665 386.522 315.265C389.672 295.098 406.874 265.262 440.234 253.265C501.405 231.264 527.929 262.098 549.646 267.265C561.416 248.931 583.961 217.005 624.742 219.764C657.068 221.952 674.972 234.764 688.4 255.764" stroke="black"/>
<path d="M1409.24 241.597C1418.2 205.597 1458.26 175.1 1510.98 168.687C1559.72 162.759 1615.58 198.187 1626.86 214.187C1627.68 199.02 1638.41 168.687 1665.86 168.687C1693.32 168.687 1702.62 199.02 1704.94 214.187C1716.21 207.354 1756.88 197.497 1790.69 227.097C1824.51 256.697 1807.05 299.687 1798.93 315.687" stroke="black"/>
<path d="M1046.22 373.53C1046.14 374.726 1046.02 375.952 1045.87 377.204C1045.93 376.036 1046.05 374.81 1046.22 373.53Z" fill="white"/>
<path d="M1392.01 462.949C1416.32 462.949 1454.46 393.716 1417.32 345.98C1379.02 296.756 1321.33 319.48 1297.51 352.204C1297.51 321.488 1251.71 251.481 1173.18 254.704C1094.65 257.928 1047.85 342.853 1045.87 377.204C1047.8 361.488 1044.32 349.979 1030.4 347.988C1017.96 346.211 1005.03 352.488 1003.59 365.204C993.642 336.705 951.208 304.977 907.443 311.097C876.112 315.478 834.501 338.705 834.501 389.705C827.041 381.705 802.62 371.48 785.214 386.48C763.853 404.887 768.802 436.48 772.335 462.949" stroke="black"/>
</svg>
