<svg width="463" height="195" viewBox="0 0 463 195" fill="none" xmlns="http://www.w3.org/2000/svg">
<circle cx="172.5" cy="44.5" r="44.5" fill="#F8BFAC"/>
<path fill-rule="evenodd" clip-rule="evenodd" d="M177.259 15.8137L169.754 15L168.948 22.4362C168.934 22.446 168.919 22.4559 168.905 22.4658C166.122 24.3701 163.705 26.6528 161.654 29.314C160.434 30.9253 159.433 32.6587 158.651 34.5142C157.87 36.3696 157.479 38.0054 157.479 39.4214C157.479 41.4478 158.102 42.8882 159.347 43.7427L159.384 43.7793C159.823 44.1211 160.287 44.4141 160.775 44.6582C160.824 44.707 160.885 44.7437 160.958 44.7681C161.764 45.1831 162.582 45.5493 163.412 45.8667L166.287 46.9759L165.681 52.5682L165.426 52.7515V52.7881C164.499 53.4473 163.729 54.2773 163.119 55.2783L162.277 56.2671C160.861 57.8296 159.799 59.0503 159.091 59.9292C158.139 61.1255 157.235 62.3462 156.381 63.5913C155.6 64.5679 155.014 65.4712 154.623 66.3013C154.525 66.5942 154.477 66.8262 154.477 66.9971C154.477 67.3633 154.55 67.583 154.696 67.6562L155.026 67.7661C155.099 67.7661 155.148 67.7783 155.172 67.8027C155.465 67.876 155.746 68.0103 156.015 68.2056C156.112 68.23 156.186 68.2666 156.234 68.3154C156.283 68.3398 156.32 68.3521 156.344 68.3521C156.735 68.5474 157.223 68.9868 157.809 69.6704C157.858 69.7681 157.919 69.8535 157.992 69.9268C158.407 70.415 158.92 70.769 159.53 70.9888C160.772 71.4684 162.119 71.8095 163.573 72.012L163.001 77.2878L170.506 78.1015L171.205 71.6509C172.861 71.12 174.414 70.3133 175.863 69.231C179.354 66.8384 182.125 63.7988 184.176 60.1123C184.64 59.2578 185.019 58.3667 185.312 57.439C185.751 56.2183 185.971 55.022 185.971 53.8501V53.3008C185.922 50.6152 185.336 48.5645 184.213 47.1484C183.603 46.3916 182.956 45.6836 182.272 45.0244C181.173 43.999 179.928 43.1934 178.537 42.6074C177.682 42.1924 176.815 41.814 175.937 41.4722L174.531 40.9801L174.767 38.7995C175.244 38.4429 175.694 38.0521 176.12 37.627L176.925 36.8945C178.805 35.3809 180.575 33.7085 182.235 31.8774L182.089 32.0239C182.626 31.4868 183.151 30.9131 183.664 30.3027L184.652 28.9111L184.945 28.5449H184.909L185.751 27.2632C186.386 26.3354 186.703 25.5054 186.703 24.7729V24.6631C186.703 23.9551 186.483 23.3325 186.044 22.7954C185.36 21.8921 184.469 21.2573 183.371 20.8911C182.516 20.6226 181.637 20.4517 180.734 20.3784C179.831 20.2808 178.927 20.2319 178.024 20.2319C177.576 20.2319 177.161 20.2349 176.779 20.2409L177.259 15.8137ZM168.514 26.434C167.851 26.5353 167.225 26.6652 166.635 26.8237L166.598 26.8604C166.452 27.0068 166.11 27.5928 165.573 28.6182C164.694 30.4492 164.254 32.3535 164.254 34.3311V34.6606C164.474 36.0278 165.292 37.1143 166.708 37.9199C166.871 38.0143 167.048 38.1102 167.238 38.2076L168.514 26.434ZM176.116 26.3613L176.669 26.311C177.279 26.8237 177.707 27.4585 177.951 28.2153V28.3984C178 28.5693 178.024 28.8135 178.024 29.1309C178.024 29.5459 177.987 30.0708 177.914 30.7056C177.792 31.853 177.243 33.2568 176.266 34.917C175.835 35.2854 175.438 35.6361 175.074 35.9689L176.116 26.3613ZM173.516 50.3388L171.837 65.8226C173.719 65.7961 175.44 65.565 176.999 65.1294L177.182 65.0562C177.743 63.9331 178.122 62.9077 178.317 61.98C178.512 61.0278 178.61 60.1123 178.61 59.2334L178.573 58.3545L178.537 58.1714C178.39 56.4868 177.865 55.022 176.962 53.7769C176.007 52.4187 174.858 51.2727 173.516 50.3388ZM164.41 64.2864L165.403 55.1329L163.375 57.7319C163.327 57.8296 163.266 57.915 163.192 57.9883C162.411 59.1846 161.605 60.3687 160.775 61.5405C160.775 61.6138 160.751 61.6748 160.702 61.7236C160.824 61.8945 161.007 62.0044 161.251 62.0532L161.508 62.1265L162.24 62.4561C162.289 62.5049 162.35 62.5415 162.423 62.5659C162.741 62.7124 163.021 62.9077 163.266 63.1519C163.681 63.5425 163.913 63.7866 163.961 63.8843C164.104 64.0272 164.254 64.1612 164.41 64.2864Z" fill="#356974"/>
<rect y="161" width="109" height="15" rx="6" fill="#F8BFAC"/>
<rect y="180" width="109" height="15" rx="6" fill="#F8BFAC"/>
<rect x="118" y="161" width="109" height="15" rx="6" fill="#F8BFAC"/>
<rect x="118" y="123" width="109" height="15" rx="6" fill="#F8BFAC"/>
<rect x="118" y="180" width="109" height="15" rx="6" fill="#F8BFAC"/>
<rect x="118" y="142" width="109" height="15" rx="6" fill="#F8BFAC"/>
<rect x="118" y="104" width="109" height="15" rx="6" fill="#F8BFAC"/>
<rect x="354" y="180" width="109" height="15" rx="6" fill="#F8BFAC"/>
<rect x="354" y="161" width="109" height="15" rx="6" fill="#F8BFAC"/>
<rect x="354" y="142" width="109" height="15" rx="6" fill="#F8BFAC"/>
<rect y="142" width="109" height="15" rx="6" fill="#F8BFAC"/>
<rect y="123" width="109" height="15" rx="6" fill="#F8BFAC"/>
<rect y="104" width="109" height="15" rx="6" fill="#F8BFAC"/>
<rect y="85" width="109" height="15" rx="6" fill="#F8BFAC"/>
<rect x="236" y="180" width="109" height="15" rx="6" fill="#F8BFAC"/>
<rect x="236" y="161" width="109" height="15" rx="6" fill="#F8BFAC"/>
<rect x="236" y="142" width="109" height="15" rx="6" fill="#F8BFAC"/>
<rect x="236" y="123" width="109" height="15" rx="6" fill="#F8BFAC"/>
<rect x="236" y="104" width="109" height="15" rx="6" fill="#F8BFAC"/>
</svg>
