<svg width="1203" height="485" viewBox="0 0 1203 485" fill="none" xmlns="http://www.w3.org/2000/svg">
<path d="M7.68 386.44C9.8 386.44 11.5 387.14 12.74 388.58C13.9 389.94 14.5 391.7 14.5 393.88C14.5 396.04 13.9 397.78 12.74 399.14C11.5 400.56 9.8 401.28 7.66 401.28C5.52 401.28 3.84 400.56 2.6 399.14C1.42 397.78 0.84 396.02 0.84 393.88C0.84 391.72 1.42 389.96 2.6 388.6C3.84 387.16 5.52 386.44 7.68 386.44ZM7.68 387.9C6.04 387.9 4.74 388.46 3.8 389.6C2.92 390.68 2.48 392.1 2.48 393.88C2.48 395.64 2.92 397.06 3.8 398.14C4.72 399.26 6.02 399.82 7.66 399.82C9.3 399.82 10.6 399.26 11.52 398.18C12.4 397.1 12.86 395.68 12.86 393.88C12.86 392.06 12.4 390.62 11.52 389.54C10.6 388.44 9.32 387.9 7.68 387.9ZM19.332 387.32V390.66H21.892V392H19.332V398.58C19.332 398.96 19.392 399.24 19.552 399.4C19.692 399.56 19.952 399.66 20.312 399.66H21.632V401H20.072C19.232 401 18.612 400.78 18.252 400.34C17.912 399.94 17.752 399.36 17.752 398.58V392H15.672V390.66H17.752V387.98L19.332 387.32ZM23.6814 386.44H25.2814V392.36C25.6414 391.7 26.1214 391.2 26.7214 390.86C27.2814 390.54 27.9014 390.38 28.6014 390.38C29.8014 390.38 30.7414 390.72 31.3814 391.44C32.0214 392.14 32.3414 393.16 32.3414 394.48V401H30.7414V394.72C30.7414 393.76 30.5014 393.02 30.0614 392.5C29.5814 391.98 28.9214 391.72 28.0614 391.72C27.2614 391.72 26.6014 392.04 26.0814 392.68C25.5414 393.32 25.2814 394.14 25.2814 395.1V401H23.6814V386.44ZM39.0547 390.38C40.7147 390.38 41.9747 390.94 42.8147 392.06C43.5747 393.06 43.9747 394.48 44.0147 396.28H35.8547C35.9347 397.44 36.2347 398.34 36.7947 398.98C37.3547 399.62 38.1347 399.94 39.1147 399.94C39.9547 399.94 40.6547 399.72 41.1747 399.3C41.6147 398.94 41.9547 398.4 42.2147 397.68H43.8147C43.5747 398.68 43.1147 399.48 42.4147 400.12C41.5547 400.88 40.4547 401.28 39.1147 401.28C37.6347 401.28 36.4347 400.78 35.5547 399.82C34.6347 398.82 34.1947 397.5 34.1947 395.82C34.1947 394.3 34.6147 393.02 35.4947 392C36.3747 390.92 37.5547 390.38 39.0547 390.38ZM39.0947 391.72C38.1747 391.72 37.4347 392.02 36.8747 392.62C36.3147 393.22 35.9947 394.02 35.8947 395.04H42.3547C42.1547 392.82 41.0547 391.72 39.0947 391.72ZM50.4284 390.38C50.9884 390.38 51.4684 390.46 51.8484 390.62V392.22C51.3284 392.06 50.8084 392 50.3084 392C49.5084 392 48.8284 392.34 48.2884 393.06C47.7284 393.74 47.4684 394.56 47.4684 395.52V401H45.8884V390.66H47.4684V392.46C47.7484 391.86 48.1084 391.38 48.5484 391.04C49.0884 390.6 49.7084 390.38 50.4284 390.38Z" fill="black"/>
<path d="M1.44 312.72H3.08V318.92H11.34V312.72H12.98V327H11.34V320.34H3.08V327H1.44V312.72ZM20.2545 316.38C21.7945 316.38 23.0345 316.9 23.9545 317.98C24.8345 319 25.2745 320.28 25.2745 321.84C25.2745 323.38 24.8345 324.66 23.9745 325.66C23.0345 326.74 21.7945 327.28 20.2545 327.28C18.6945 327.28 17.4745 326.74 16.5545 325.66C15.6745 324.66 15.2345 323.38 15.2345 321.84C15.2345 320.28 15.6745 319 16.5545 317.98C17.4745 316.9 18.6945 316.38 20.2545 316.38ZM20.2545 317.72C19.1545 317.72 18.2945 318.14 17.6945 318.98C17.1345 319.74 16.8745 320.68 16.8745 321.84C16.8745 322.98 17.1345 323.92 17.6945 324.68C18.2945 325.52 19.1545 325.94 20.2545 325.94C21.3345 325.94 22.1945 325.52 22.8345 324.68C23.3745 323.92 23.6545 322.96 23.6545 321.84C23.6545 320.68 23.3745 319.74 22.8345 318.98C22.1945 318.14 21.3345 317.72 20.2545 317.72ZM30.1133 313.32V316.66H32.6733V318H30.1133V324.58C30.1133 324.96 30.1733 325.24 30.3333 325.4C30.4733 325.56 30.7333 325.66 31.0933 325.66H32.4133V327H30.8533C30.0133 327 29.3933 326.78 29.0333 326.34C28.6933 325.94 28.5333 325.36 28.5333 324.58V318H26.4533V316.66H28.5333V313.98L30.1133 313.32ZM38.7227 316.38C40.3827 316.38 41.6427 316.94 42.4827 318.06C43.2427 319.06 43.6427 320.48 43.6827 322.28H35.5227C35.6027 323.44 35.9027 324.34 36.4627 324.98C37.0227 325.62 37.8027 325.94 38.7827 325.94C39.6227 325.94 40.3227 325.72 40.8427 325.3C41.2827 324.94 41.6227 324.4 41.8827 323.68H43.4827C43.2427 324.68 42.7827 325.48 42.0827 326.12C41.2227 326.88 40.1227 327.28 38.7827 327.28C37.3027 327.28 36.1027 326.78 35.2227 325.82C34.3027 324.82 33.8627 323.5 33.8627 321.82C33.8627 320.3 34.2827 319.02 35.1627 318C36.0427 316.92 37.2227 316.38 38.7227 316.38ZM38.7627 317.72C37.8427 317.72 37.1027 318.02 36.5427 318.62C35.9827 319.22 35.6627 320.02 35.5627 321.04H42.0227C41.8227 318.82 40.7227 317.72 38.7627 317.72ZM45.8764 312.44H47.4564V327H45.8764V312.44ZM53.9234 316.38C56.4834 316.38 57.8834 317.44 58.1634 319.6H56.6034C56.4634 318.96 56.2034 318.48 55.8034 318.2C55.3634 317.88 54.7234 317.72 53.9034 317.72C53.1834 317.72 52.6234 317.84 52.2234 318.12C51.7834 318.38 51.5634 318.74 51.5634 319.2C51.5634 319.64 51.8434 320.02 52.4434 320.32C52.8234 320.5 53.5434 320.72 54.5834 321C55.8234 321.3 56.7034 321.62 57.2434 321.96C58.0634 322.48 58.4834 323.18 58.4834 324.08C58.4834 326.2 57.0234 327.28 54.1034 327.28C51.3834 327.28 49.9034 326.08 49.6634 323.7H51.2234C51.3434 324.52 51.6434 325.1 52.0834 325.46C52.5234 325.78 53.1834 325.94 54.0634 325.94C55.9034 325.94 56.8434 325.34 56.8434 324.18C56.8434 323.6 56.5034 323.16 55.8634 322.84C55.5234 322.68 54.7834 322.46 53.6634 322.18C52.4434 321.88 51.5834 321.58 51.1034 321.26C50.3034 320.78 49.9234 320.12 49.9234 319.24C49.9234 318.36 50.3034 317.68 51.0834 317.16C51.8034 316.64 52.7634 316.38 53.9234 316.38Z" fill="black"/>
<path d="M1.44 16.72H3.08V22.92H11.34V16.72H12.98V31H11.34V24.34H3.08V31H1.44V16.72ZM20.2545 20.38C21.7945 20.38 23.0345 20.9 23.9545 21.98C24.8345 23 25.2745 24.28 25.2745 25.84C25.2745 27.38 24.8345 28.66 23.9745 29.66C23.0345 30.74 21.7945 31.28 20.2545 31.28C18.6945 31.28 17.4745 30.74 16.5545 29.66C15.6745 28.66 15.2345 27.38 15.2345 25.84C15.2345 24.28 15.6745 23 16.5545 21.98C17.4745 20.9 18.6945 20.38 20.2545 20.38ZM20.2545 21.72C19.1545 21.72 18.2945 22.14 17.6945 22.98C17.1345 23.74 16.8745 24.68 16.8745 25.84C16.8745 26.98 17.1345 27.92 17.6945 28.68C18.2945 29.52 19.1545 29.94 20.2545 29.94C21.3345 29.94 22.1945 29.52 22.8345 28.68C23.3745 27.92 23.6545 26.96 23.6545 25.84C23.6545 24.68 23.3745 23.74 22.8345 22.98C22.1945 22.14 21.3345 21.72 20.2545 21.72ZM31.8733 20.38C33.4533 20.38 34.5333 21.02 35.1133 22.34C35.5133 21.66 35.9933 21.16 36.5533 20.86C37.0533 20.54 37.6533 20.38 38.3733 20.38C39.4533 20.38 40.3133 20.72 40.9933 21.4C41.6333 22.1 41.9733 23.04 41.9733 24.22V31H40.3733V24.48C40.3733 23.56 40.1733 22.88 39.7933 22.44C39.3933 21.96 38.7533 21.74 37.8733 21.74C37.1933 21.74 36.6133 21.98 36.1733 22.5C35.6933 23.02 35.4733 23.68 35.4733 24.52V31H33.8733V24.48C33.8733 22.64 33.0733 21.74 31.4933 21.74C30.7533 21.74 30.1533 22.02 29.6733 22.62C29.1933 23.18 28.9533 23.88 28.9533 24.7V31H27.3533V20.66H28.9533V22.04C29.7333 20.92 30.7133 20.38 31.8733 20.38ZM48.7227 20.38C50.3827 20.38 51.6427 20.94 52.4827 22.06C53.2427 23.06 53.6427 24.48 53.6827 26.28H45.5227C45.6027 27.44 45.9027 28.34 46.4627 28.98C47.0227 29.62 47.8027 29.94 48.7827 29.94C49.6227 29.94 50.3227 29.72 50.8427 29.3C51.2827 28.94 51.6227 28.4 51.8827 27.68H53.4827C53.2427 28.68 52.7827 29.48 52.0827 30.12C51.2227 30.88 50.1227 31.28 48.7827 31.28C47.3027 31.28 46.1027 30.78 45.2227 29.82C44.3027 28.82 43.8627 27.5 43.8627 25.82C43.8627 24.3 44.2827 23.02 45.1627 22C46.0427 20.92 47.2227 20.38 48.7227 20.38ZM48.7627 21.72C47.8427 21.72 47.1027 22.02 46.5427 22.62C45.9827 23.22 45.6627 24.02 45.5627 25.04H52.0227C51.8227 22.82 50.7227 21.72 48.7627 21.72Z" fill="black"/>
<path d="M7.6 90.44C9.18 90.44 10.52 90.86 11.6 91.7C12.68 92.54 13.32 93.68 13.52 95.1H11.94C11.74 94.06 11.22 93.26 10.42 92.7C9.64 92.16 8.7 91.9 7.58 91.9C5.92 91.9 4.64 92.48 3.74 93.64C2.9 94.72 2.48 96.14 2.48 97.92C2.48 99.7 2.88 101.12 3.72 102.16C4.6 103.26 5.86 103.82 7.54 103.82C8.68 103.82 9.64 103.52 10.44 102.92C11.28 102.28 11.86 101.34 12.14 100.1H13.72C13.4 101.76 12.66 103.06 11.48 103.98C10.38 104.84 9.06 105.28 7.54 105.28C5.32 105.28 3.62 104.54 2.44 103.08C1.36 101.76 0.84 100.04 0.84 97.92C0.84 95.8 1.38 94.06 2.48 92.7C3.68 91.18 5.4 90.44 7.6 90.44ZM20.4108 94.38C21.9508 94.38 23.1908 94.9 24.1108 95.98C24.9908 97 25.4308 98.28 25.4308 99.84C25.4308 101.38 24.9908 102.66 24.1308 103.66C23.1908 104.74 21.9508 105.28 20.4108 105.28C18.8508 105.28 17.6308 104.74 16.7108 103.66C15.8308 102.66 15.3908 101.38 15.3908 99.84C15.3908 98.28 15.8308 97 16.7108 95.98C17.6308 94.9 18.8508 94.38 20.4108 94.38ZM20.4108 95.72C19.3108 95.72 18.4508 96.14 17.8508 96.98C17.2908 97.74 17.0308 98.68 17.0308 99.84C17.0308 100.98 17.2908 101.92 17.8508 102.68C18.4508 103.52 19.3108 103.94 20.4108 103.94C21.4908 103.94 22.3508 103.52 22.9908 102.68C23.5308 101.92 23.8108 100.96 23.8108 99.84C23.8108 98.68 23.5308 97.74 22.9908 96.98C22.3508 96.14 21.4908 95.72 20.4108 95.72ZM26.3695 94.66H28.1295L30.6695 103.04L33.0695 94.66H34.5695L36.9695 103.04L39.5095 94.66H41.2695L37.7495 105H36.2295L33.8295 96.68L31.3895 105H29.8895L26.3695 94.66ZM47.2272 94.38C48.7672 94.38 50.0072 94.9 50.9272 95.98C51.8072 97 52.2472 98.28 52.2472 99.84C52.2472 101.38 51.8072 102.66 50.9472 103.66C50.0072 104.74 48.7672 105.28 47.2272 105.28C45.6672 105.28 44.4472 104.74 43.5272 103.66C42.6472 102.66 42.2072 101.38 42.2072 99.84C42.2072 98.28 42.6472 97 43.5272 95.98C44.4472 94.9 45.6672 94.38 47.2272 94.38ZM47.2272 95.72C46.1272 95.72 45.2672 96.14 44.6672 96.98C44.1072 97.74 43.8472 98.68 43.8472 99.84C43.8472 100.98 44.1072 101.92 44.6672 102.68C45.2672 103.52 46.1272 103.94 47.2272 103.94C48.3072 103.94 49.1672 103.52 49.8072 102.68C50.3472 101.92 50.6272 100.96 50.6272 99.84C50.6272 98.68 50.3472 97.74 49.8072 96.98C49.1672 96.14 48.3072 95.72 47.2272 95.72ZM58.8659 94.38C59.4259 94.38 59.9059 94.46 60.2859 94.62V96.22C59.7659 96.06 59.2459 96 58.7459 96C57.9459 96 57.2659 96.34 56.7259 97.06C56.1659 97.74 55.9059 98.56 55.9059 99.52V105H54.3259V94.66H55.9059V96.46C56.1859 95.86 56.5459 95.38 56.9859 95.04C57.5259 94.6 58.1459 94.38 58.8659 94.38ZM61.6306 90.44H63.2306V99.46L68.4106 94.66H70.5306L65.9706 98.82L70.9706 105H68.9106L64.8706 99.86L63.2306 101.34V105H61.6306V90.44ZM73.5366 90.76C73.8766 90.76 74.1566 90.86 74.3966 91.1C74.6366 91.3 74.7566 91.58 74.7566 91.94C74.7566 92.28 74.6366 92.56 74.3966 92.8C74.1566 93.02 73.8766 93.14 73.5366 93.14C73.1966 93.14 72.9166 93.02 72.6766 92.8C72.4366 92.56 72.3366 92.28 72.3366 91.94C72.3366 91.58 72.4366 91.3 72.6766 91.1C72.9166 90.86 73.1966 90.76 73.5366 90.76ZM72.7366 94.66H74.3366V105H72.7366V94.66ZM82.1738 94.38C84.7338 94.38 86.0338 95.8 86.0338 98.64V105H84.4338V98.76C84.4338 96.74 83.5138 95.74 81.7138 95.74C80.9938 95.74 80.3738 96 79.8538 96.52C79.2938 97.08 78.9938 97.82 78.9338 98.76V105H77.3338V94.66H78.9338V96.18C79.2938 95.6 79.7538 95.16 80.3138 94.86C80.8738 94.54 81.4938 94.38 82.1738 94.38ZM92.7656 94.38C94.3256 94.38 95.4856 95.06 96.2456 96.44V94.66H97.8456V104.28C97.8456 107.58 96.2656 109.24 93.1256 109.24C91.7256 109.24 90.6456 108.96 89.9256 108.4C89.1856 107.84 88.7256 107 88.5456 105.88H90.1456C90.2656 106.58 90.5656 107.1 91.0256 107.42C91.4856 107.76 92.1856 107.94 93.1256 107.94C95.2056 107.94 96.2456 106.78 96.2456 104.5V102.68C95.4856 104.06 94.3256 104.76 92.7656 104.76C91.3256 104.76 90.1856 104.26 89.3456 103.28C88.5056 102.32 88.1056 101.1 88.1056 99.6C88.1056 98.08 88.5056 96.86 89.3456 95.9C90.1856 94.88 91.3256 94.38 92.7656 94.38ZM93.0056 95.7C91.9656 95.7 91.1656 96.06 90.5856 96.82C90.0256 97.5 89.7456 98.44 89.7456 99.6C89.7456 100.68 89.9856 101.58 90.4856 102.26C91.0456 103.02 91.8656 103.42 92.9856 103.42C94.0256 103.42 94.8256 103.06 95.4256 102.34C95.9856 101.64 96.2656 100.72 96.2656 99.6C96.2656 98.44 95.9856 97.5 95.4256 96.82C94.8256 96.06 94.0256 95.7 93.0056 95.7ZM110.642 94.38C113.202 94.38 114.602 95.44 114.882 97.6H113.322C113.182 96.96 112.922 96.48 112.522 96.2C112.082 95.88 111.442 95.72 110.622 95.72C109.902 95.72 109.342 95.84 108.942 96.12C108.502 96.38 108.282 96.74 108.282 97.2C108.282 97.64 108.562 98.02 109.162 98.32C109.542 98.5 110.262 98.72 111.302 99C112.542 99.3 113.422 99.62 113.962 99.96C114.782 100.48 115.202 101.18 115.202 102.08C115.202 104.2 113.742 105.28 110.822 105.28C108.102 105.28 106.622 104.08 106.382 101.7H107.942C108.062 102.52 108.362 103.1 108.802 103.46C109.242 103.78 109.902 103.94 110.782 103.94C112.622 103.94 113.562 103.34 113.562 102.18C113.562 101.6 113.222 101.16 112.582 100.84C112.242 100.68 111.502 100.46 110.382 100.18C109.162 99.88 108.302 99.58 107.822 99.26C107.022 98.78 106.642 98.12 106.642 97.24C106.642 96.36 107.022 95.68 107.802 95.16C108.522 94.64 109.482 94.38 110.642 94.38ZM122.02 94.38C123.5 94.38 124.68 94.92 125.54 96.04C126.32 97.04 126.72 98.3 126.72 99.86C126.72 101.38 126.32 102.64 125.56 103.64C124.72 104.72 123.58 105.28 122.1 105.28C120.62 105.28 119.48 104.56 118.68 103.12V108.96H117.08V94.66H118.58V96.36C119.32 95.04 120.46 94.38 122.02 94.38ZM121.82 95.7C120.78 95.7 119.96 96.1 119.4 96.92C118.88 97.64 118.62 98.6 118.62 99.76V99.96C118.62 101.16 118.9 102.12 119.5 102.86C120.06 103.58 120.8 103.96 121.76 103.96C122.88 103.96 123.72 103.56 124.3 102.8C124.82 102.08 125.08 101.1 125.08 99.86C125.08 98.64 124.82 97.66 124.34 96.94C123.76 96.1 122.92 95.7 121.82 95.7ZM133.299 94.38C134.779 94.38 135.859 94.76 136.579 95.54C137.179 96.22 137.499 97.16 137.499 98.36V105H135.999V103.26C135.599 103.82 135.059 104.28 134.419 104.64C133.659 105.06 132.799 105.28 131.839 105.28C130.799 105.28 129.979 105.02 129.359 104.5C128.719 103.96 128.399 103.26 128.399 102.42C128.399 101.24 128.859 100.36 129.819 99.76C130.659 99.2 131.859 98.9 133.419 98.88L135.899 98.84V98.3C135.899 96.56 134.999 95.7 133.199 95.7C132.439 95.7 131.819 95.84 131.339 96.16C130.799 96.48 130.459 96.98 130.299 97.64L128.719 97.52C128.939 96.44 129.479 95.62 130.319 95.1C131.079 94.62 132.059 94.38 133.299 94.38ZM135.899 100.04L133.519 100.08C131.199 100.12 130.039 100.88 130.039 102.38C130.039 102.86 130.219 103.24 130.619 103.56C131.019 103.86 131.539 104.02 132.179 104.02C133.159 104.02 134.019 103.7 134.779 103.06C135.519 102.44 135.899 101.72 135.899 100.92V100.04ZM144.43 94.38C145.71 94.38 146.73 94.68 147.51 95.28C148.31 95.9 148.79 96.84 148.97 98.1H147.39C147.25 97.3 146.93 96.7 146.43 96.3C145.91 95.9 145.25 95.72 144.43 95.72C143.43 95.72 142.63 96.1 142.05 96.86C141.49 97.6 141.21 98.6 141.21 99.86C141.21 101.12 141.47 102.12 142.03 102.84C142.57 103.56 143.37 103.94 144.41 103.94C146.17 103.94 147.19 103.04 147.43 101.26H149.03C148.79 102.58 148.29 103.6 147.49 104.28C146.71 104.94 145.69 105.28 144.41 105.28C142.85 105.28 141.65 104.76 140.79 103.72C139.97 102.74 139.57 101.46 139.57 99.88C139.57 98.3 139.97 97.02 140.79 96.02C141.67 94.92 142.89 94.38 144.43 94.38ZM155.168 94.38C156.828 94.38 158.088 94.94 158.928 96.06C159.688 97.06 160.088 98.48 160.128 100.28H151.968C152.048 101.44 152.348 102.34 152.908 102.98C153.468 103.62 154.248 103.94 155.228 103.94C156.068 103.94 156.768 103.72 157.288 103.3C157.728 102.94 158.068 102.4 158.328 101.68H159.928C159.688 102.68 159.228 103.48 158.528 104.12C157.668 104.88 156.568 105.28 155.228 105.28C153.748 105.28 152.548 104.78 151.668 103.82C150.748 102.82 150.308 101.5 150.308 99.82C150.308 98.3 150.728 97.02 151.608 96C152.488 94.92 153.668 94.38 155.168 94.38ZM155.208 95.72C154.288 95.72 153.548 96.02 152.988 96.62C152.428 97.22 152.108 98.02 152.008 99.04H158.468C158.268 96.82 157.168 95.72 155.208 95.72ZM165.662 94.38C168.222 94.38 169.622 95.44 169.902 97.6H168.342C168.202 96.96 167.942 96.48 167.542 96.2C167.102 95.88 166.462 95.72 165.642 95.72C164.922 95.72 164.362 95.84 163.962 96.12C163.522 96.38 163.302 96.74 163.302 97.2C163.302 97.64 163.582 98.02 164.182 98.32C164.562 98.5 165.282 98.72 166.322 99C167.562 99.3 168.442 99.62 168.982 99.96C169.802 100.48 170.222 101.18 170.222 102.08C170.222 104.2 168.762 105.28 165.842 105.28C163.122 105.28 161.642 104.08 161.402 101.7H162.962C163.082 102.52 163.382 103.1 163.822 103.46C164.262 103.78 164.922 103.94 165.802 103.94C167.642 103.94 168.582 103.34 168.582 102.18C168.582 101.6 168.242 101.16 167.602 100.84C167.262 100.68 166.522 100.46 165.402 100.18C164.182 99.88 163.322 99.58 162.842 99.26C162.042 98.78 161.662 98.12 161.662 97.24C161.662 96.36 162.042 95.68 162.822 95.16C163.542 94.64 164.502 94.38 165.662 94.38Z" fill="black"/>
<path d="M7.6 164.44C9.18 164.44 10.52 164.86 11.6 165.7C12.68 166.54 13.32 167.68 13.52 169.1H11.94C11.74 168.06 11.22 167.26 10.42 166.7C9.64 166.16 8.7 165.9 7.58 165.9C5.92 165.9 4.64 166.48 3.74 167.64C2.9 168.72 2.48 170.14 2.48 171.92C2.48 173.7 2.88 175.12 3.72 176.16C4.6 177.26 5.86 177.82 7.54 177.82C8.68 177.82 9.64 177.52 10.44 176.92C11.28 176.28 11.86 175.34 12.14 174.1H13.72C13.4 175.76 12.66 177.06 11.48 177.98C10.38 178.84 9.06 179.28 7.54 179.28C5.32 179.28 3.62 178.54 2.44 177.08C1.36 175.76 0.84 174.04 0.84 171.92C0.84 169.8 1.38 168.06 2.48 166.7C3.68 165.18 5.4 164.44 7.6 164.44ZM20.2908 168.38C21.7708 168.38 22.8508 168.76 23.5708 169.54C24.1708 170.22 24.4908 171.16 24.4908 172.36V179H22.9908V177.26C22.5908 177.82 22.0508 178.28 21.4108 178.64C20.6508 179.06 19.7908 179.28 18.8308 179.28C17.7908 179.28 16.9708 179.02 16.3508 178.5C15.7108 177.96 15.3908 177.26 15.3908 176.42C15.3908 175.24 15.8508 174.36 16.8108 173.76C17.6508 173.2 18.8508 172.9 20.4108 172.88L22.8908 172.84V172.3C22.8908 170.56 21.9908 169.7 20.1908 169.7C19.4308 169.7 18.8108 169.84 18.3308 170.16C17.7908 170.48 17.4508 170.98 17.2908 171.64L15.7108 171.52C15.9308 170.44 16.4708 169.62 17.3108 169.1C18.0708 168.62 19.0508 168.38 20.2908 168.38ZM22.8908 174.04L20.5108 174.08C18.1908 174.12 17.0308 174.88 17.0308 176.38C17.0308 176.86 17.2108 177.24 17.6108 177.56C18.0108 177.86 18.5308 178.02 19.1708 178.02C20.1508 178.02 21.0108 177.7 21.7708 177.06C22.5108 176.44 22.8908 175.72 22.8908 174.92V174.04ZM31.1027 164.72H33.0827V166.1H31.3027C30.8627 166.1 30.5227 166.2 30.3227 166.44C30.1227 166.66 30.0227 167.02 30.0227 167.52V168.66H32.9427V170H30.0227V179H28.4227V170H25.8227V168.66H28.4227V167.48C28.4227 166.6 28.6427 165.94 29.0827 165.46C29.5427 164.96 30.2227 164.72 31.1027 164.72ZM38.6836 168.38C40.3436 168.38 41.6036 168.94 42.4436 170.06C43.2036 171.06 43.6036 172.48 43.6436 174.28H35.4836C35.5636 175.44 35.8636 176.34 36.4236 176.98C36.9836 177.62 37.7636 177.94 38.7436 177.94C39.5836 177.94 40.2836 177.72 40.8036 177.3C41.2436 176.94 41.5836 176.4 41.8436 175.68H43.4436C43.2036 176.68 42.7436 177.48 42.0436 178.12C41.1836 178.88 40.0836 179.28 38.7436 179.28C37.2636 179.28 36.0636 178.78 35.1836 177.82C34.2636 176.82 33.8236 175.5 33.8236 173.82C33.8236 172.3 34.2436 171.02 35.1236 170C36.0036 168.92 37.1836 168.38 38.6836 168.38ZM38.7236 169.72C37.8036 169.72 37.0636 170.02 36.5036 170.62C35.9436 171.22 35.6236 172.02 35.5236 173.04H41.9836C41.7836 170.82 40.6836 169.72 38.7236 169.72ZM49.1773 168.38C51.7373 168.38 53.1373 169.44 53.4173 171.6H51.8573C51.7173 170.96 51.4573 170.48 51.0573 170.2C50.6173 169.88 49.9773 169.72 49.1573 169.72C48.4373 169.72 47.8773 169.84 47.4773 170.12C47.0373 170.38 46.8173 170.74 46.8173 171.2C46.8173 171.64 47.0973 172.02 47.6973 172.32C48.0773 172.5 48.7973 172.72 49.8373 173C51.0773 173.3 51.9573 173.62 52.4973 173.96C53.3173 174.48 53.7373 175.18 53.7373 176.08C53.7373 178.2 52.2773 179.28 49.3573 179.28C46.6373 179.28 45.1573 178.08 44.9173 175.7H46.4773C46.5973 176.52 46.8973 177.1 47.3373 177.46C47.7773 177.78 48.4373 177.94 49.3173 177.94C51.1573 177.94 52.0973 177.34 52.0973 176.18C52.0973 175.6 51.7573 175.16 51.1173 174.84C50.7773 174.68 50.0373 174.46 48.9173 174.18C47.6973 173.88 46.8373 173.58 46.3573 173.26C45.5573 172.78 45.1773 172.12 45.1773 171.24C45.1773 170.36 45.5573 169.68 46.3373 169.16C47.0573 168.64 48.0173 168.38 49.1773 168.38Z" fill="black"/>
<path d="M0.34 238.72H12.04V240.14H7V253H5.38V240.14H0.34V238.72ZM18.1628 242.38C18.7228 242.38 19.2028 242.46 19.5828 242.62V244.22C19.0628 244.06 18.5428 244 18.0428 244C17.2428 244 16.5628 244.34 16.0228 245.06C15.4628 245.74 15.2028 246.56 15.2028 247.52V253H13.6228V242.66H15.2028V244.46C15.4828 243.86 15.8428 243.38 16.2828 243.04C16.8228 242.6 17.4428 242.38 18.1628 242.38ZM25.4275 242.38C26.9075 242.38 27.9875 242.76 28.7075 243.54C29.3075 244.22 29.6275 245.16 29.6275 246.36V253H28.1275V251.26C27.7275 251.82 27.1875 252.28 26.5475 252.64C25.7875 253.06 24.9275 253.28 23.9675 253.28C22.9275 253.28 22.1075 253.02 21.4875 252.5C20.8475 251.96 20.5275 251.26 20.5275 250.42C20.5275 249.24 20.9875 248.36 21.9475 247.76C22.7875 247.2 23.9875 246.9 25.5475 246.88L28.0275 246.84V246.3C28.0275 244.56 27.1275 243.7 25.3275 243.7C24.5675 243.7 23.9475 243.84 23.4675 244.16C22.9275 244.48 22.5875 244.98 22.4275 245.64L20.8475 245.52C21.0675 244.44 21.6075 243.62 22.4475 243.1C23.2075 242.62 24.1875 242.38 25.4275 242.38ZM28.0275 248.04L25.6475 248.08C23.3275 248.12 22.1675 248.88 22.1675 250.38C22.1675 250.86 22.3475 251.24 22.7475 251.56C23.1475 251.86 23.6675 252.02 24.3075 252.02C25.2875 252.02 26.1475 251.7 26.9075 251.06C27.6475 250.44 28.0275 249.72 28.0275 248.92V248.04ZM39.7394 238.44H41.3394V253H39.8394V251.3C39.1194 252.62 37.9594 253.28 36.3994 253.28C34.8794 253.28 33.6994 252.72 32.8594 251.64C32.0794 250.64 31.6994 249.36 31.6994 247.8C31.6994 246.28 32.0794 245.04 32.8594 244.04C33.6994 242.92 34.8394 242.38 36.3194 242.38C37.7994 242.38 38.9394 243.1 39.7394 244.56V238.44ZM36.6594 243.7C35.5194 243.7 34.6594 244.1 34.0994 244.9C33.5794 245.6 33.3394 246.56 33.3394 247.8C33.3394 249.04 33.5794 250.02 34.0794 250.74C34.6394 251.54 35.4794 251.96 36.5994 251.96C37.6394 251.96 38.4394 251.56 39.0194 250.76C39.5194 250.04 39.7794 249.1 39.7794 247.94V247.74C39.7794 246.54 39.4794 245.56 38.9194 244.82C38.3394 244.06 37.5794 243.7 36.6594 243.7ZM45.1381 238.76C45.4781 238.76 45.7581 238.86 45.9981 239.1C46.2381 239.3 46.3581 239.58 46.3581 239.94C46.3581 240.28 46.2381 240.56 45.9981 240.8C45.7581 241.02 45.4781 241.14 45.1381 241.14C44.7981 241.14 44.5181 241.02 44.2781 240.8C44.0381 240.56 43.9381 240.28 43.9381 239.94C43.9381 239.58 44.0381 239.3 44.2781 239.1C44.5181 238.86 44.7981 238.76 45.1381 238.76ZM44.3381 242.66H45.9381V253H44.3381V242.66ZM51.6953 239.32V242.66H54.2553V244H51.6953V250.58C51.6953 250.96 51.7553 251.24 51.9153 251.4C52.0553 251.56 52.3153 251.66 52.6753 251.66H53.9953V253H52.4353C51.5953 253 50.9753 252.78 50.6153 252.34C50.2753 251.94 50.1153 251.36 50.1153 250.58V244H48.0353V242.66H50.1153V239.98L51.6953 239.32ZM57.3647 238.76C57.7047 238.76 57.9847 238.86 58.2247 239.1C58.4647 239.3 58.5847 239.58 58.5847 239.94C58.5847 240.28 58.4647 240.56 58.2247 240.8C57.9847 241.02 57.7047 241.14 57.3647 241.14C57.0247 241.14 56.7447 241.02 56.5047 240.8C56.2647 240.56 56.1647 240.28 56.1647 239.94C56.1647 239.58 56.2647 239.3 56.5047 239.1C56.7447 238.86 57.0247 238.76 57.3647 238.76ZM56.5647 242.66H58.1647V253H56.5647V242.66ZM65.7819 242.38C67.3219 242.38 68.5619 242.9 69.4819 243.98C70.3619 245 70.8019 246.28 70.8019 247.84C70.8019 249.38 70.3619 250.66 69.5019 251.66C68.5619 252.74 67.3219 253.28 65.7819 253.28C64.2219 253.28 63.0019 252.74 62.0819 251.66C61.2019 250.66 60.7619 249.38 60.7619 247.84C60.7619 246.28 61.2019 245 62.0819 243.98C63.0019 242.9 64.2219 242.38 65.7819 242.38ZM65.7819 243.72C64.6819 243.72 63.8219 244.14 63.2219 244.98C62.6619 245.74 62.4019 246.68 62.4019 247.84C62.4019 248.98 62.6619 249.92 63.2219 250.68C63.8219 251.52 64.6819 251.94 65.7819 251.94C66.8619 251.94 67.7219 251.52 68.3619 250.68C68.9019 249.92 69.1819 248.96 69.1819 247.84C69.1819 246.68 68.9019 245.74 68.3619 244.98C67.7219 244.14 66.8619 243.72 65.7819 243.72ZM77.7206 242.38C80.2806 242.38 81.5806 243.8 81.5806 246.64V253H79.9806V246.76C79.9806 244.74 79.0606 243.74 77.2606 243.74C76.5406 243.74 75.9206 244 75.4006 244.52C74.8406 245.08 74.5406 245.82 74.4806 246.76V253H72.8806V242.66H74.4806V244.18C74.8406 243.6 75.3006 243.16 75.8606 242.86C76.4206 242.54 77.0406 242.38 77.7206 242.38ZM88.5525 242.38C90.0325 242.38 91.1125 242.76 91.8325 243.54C92.4325 244.22 92.7525 245.16 92.7525 246.36V253H91.2525V251.26C90.8525 251.82 90.3125 252.28 89.6725 252.64C88.9125 253.06 88.0525 253.28 87.0925 253.28C86.0525 253.28 85.2325 253.02 84.6125 252.5C83.9725 251.96 83.6525 251.26 83.6525 250.42C83.6525 249.24 84.1125 248.36 85.0725 247.76C85.9125 247.2 87.1125 246.9 88.6725 246.88L91.1525 246.84V246.3C91.1525 244.56 90.2525 243.7 88.4525 243.7C87.6925 243.7 87.0725 243.84 86.5925 244.16C86.0525 244.48 85.7125 244.98 85.5525 245.64L83.9725 245.52C84.1925 244.44 84.7325 243.62 85.5725 243.1C86.3325 242.62 87.3125 242.38 88.5525 242.38ZM91.1525 248.04L88.7725 248.08C86.4525 248.12 85.2925 248.88 85.2925 250.38C85.2925 250.86 85.4725 251.24 85.8725 251.56C86.2725 251.86 86.7925 252.02 87.4325 252.02C88.4125 252.02 89.2725 251.7 90.0325 251.06C90.7725 250.44 91.1525 249.72 91.1525 248.92V248.04ZM95.5444 238.44H97.1244V253H95.5444V238.44ZM111.212 242.38C112.752 242.38 113.992 242.9 114.912 243.98C115.792 245 116.232 246.28 116.232 247.84C116.232 249.38 115.792 250.66 114.932 251.66C113.992 252.74 112.752 253.28 111.212 253.28C109.652 253.28 108.432 252.74 107.512 251.66C106.632 250.66 106.192 249.38 106.192 247.84C106.192 246.28 106.632 245 107.512 243.98C108.432 242.9 109.652 242.38 111.212 242.38ZM111.212 243.72C110.112 243.72 109.252 244.14 108.652 244.98C108.092 245.74 107.832 246.68 107.832 247.84C107.832 248.98 108.092 249.92 108.652 250.68C109.252 251.52 110.112 251.94 111.212 251.94C112.292 251.94 113.152 251.52 113.792 250.68C114.332 249.92 114.612 248.96 114.612 247.84C114.612 246.68 114.332 245.74 113.792 244.98C113.152 244.14 112.292 243.72 111.212 243.72ZM122.45 238.72H124.43V240.1H122.65C122.21 240.1 121.87 240.2 121.67 240.44C121.47 240.66 121.37 241.02 121.37 241.52V242.66H126.03V241.48C126.03 240.62 126.25 239.96 126.69 239.48C127.13 238.96 127.81 238.72 128.71 238.72H130.69V240.1H128.89C128.45 240.1 128.13 240.2 127.93 240.44C127.71 240.66 127.61 241.02 127.61 241.52V242.66H133.93V253H132.33V244H127.61V253H126.03V244H121.37V253H119.77V244H117.17V242.66H119.77V241.48C119.77 240.6 119.99 239.94 120.43 239.46C120.89 238.96 121.57 238.72 122.45 238.72ZM141.188 242.38C142.468 242.38 143.488 242.68 144.268 243.28C145.068 243.9 145.548 244.84 145.728 246.1H144.148C144.008 245.3 143.688 244.7 143.188 244.3C142.668 243.9 142.008 243.72 141.188 243.72C140.188 243.72 139.388 244.1 138.808 244.86C138.248 245.6 137.968 246.6 137.968 247.86C137.968 249.12 138.228 250.12 138.788 250.84C139.328 251.56 140.128 251.94 141.168 251.94C142.928 251.94 143.948 251.04 144.188 249.26H145.788C145.548 250.58 145.048 251.6 144.248 252.28C143.468 252.94 142.448 253.28 141.168 253.28C139.608 253.28 138.408 252.76 137.548 251.72C136.728 250.74 136.328 249.46 136.328 247.88C136.328 246.3 136.728 245.02 137.548 244.02C138.428 242.92 139.648 242.38 141.188 242.38ZM151.926 242.38C153.586 242.38 154.846 242.94 155.686 244.06C156.446 245.06 156.846 246.48 156.886 248.28H148.726C148.806 249.44 149.106 250.34 149.666 250.98C150.226 251.62 151.006 251.94 151.986 251.94C152.826 251.94 153.526 251.72 154.046 251.3C154.486 250.94 154.826 250.4 155.086 249.68H156.686C156.446 250.68 155.986 251.48 155.286 252.12C154.426 252.88 153.326 253.28 151.986 253.28C150.506 253.28 149.306 252.78 148.426 251.82C147.506 250.82 147.066 249.5 147.066 247.82C147.066 246.3 147.486 245.02 148.366 244C149.246 242.92 150.426 242.38 151.926 242.38ZM151.966 243.72C151.046 243.72 150.306 244.02 149.746 244.62C149.186 245.22 148.866 246.02 148.766 247.04H155.226C155.026 244.82 153.926 243.72 151.966 243.72ZM162.42 242.38C164.98 242.38 166.38 243.44 166.66 245.6H165.1C164.96 244.96 164.7 244.48 164.3 244.2C163.86 243.88 163.22 243.72 162.4 243.72C161.68 243.72 161.12 243.84 160.72 244.12C160.28 244.38 160.06 244.74 160.06 245.2C160.06 245.64 160.34 246.02 160.94 246.32C161.32 246.5 162.04 246.72 163.08 247C164.32 247.3 165.2 247.62 165.74 247.96C166.56 248.48 166.98 249.18 166.98 250.08C166.98 252.2 165.52 253.28 162.6 253.28C159.88 253.28 158.4 252.08 158.16 249.7H159.72C159.84 250.52 160.14 251.1 160.58 251.46C161.02 251.78 161.68 251.94 162.56 251.94C164.4 251.94 165.34 251.34 165.34 250.18C165.34 249.6 165 249.16 164.36 248.84C164.02 248.68 163.28 248.46 162.16 248.18C160.94 247.88 160.08 247.58 159.6 247.26C158.8 246.78 158.42 246.12 158.42 245.24C158.42 244.36 158.8 243.68 159.58 243.16C160.3 242.64 161.26 242.38 162.42 242.38Z" fill="black"/>
<path d="M279.715 30.857L302.001 8.57129L324.286 30.857" stroke="#386676" stroke-width="2" stroke-linecap="round" stroke-linejoin="round"/>
<path d="M286.572 46.2857V24L302.001 8.625L317.429 24V46.2857H286.572Z" fill="#F7BEAF" stroke="#386676" stroke-width="2" stroke-linecap="round" stroke-linejoin="round"/>
<path d="M302 46.2856V32.5713" stroke="#386676" stroke-width="2" stroke-linecap="round" stroke-linejoin="round"/>
<path d="M351.715 30.857L374.001 8.57129L396.286 30.857" stroke="#386676" stroke-width="2" stroke-linecap="round" stroke-linejoin="round"/>
<path d="M358.572 46.2857V24L374.001 8.625L389.429 24V46.2857H358.572Z" fill="#F7BEAF" stroke="#386676" stroke-width="2" stroke-linecap="round" stroke-linejoin="round"/>
<path d="M374 46.2856V32.5713" stroke="#386676" stroke-width="2" stroke-linecap="round" stroke-linejoin="round"/>
<path d="M423.715 30.857L446.001 8.57129L468.286 30.857" stroke="#386676" stroke-width="2" stroke-linecap="round" stroke-linejoin="round"/>
<path d="M430.572 46.2857V24L446.001 8.625L461.429 24V46.2857H430.572Z" fill="#F7BEAF" stroke="#386676" stroke-width="2" stroke-linecap="round" stroke-linejoin="round"/>
<path d="M446 46.2856V32.5713" stroke="#386676" stroke-width="2" stroke-linecap="round" stroke-linejoin="round"/>
<path d="M495.715 30.857L518.001 8.57129L540.286 30.857" stroke="#386676" stroke-width="2" stroke-linecap="round" stroke-linejoin="round"/>
<path d="M502.572 46.2857V24L518.001 8.625L533.429 24V46.2857H502.572Z" fill="#F7BEAF" stroke="#386676" stroke-width="2" stroke-linecap="round" stroke-linejoin="round"/>
<path d="M518 46.2856V32.5713" stroke="#386676" stroke-width="2" stroke-linecap="round" stroke-linejoin="round"/>
<path d="M567.715 30.857L590.001 8.57129L612.286 30.857" stroke="#386676" stroke-width="2" stroke-linecap="round" stroke-linejoin="round"/>
<path d="M574.572 46.2857V24L590.001 8.625L605.429 24V46.2857H574.572Z" fill="#F7BEAF" stroke="#386676" stroke-width="2" stroke-linecap="round" stroke-linejoin="round"/>
<path d="M590 46.2856V32.5713" stroke="#386676" stroke-width="2" stroke-linecap="round" stroke-linejoin="round"/>
<path d="M639.715 30.857L662.001 8.57129L684.286 30.857" stroke="#386676" stroke-width="2" stroke-linecap="round" stroke-linejoin="round"/>
<path d="M646.572 46.2857V24L662.001 8.625L677.429 24V46.2857H646.572Z" fill="#F7BEAF" stroke="#386676" stroke-width="2" stroke-linecap="round" stroke-linejoin="round"/>
<path d="M662 46.2856V32.5713" stroke="#386676" stroke-width="2" stroke-linecap="round" stroke-linejoin="round"/>
<path d="M711.715 30.857L734.001 8.57129L756.286 30.857" stroke="#386676" stroke-width="2" stroke-linecap="round" stroke-linejoin="round"/>
<path d="M718.572 46.2857V24L734.001 8.625L749.429 24V46.2857H718.572Z" fill="#F7BEAF" stroke="#386676" stroke-width="2" stroke-linecap="round" stroke-linejoin="round"/>
<path d="M734 46.2856V32.5713" stroke="#386676" stroke-width="2" stroke-linecap="round" stroke-linejoin="round"/>
<path d="M783.715 30.857L806.001 8.57129L828.286 30.857" stroke="#386676" stroke-width="2" stroke-linecap="round" stroke-linejoin="round"/>
<path d="M790.572 46.2857V24L806.001 8.625L821.429 24V46.2857H790.572Z" fill="#F7BEAF" stroke="#386676" stroke-width="2" stroke-linecap="round" stroke-linejoin="round"/>
<path d="M806 46.2856V32.5713" stroke="#386676" stroke-width="2" stroke-linecap="round" stroke-linejoin="round"/>
<path d="M855.715 30.857L878.001 8.57129L900.286 30.857" stroke="#386676" stroke-width="2" stroke-linecap="round" stroke-linejoin="round"/>
<path d="M862.572 46.2857V24L878.001 8.625L893.429 24V46.2857H862.572Z" fill="#F7BEAF" stroke="#386676" stroke-width="2" stroke-linecap="round" stroke-linejoin="round"/>
<path d="M878 46.2856V32.5713" stroke="#386676" stroke-width="2" stroke-linecap="round" stroke-linejoin="round"/>
<path d="M927.715 30.857L950.001 8.57129L972.286 30.857" stroke="#386676" stroke-width="2" stroke-linecap="round" stroke-linejoin="round"/>
<path d="M934.572 46.2857V24L950.001 8.625L965.429 24V46.2857H934.572Z" fill="#F7BEAF" stroke="#386676" stroke-width="2" stroke-linecap="round" stroke-linejoin="round"/>
<path d="M950 46.2856V32.5713" stroke="#386676" stroke-width="2" stroke-linecap="round" stroke-linejoin="round"/>
<path d="M999.715 30.857L1022 8.57129L1044.29 30.857" stroke="#386676" stroke-width="2" stroke-linecap="round" stroke-linejoin="round"/>
<path d="M1006.57 46.2857V24L1022 8.625L1037.43 24V46.2857H1006.57Z" fill="#F7BEAF" stroke="#386676" stroke-width="2" stroke-linecap="round" stroke-linejoin="round"/>
<path d="M1022 46.2856V32.5713" stroke="#386676" stroke-width="2" stroke-linecap="round" stroke-linejoin="round"/>
<path d="M322.572 79.1426H281.429C280.482 79.1426 279.715 79.9101 279.715 80.8569V108.285C279.715 109.232 280.482 110 281.429 110H322.572C323.519 110 324.286 109.232 324.286 108.285V80.8569C324.286 79.9101 323.519 79.1426 322.572 79.1426Z" fill="#F7BEAF" stroke="#386676" stroke-width="2" stroke-linecap="round" stroke-linejoin="round"/>
<path d="M290.104 120.285C290.537 117.44 291.975 114.845 294.158 112.969C296.34 111.094 299.123 110.062 302.001 110.062C304.878 110.062 307.661 111.094 309.844 112.969C312.026 114.845 313.465 117.44 313.898 120.285" stroke="#386676" stroke-width="2" stroke-linecap="round" stroke-linejoin="round"/>
<path d="M394.572 79.1426H353.429C352.482 79.1426 351.715 79.9101 351.715 80.8569V108.285C351.715 109.232 352.482 110 353.429 110H394.572C395.519 110 396.286 109.232 396.286 108.285V80.8569C396.286 79.9101 395.519 79.1426 394.572 79.1426Z" fill="#F7BEAF" stroke="#386676" stroke-width="2" stroke-linecap="round" stroke-linejoin="round"/>
<path d="M362.104 120.285C362.537 117.44 363.975 114.845 366.158 112.969C368.34 111.094 371.123 110.062 374.001 110.062C376.878 110.062 379.661 111.094 381.844 112.969C384.026 114.845 385.465 117.44 385.898 120.285" stroke="#386676" stroke-width="2" stroke-linecap="round" stroke-linejoin="round"/>
<path d="M466.572 79.1426H425.429C424.482 79.1426 423.715 79.9101 423.715 80.8569V108.285C423.715 109.232 424.482 110 425.429 110H466.572C467.519 110 468.286 109.232 468.286 108.285V80.8569C468.286 79.9101 467.519 79.1426 466.572 79.1426Z" fill="#F7BEAF" stroke="#386676" stroke-width="2" stroke-linecap="round" stroke-linejoin="round"/>
<path d="M434.104 120.285C434.537 117.44 435.975 114.845 438.158 112.969C440.34 111.094 443.123 110.062 446.001 110.062C448.878 110.062 451.661 111.094 453.844 112.969C456.026 114.845 457.465 117.44 457.898 120.285" stroke="#386676" stroke-width="2" stroke-linecap="round" stroke-linejoin="round"/>
<path d="M538.572 79.1426H497.429C496.482 79.1426 495.715 79.9101 495.715 80.8569V108.285C495.715 109.232 496.482 110 497.429 110H538.572C539.519 110 540.286 109.232 540.286 108.285V80.8569C540.286 79.9101 539.519 79.1426 538.572 79.1426Z" fill="#F7BEAF" stroke="#386676" stroke-width="2" stroke-linecap="round" stroke-linejoin="round"/>
<path d="M506.104 120.285C506.537 117.44 507.975 114.845 510.158 112.969C512.34 111.094 515.123 110.062 518.001 110.062C520.878 110.062 523.661 111.094 525.844 112.969C528.026 114.845 529.465 117.44 529.898 120.285" stroke="#386676" stroke-width="2" stroke-linecap="round" stroke-linejoin="round"/>
<path d="M610.572 79.1426H569.429C568.482 79.1426 567.715 79.9101 567.715 80.8569V108.285C567.715 109.232 568.482 110 569.429 110H610.572C611.519 110 612.286 109.232 612.286 108.285V80.8569C612.286 79.9101 611.519 79.1426 610.572 79.1426Z" fill="#F7BEAF" stroke="#386676" stroke-width="2" stroke-linecap="round" stroke-linejoin="round"/>
<path d="M578.104 120.285C578.537 117.44 579.975 114.845 582.158 112.969C584.34 111.094 587.123 110.062 590.001 110.062C592.878 110.062 595.661 111.094 597.844 112.969C600.026 114.845 601.465 117.44 601.898 120.285" stroke="#386676" stroke-width="2" stroke-linecap="round" stroke-linejoin="round"/>
<path d="M314 169.75H317.429C319.247 169.75 320.991 170.472 322.277 171.758C323.563 173.044 324.286 174.789 324.286 176.607C324.286 178.426 323.563 180.17 322.277 181.456C320.991 182.742 319.247 183.464 317.429 183.464H314" fill="#F7BEAF"/>
<path d="M314 169.75H317.429C319.247 169.75 320.991 170.472 322.277 171.758C323.563 173.044 324.286 174.789 324.286 176.607C324.286 178.426 323.563 180.17 322.277 181.456C320.991 182.742 319.247 183.464 317.429 183.464H314" stroke="#386676" stroke-width="2" stroke-linecap="round" stroke-linejoin="round"/>
<path d="M284.958 164.5H312.292C312.745 164.5 313.179 164.709 313.5 165.081C313.82 165.452 314 165.956 314 166.482V184.321C314 186.424 313.28 188.441 311.999 189.928C310.717 191.415 308.979 192.25 307.167 192.25H290.083C288.271 192.25 286.533 191.415 285.251 189.928C283.97 188.441 283.25 186.424 283.25 184.321V166.482C283.25 165.956 283.43 165.452 283.75 165.081C284.071 164.709 284.505 164.5 284.958 164.5Z" fill="#F7BEAF" stroke="#386676" stroke-width="2" stroke-linecap="round" stroke-linejoin="round"/>
<path d="M288.5 151.75V158.5" stroke="#386676" stroke-width="2" stroke-linecap="round" stroke-linejoin="round"/>
<path d="M306.5 151.75V158.5" stroke="#386676" stroke-width="2" stroke-linecap="round" stroke-linejoin="round"/>
<path d="M297.5 151.75V158.5" stroke="#386676" stroke-width="2" stroke-linecap="round" stroke-linejoin="round"/>
<path d="M386 169.75H389.429C391.247 169.75 392.991 170.472 394.277 171.758C395.563 173.044 396.286 174.789 396.286 176.607C396.286 178.426 395.563 180.17 394.277 181.456C392.991 182.742 391.247 183.464 389.429 183.464H386" fill="#F7BEAF"/>
<path d="M386 169.75H389.429C391.247 169.75 392.991 170.472 394.277 171.758C395.563 173.044 396.286 174.789 396.286 176.607C396.286 178.426 395.563 180.17 394.277 181.456C392.991 182.742 391.247 183.464 389.429 183.464H386" stroke="#386676" stroke-width="2" stroke-linecap="round" stroke-linejoin="round"/>
<path d="M356.958 164.5H384.292C384.745 164.5 385.179 164.709 385.5 165.081C385.82 165.452 386 165.956 386 166.482V184.321C386 186.424 385.28 188.441 383.999 189.928C382.717 191.415 380.979 192.25 379.167 192.25H362.083C360.271 192.25 358.533 191.415 357.251 189.928C355.97 188.441 355.25 186.424 355.25 184.321V166.482C355.25 165.956 355.43 165.452 355.75 165.081C356.071 164.709 356.505 164.5 356.958 164.5Z" fill="#F7BEAF" stroke="#386676" stroke-width="2" stroke-linecap="round" stroke-linejoin="round"/>
<path d="M360.5 151.75V158.5" stroke="#386676" stroke-width="2" stroke-linecap="round" stroke-linejoin="round"/>
<path d="M378.5 151.75V158.5" stroke="#386676" stroke-width="2" stroke-linecap="round" stroke-linejoin="round"/>
<path d="M369.5 151.75V158.5" stroke="#386676" stroke-width="2" stroke-linecap="round" stroke-linejoin="round"/>
<path d="M458 169.75H461.429C463.247 169.75 464.991 170.472 466.277 171.758C467.563 173.044 468.286 174.789 468.286 176.607C468.286 178.426 467.563 180.17 466.277 181.456C464.991 182.742 463.247 183.464 461.429 183.464H458" fill="#F7BEAF"/>
<path d="M458 169.75H461.429C463.247 169.75 464.991 170.472 466.277 171.758C467.563 173.044 468.286 174.789 468.286 176.607C468.286 178.426 467.563 180.17 466.277 181.456C464.991 182.742 463.247 183.464 461.429 183.464H458" stroke="#386676" stroke-width="2" stroke-linecap="round" stroke-linejoin="round"/>
<path d="M428.958 164.5H456.292C456.745 164.5 457.179 164.709 457.5 165.081C457.82 165.452 458 165.956 458 166.482V184.321C458 186.424 457.28 188.441 455.999 189.928C454.717 191.415 452.979 192.25 451.167 192.25H434.083C432.271 192.25 430.533 191.415 429.251 189.928C427.97 188.441 427.25 186.424 427.25 184.321V166.482C427.25 165.956 427.43 165.452 427.75 165.081C428.071 164.709 428.505 164.5 428.958 164.5Z" fill="#F7BEAF" stroke="#386676" stroke-width="2" stroke-linecap="round" stroke-linejoin="round"/>
<path d="M432.5 151.75V158.5" stroke="#386676" stroke-width="2" stroke-linecap="round" stroke-linejoin="round"/>
<path d="M450.5 151.75V158.5" stroke="#386676" stroke-width="2" stroke-linecap="round" stroke-linejoin="round"/>
<path d="M441.5 151.75V158.5" stroke="#386676" stroke-width="2" stroke-linecap="round" stroke-linejoin="round"/>
<path d="M530 169.75H533.429C535.247 169.75 536.991 170.472 538.277 171.758C539.563 173.044 540.286 174.789 540.286 176.607C540.286 178.426 539.563 180.17 538.277 181.456C536.991 182.742 535.247 183.464 533.429 183.464H530" fill="#F7BEAF"/>
<path d="M530 169.75H533.429C535.247 169.75 536.991 170.472 538.277 171.758C539.563 173.044 540.286 174.789 540.286 176.607C540.286 178.426 539.563 180.17 538.277 181.456C536.991 182.742 535.247 183.464 533.429 183.464H530" stroke="#386676" stroke-width="2" stroke-linecap="round" stroke-linejoin="round"/>
<path d="M500.958 164.5H528.292C528.745 164.5 529.179 164.709 529.5 165.081C529.82 165.452 530 165.956 530 166.482V184.321C530 186.424 529.28 188.441 527.999 189.928C526.717 191.415 524.979 192.25 523.167 192.25H506.083C504.271 192.25 502.533 191.415 501.251 189.928C499.97 188.441 499.25 186.424 499.25 184.321V166.482C499.25 165.956 499.43 165.452 499.75 165.081C500.071 164.709 500.505 164.5 500.958 164.5Z" fill="#F7BEAF" stroke="#386676" stroke-width="2" stroke-linecap="round" stroke-linejoin="round"/>
<path d="M504.5 151.75V158.5" stroke="#386676" stroke-width="2" stroke-linecap="round" stroke-linejoin="round"/>
<path d="M522.5 151.75V158.5" stroke="#386676" stroke-width="2" stroke-linecap="round" stroke-linejoin="round"/>
<path d="M513.5 151.75V158.5" stroke="#386676" stroke-width="2" stroke-linecap="round" stroke-linejoin="round"/>
<path d="M317.429 235.714H286.572C282.785 235.714 279.715 238.784 279.715 242.571V261.428C279.715 265.215 282.785 268.285 286.572 268.285H317.429C321.216 268.285 324.286 265.215 324.286 261.428V242.571C324.286 238.784 321.216 235.714 317.429 235.714Z" fill="#F7BEAF" stroke="#386676" stroke-width="2" stroke-linecap="round" stroke-linejoin="round"/>
<path d="M291.715 268.285V235.714" stroke="#386676" stroke-width="2" stroke-linecap="round" stroke-linejoin="round"/>
<path d="M312.287 268.285V235.714" stroke="#386676" stroke-width="2" stroke-linecap="round" stroke-linejoin="round"/>
<path d="M293.43 235.714C293.43 233.441 294.333 231.261 295.94 229.653C297.548 228.046 299.728 227.143 302.001 227.143C304.274 227.143 306.455 228.046 308.062 229.653C309.669 231.261 310.573 233.441 310.573 235.714" stroke="#386676" stroke-width="2" stroke-linecap="round" stroke-linejoin="round"/>
<path d="M389.429 235.714H358.572C354.785 235.714 351.715 238.784 351.715 242.571V261.428C351.715 265.215 354.785 268.285 358.572 268.285H389.429C393.216 268.285 396.286 265.215 396.286 261.428V242.571C396.286 238.784 393.216 235.714 389.429 235.714Z" fill="#F7BEAF" stroke="#386676" stroke-width="2" stroke-linecap="round" stroke-linejoin="round"/>
<path d="M363.715 268.285V235.714" stroke="#386676" stroke-width="2" stroke-linecap="round" stroke-linejoin="round"/>
<path d="M384.287 268.285V235.714" stroke="#386676" stroke-width="2" stroke-linecap="round" stroke-linejoin="round"/>
<path d="M365.43 235.714C365.43 233.441 366.333 231.261 367.94 229.653C369.548 228.046 371.728 227.143 374.001 227.143C376.274 227.143 378.455 228.046 380.062 229.653C381.669 231.261 382.573 233.441 382.573 235.714" stroke="#386676" stroke-width="2" stroke-linecap="round" stroke-linejoin="round"/>
<path d="M461.429 235.714H430.572C426.785 235.714 423.715 238.784 423.715 242.571V261.428C423.715 265.215 426.785 268.285 430.572 268.285H461.429C465.216 268.285 468.286 265.215 468.286 261.428V242.571C468.286 238.784 465.216 235.714 461.429 235.714Z" fill="#F7BEAF" stroke="#386676" stroke-width="2" stroke-linecap="round" stroke-linejoin="round"/>
<path d="M435.715 268.285V235.714" stroke="#386676" stroke-width="2" stroke-linecap="round" stroke-linejoin="round"/>
<path d="M456.287 268.285V235.714" stroke="#386676" stroke-width="2" stroke-linecap="round" stroke-linejoin="round"/>
<path d="M437.43 235.714C437.43 233.441 438.333 231.261 439.94 229.653C441.548 228.046 443.728 227.143 446.001 227.143C448.274 227.143 450.455 228.046 452.062 229.653C453.669 231.261 454.573 233.441 454.573 235.714" stroke="#386676" stroke-width="2" stroke-linecap="round" stroke-linejoin="round"/>
<path d="M317.428 304.714H286.571C284.678 304.714 283.143 306.249 283.143 308.142V345.857C283.143 347.75 284.678 349.285 286.571 349.285H317.428C319.322 349.285 320.857 347.75 320.857 345.857V308.142C320.857 306.249 319.322 304.714 317.428 304.714Z" fill="#F7BEAF" stroke="#386676" stroke-width="2" stroke-linecap="round" stroke-linejoin="round"/>
<path d="M310.571 304.714V315H293.428V304.714" stroke="#386676" stroke-width="2" stroke-linecap="round" stroke-linejoin="round"/>
<path d="M283.143 323.571H320.857" stroke="#386676" stroke-width="2" stroke-linecap="round" stroke-linejoin="round"/>
<g clip-path="url(#clip0_828_285)">
<path d="M302.001 423.285C314.309 423.285 324.286 413.308 324.286 401C324.286 388.692 314.309 378.714 302.001 378.714C289.692 378.714 279.715 388.692 279.715 401C279.715 413.308 289.692 423.285 302.001 423.285Z" fill="#F7BEAF" stroke="#386676" stroke-width="2" stroke-linecap="round" stroke-linejoin="round"/>
</g>
<g clip-path="url(#clip1_828_285)">
<path d="M374.001 423.285C386.309 423.285 396.286 413.308 396.286 401C396.286 388.692 386.309 378.714 374.001 378.714C361.692 378.714 351.715 388.692 351.715 401C351.715 413.308 361.692 423.285 374.001 423.285Z" fill="#F7BEAF" stroke="#386676" stroke-width="2" stroke-linecap="round" stroke-linejoin="round"/>
</g>
<path d="M1162.03 386.72H1163.57V396.42H1165.89V397.76H1163.57V401H1162.01V397.76H1154.83V396.2L1162.03 386.72ZM1161.95 388.86L1156.21 396.42H1162.01V388.86H1161.95ZM1168.98 398.62C1169.31 398.62 1169.6 398.74 1169.84 398.98C1170.08 399.22 1170.2 399.513 1170.2 399.86C1170.2 400.193 1170.08 400.48 1169.84 400.72C1169.6 400.96 1169.31 401.08 1168.98 401.08C1168.63 401.08 1168.35 400.96 1168.12 400.72C1167.88 400.48 1167.76 400.193 1167.76 399.86C1167.76 399.513 1167.88 399.22 1168.12 398.98C1168.35 398.74 1168.63 398.62 1168.98 398.62ZM1177.45 386.44C1179.17 386.44 1180.47 387.08 1181.35 388.36C1182.19 389.56 1182.61 391.267 1182.61 393.48C1182.61 394.613 1182.5 395.647 1182.27 396.58C1182.05 397.5 1181.71 398.32 1181.27 399.04C1180.3 400.533 1179.02 401.28 1177.43 401.28C1174.78 401.28 1173.26 400.007 1172.87 397.46H1174.49C1174.8 399.087 1175.79 399.9 1177.45 399.9C1178.55 399.9 1179.43 399.347 1180.09 398.24C1180.72 397.173 1181.03 395.84 1181.03 394.24C1181.03 394.187 1181.03 394.12 1181.01 394.04C1181.01 393.947 1181.01 393.84 1181.01 393.72H1180.93C1180.57 394.44 1180.06 395.013 1179.39 395.44C1178.73 395.853 1177.99 396.06 1177.17 396.06C1175.8 396.06 1174.69 395.607 1173.85 394.7C1173.04 393.847 1172.63 392.727 1172.63 391.34C1172.63 389.913 1173.09 388.747 1173.99 387.84C1174.89 386.907 1176.04 386.44 1177.45 386.44ZM1177.49 387.82C1176.52 387.82 1175.73 388.147 1175.13 388.8C1174.55 389.44 1174.25 390.287 1174.25 391.34C1174.25 392.367 1174.55 393.173 1175.13 393.76C1175.72 394.387 1176.51 394.7 1177.49 394.7C1178.41 394.7 1179.19 394.38 1179.83 393.74C1180.45 393.087 1180.75 392.273 1180.75 391.3C1180.75 390.313 1180.46 389.493 1179.87 388.84C1179.27 388.16 1178.48 387.82 1177.49 387.82ZM1198.39 393.18C1199.45 393.18 1200.27 393.573 1200.85 394.36C1201.35 395.053 1201.61 395.967 1201.61 397.1C1201.61 398.22 1201.35 399.133 1200.85 399.84C1200.26 400.613 1199.44 401 1198.39 401C1197.32 401 1196.5 400.613 1195.93 399.84C1195.42 399.133 1195.17 398.22 1195.17 397.1C1195.17 395.94 1195.42 395.027 1195.93 394.36C1196.47 393.573 1197.29 393.18 1198.39 393.18ZM1196.67 386.44H1197.95L1189.95 401.28H1188.65L1196.67 386.44ZM1188.23 386.72C1189.29 386.72 1190.11 387.113 1190.69 387.9C1191.19 388.593 1191.45 389.507 1191.45 390.64C1191.45 391.76 1191.19 392.673 1190.69 393.38C1190.1 394.153 1189.28 394.54 1188.23 394.54C1187.16 394.54 1186.34 394.153 1185.77 393.38C1185.26 392.673 1185.01 391.76 1185.01 390.64C1185.01 389.48 1185.26 388.567 1185.77 387.9C1186.31 387.113 1187.13 386.72 1188.23 386.72ZM1198.39 394.26C1197.77 394.26 1197.33 394.54 1197.05 395.1C1196.79 395.567 1196.67 396.233 1196.67 397.1C1196.67 397.94 1196.79 398.593 1197.05 399.06C1197.34 399.633 1197.79 399.92 1198.39 399.92C1198.97 399.92 1199.42 399.627 1199.73 399.04C1199.85 398.8 1199.94 398.52 1200.01 398.2C1200.07 397.88 1200.11 397.513 1200.11 397.1C1200.11 396.673 1200.07 396.3 1200.01 395.98C1199.94 395.647 1199.85 395.36 1199.73 395.12C1199.43 394.547 1198.99 394.26 1198.39 394.26ZM1188.23 387.8C1187.61 387.8 1187.17 388.08 1186.89 388.64C1186.63 389.107 1186.51 389.773 1186.51 390.64C1186.51 391.48 1186.63 392.133 1186.89 392.6C1187.18 393.173 1187.63 393.46 1188.23 393.46C1188.81 393.46 1189.26 393.167 1189.57 392.58C1189.69 392.34 1189.78 392.06 1189.85 391.74C1189.91 391.42 1189.95 391.053 1189.95 390.64C1189.95 389.813 1189.81 389.153 1189.55 388.66C1189.27 388.087 1188.83 387.8 1188.23 387.8Z" fill="black"/>
<path d="M1160.49 312.44C1161.87 312.44 1162.98 312.787 1163.81 313.48C1164.63 314.187 1165.05 315.133 1165.05 316.32C1165.05 317.933 1164.27 319 1162.71 319.52C1163.56 319.787 1164.2 320.193 1164.63 320.74C1165.11 321.3 1165.35 322 1165.35 322.84C1165.35 324.133 1164.89 325.193 1163.99 326.02C1163.07 326.86 1161.87 327.28 1160.39 327.28C1159.05 327.28 1157.95 326.933 1157.07 326.24C1156.05 325.4 1155.49 324.18 1155.37 322.58H1157.03C1157.07 323.7 1157.44 324.553 1158.15 325.14C1158.76 325.633 1159.51 325.88 1160.39 325.88C1161.4 325.88 1162.22 325.587 1162.85 325C1163.42 324.427 1163.71 323.727 1163.71 322.9C1163.71 322.047 1163.43 321.38 1162.87 320.9C1162.32 320.433 1161.55 320.2 1160.55 320.2H1159.39V318.92H1160.49C1161.43 318.92 1162.16 318.707 1162.67 318.28C1163.17 317.84 1163.43 317.22 1163.43 316.42C1163.43 315.633 1163.18 315.013 1162.69 314.56C1162.18 314.093 1161.45 313.86 1160.51 313.86C1159.53 313.86 1158.79 314.113 1158.27 314.62C1157.72 315.127 1157.39 315.867 1157.29 316.84H1155.67C1155.79 315.467 1156.29 314.387 1157.19 313.6C1158.01 312.827 1159.11 312.44 1160.49 312.44ZM1168.98 324.62C1169.31 324.62 1169.6 324.74 1169.84 324.98C1170.08 325.22 1170.2 325.513 1170.2 325.86C1170.2 326.193 1170.08 326.48 1169.84 326.72C1169.6 326.96 1169.31 327.08 1168.98 327.08C1168.63 327.08 1168.35 326.96 1168.12 326.72C1167.88 326.48 1167.76 326.193 1167.76 325.86C1167.76 325.513 1167.88 325.22 1168.12 324.98C1168.35 324.74 1168.63 324.62 1168.98 324.62ZM1177.61 312.44C1179.12 312.44 1180.29 312.827 1181.11 313.6C1181.89 314.307 1182.27 315.18 1182.27 316.22C1182.27 316.98 1182.09 317.62 1181.73 318.14C1181.32 318.713 1180.75 319.127 1180.03 319.38V319.42C1180.78 319.607 1181.41 320.02 1181.93 320.66C1182.49 321.34 1182.77 322.14 1182.77 323.06C1182.77 324.327 1182.33 325.34 1181.45 326.1C1180.52 326.887 1179.24 327.28 1177.61 327.28C1175.96 327.28 1174.68 326.887 1173.77 326.1C1172.89 325.34 1172.45 324.327 1172.45 323.06C1172.45 322.14 1172.73 321.34 1173.29 320.66C1173.83 320.007 1174.46 319.593 1175.19 319.42V319.38C1174.45 319.127 1173.88 318.713 1173.49 318.14C1173.13 317.62 1172.95 316.98 1172.95 316.22C1172.95 315.167 1173.34 314.293 1174.11 313.6C1174.94 312.827 1176.11 312.44 1177.61 312.44ZM1177.61 313.78C1176.59 313.78 1175.79 314.04 1175.23 314.56C1174.74 315 1174.49 315.573 1174.49 316.28C1174.49 317.013 1174.71 317.6 1175.15 318.04C1175.69 318.573 1176.51 318.84 1177.61 318.84C1178.69 318.84 1179.51 318.573 1180.07 318.04C1180.51 317.6 1180.73 317.013 1180.73 316.28C1180.73 315.587 1180.49 315.013 1179.99 314.56C1179.42 314.04 1178.63 313.78 1177.61 313.78ZM1177.61 320.12C1176.45 320.12 1175.57 320.407 1174.95 320.98C1174.37 321.487 1174.07 322.18 1174.07 323.06C1174.07 323.927 1174.37 324.613 1174.95 325.12C1175.57 325.667 1176.45 325.94 1177.61 325.94C1178.76 325.94 1179.65 325.66 1180.29 325.1C1180.87 324.567 1181.15 323.887 1181.15 323.06C1181.15 322.207 1180.87 321.513 1180.29 320.98C1179.67 320.407 1178.77 320.12 1177.61 320.12ZM1198.39 319.18C1199.45 319.18 1200.27 319.573 1200.85 320.36C1201.35 321.053 1201.61 321.967 1201.61 323.1C1201.61 324.22 1201.35 325.133 1200.85 325.84C1200.26 326.613 1199.44 327 1198.39 327C1197.32 327 1196.5 326.613 1195.93 325.84C1195.42 325.133 1195.17 324.22 1195.17 323.1C1195.17 321.94 1195.42 321.027 1195.93 320.36C1196.47 319.573 1197.29 319.18 1198.39 319.18ZM1196.67 312.44H1197.95L1189.95 327.28H1188.65L1196.67 312.44ZM1188.23 312.72C1189.29 312.72 1190.11 313.113 1190.69 313.9C1191.19 314.593 1191.45 315.507 1191.45 316.64C1191.45 317.76 1191.19 318.673 1190.69 319.38C1190.1 320.153 1189.28 320.54 1188.23 320.54C1187.16 320.54 1186.34 320.153 1185.77 319.38C1185.26 318.673 1185.01 317.76 1185.01 316.64C1185.01 315.48 1185.26 314.567 1185.77 313.9C1186.31 313.113 1187.13 312.72 1188.23 312.72ZM1198.39 320.26C1197.77 320.26 1197.33 320.54 1197.05 321.1C1196.79 321.567 1196.67 322.233 1196.67 323.1C1196.67 323.94 1196.79 324.593 1197.05 325.06C1197.34 325.633 1197.79 325.92 1198.39 325.92C1198.97 325.92 1199.42 325.627 1199.73 325.04C1199.85 324.8 1199.94 324.52 1200.01 324.2C1200.07 323.88 1200.11 323.513 1200.11 323.1C1200.11 322.673 1200.07 322.3 1200.01 321.98C1199.94 321.647 1199.85 321.36 1199.73 321.12C1199.43 320.547 1198.99 320.26 1198.39 320.26ZM1188.23 313.8C1187.61 313.8 1187.17 314.08 1186.89 314.64C1186.63 315.107 1186.51 315.773 1186.51 316.64C1186.51 317.48 1186.63 318.133 1186.89 318.6C1187.18 319.173 1187.63 319.46 1188.23 319.46C1188.81 319.46 1189.26 319.167 1189.57 318.58C1189.69 318.34 1189.78 318.06 1189.85 317.74C1189.91 317.42 1189.95 317.053 1189.95 316.64C1189.95 315.813 1189.81 315.153 1189.55 314.66C1189.27 314.087 1188.83 313.8 1188.23 313.8Z" fill="black"/>
<path d="M1144.46 16.72H1152.76V18.18H1145.8L1145.32 22.96H1145.4C1145.8 22.48 1146.31 22.12 1146.94 21.88C1147.22 21.76 1147.5 21.6733 1147.8 21.62C1148.1 21.5667 1148.42 21.54 1148.76 21.54C1150.12 21.54 1151.22 21.9667 1152.06 22.82C1152.91 23.7133 1153.34 24.92 1153.34 26.44C1153.34 27.88 1152.82 29.06 1151.8 29.98C1150.82 30.8467 1149.64 31.28 1148.24 31.28C1146.97 31.28 1145.9 30.94 1145.02 30.26C1144.03 29.5 1143.48 28.4667 1143.38 27.16H1145C1145.08 28.0667 1145.44 28.76 1146.08 29.24C1146.65 29.6667 1147.38 29.88 1148.26 29.88C1149.26 29.88 1150.08 29.56 1150.74 28.92C1151.39 28.2667 1151.72 27.4467 1151.72 26.46C1151.72 25.34 1151.41 24.46 1150.8 23.82C1150.22 23.1933 1149.41 22.88 1148.36 22.88C1147.68 22.88 1147.07 23.0267 1146.54 23.32C1145.96 23.6 1145.54 24.0267 1145.26 24.6H1143.7L1144.46 16.72ZM1156.45 16.72H1164.75V18.18H1157.79L1157.31 22.96H1157.39C1157.79 22.48 1158.3 22.12 1158.93 21.88C1159.21 21.76 1159.49 21.6733 1159.79 21.62C1160.09 21.5667 1160.41 21.54 1160.75 21.54C1162.11 21.54 1163.21 21.9667 1164.05 22.82C1164.9 23.7133 1165.33 24.92 1165.33 26.44C1165.33 27.88 1164.81 29.06 1163.79 29.98C1162.81 30.8467 1161.63 31.28 1160.23 31.28C1158.96 31.28 1157.89 30.94 1157.01 30.26C1156.02 29.5 1155.47 28.4667 1155.37 27.16H1156.99C1157.07 28.0667 1157.43 28.76 1158.07 29.24C1158.64 29.6667 1159.37 29.88 1160.25 29.88C1161.25 29.88 1162.07 29.56 1162.73 28.92C1163.38 28.2667 1163.71 27.4467 1163.71 26.46C1163.71 25.34 1163.4 24.46 1162.79 23.82C1162.21 23.1933 1161.4 22.88 1160.35 22.88C1159.67 22.88 1159.06 23.0267 1158.53 23.32C1157.95 23.6 1157.53 24.0267 1157.25 24.6H1155.69L1156.45 16.72ZM1168.98 28.62C1169.31 28.62 1169.6 28.74 1169.84 28.98C1170.08 29.22 1170.2 29.5133 1170.2 29.86C1170.2 30.1933 1170.08 30.48 1169.84 30.72C1169.6 30.96 1169.31 31.08 1168.98 31.08C1168.63 31.08 1168.35 30.96 1168.12 30.72C1167.88 30.48 1167.76 30.1933 1167.76 29.86C1167.76 29.5133 1167.88 29.22 1168.12 28.98C1168.35 28.74 1168.63 28.62 1168.98 28.62ZM1179.29 16.72H1180.83V26.42H1183.15V27.76H1180.83V31H1179.27V27.76H1172.09V26.2L1179.29 16.72ZM1179.21 18.86L1173.47 26.42H1179.27V18.86H1179.21ZM1198.39 23.18C1199.45 23.18 1200.27 23.5733 1200.85 24.36C1201.35 25.0533 1201.61 25.9667 1201.61 27.1C1201.61 28.22 1201.35 29.1333 1200.85 29.84C1200.26 30.6133 1199.44 31 1198.39 31C1197.32 31 1196.5 30.6133 1195.93 29.84C1195.42 29.1333 1195.17 28.22 1195.17 27.1C1195.17 25.94 1195.42 25.0267 1195.93 24.36C1196.47 23.5733 1197.29 23.18 1198.39 23.18ZM1196.67 16.44H1197.95L1189.95 31.28H1188.65L1196.67 16.44ZM1188.23 16.72C1189.29 16.72 1190.11 17.1133 1190.69 17.9C1191.19 18.5933 1191.45 19.5067 1191.45 20.64C1191.45 21.76 1191.19 22.6733 1190.69 23.38C1190.1 24.1533 1189.28 24.54 1188.23 24.54C1187.16 24.54 1186.34 24.1533 1185.77 23.38C1185.26 22.6733 1185.01 21.76 1185.01 20.64C1185.01 19.48 1185.26 18.5667 1185.77 17.9C1186.31 17.1133 1187.13 16.72 1188.23 16.72ZM1198.39 24.26C1197.77 24.26 1197.33 24.54 1197.05 25.1C1196.79 25.5667 1196.67 26.2333 1196.67 27.1C1196.67 27.94 1196.79 28.5933 1197.05 29.06C1197.34 29.6333 1197.79 29.92 1198.39 29.92C1198.97 29.92 1199.42 29.6267 1199.73 29.04C1199.85 28.8 1199.94 28.52 1200.01 28.2C1200.07 27.88 1200.11 27.5133 1200.11 27.1C1200.11 26.6733 1200.07 26.3 1200.01 25.98C1199.94 25.6467 1199.85 25.36 1199.73 25.12C1199.43 24.5467 1198.99 24.26 1198.39 24.26ZM1188.23 17.8C1187.61 17.8 1187.17 18.08 1186.89 18.64C1186.63 19.1067 1186.51 19.7733 1186.51 20.64C1186.51 21.48 1186.63 22.1333 1186.89 22.6C1187.18 23.1733 1187.63 23.46 1188.23 23.46C1188.81 23.46 1189.26 23.1667 1189.57 22.58C1189.69 22.34 1189.78 22.06 1189.85 21.74C1189.91 21.42 1189.95 21.0533 1189.95 20.64C1189.95 19.8133 1189.81 19.1533 1189.55 18.66C1189.27 18.0867 1188.83 17.8 1188.23 17.8Z" fill="black"/>
<path d="M1150.92 90.72H1152.2V105H1150.56V92.72C1149.68 93.6267 1148.56 94.28 1147.2 94.68V93.04C1147.52 92.9467 1147.85 92.8333 1148.18 92.7C1148.53 92.5533 1148.87 92.38 1149.2 92.18C1149.87 91.7533 1150.44 91.2667 1150.92 90.72ZM1160.55 90.44C1163.19 90.44 1164.71 91.7133 1165.11 94.26H1163.49C1163.17 92.6333 1162.18 91.82 1160.53 91.82C1159.39 91.82 1158.51 92.3733 1157.89 93.48C1157.26 94.4933 1156.95 95.8267 1156.95 97.48C1156.95 97.52 1156.95 97.5867 1156.95 97.68C1156.95 97.76 1156.95 97.8667 1156.97 98H1157.05C1157.42 97.24 1157.93 96.6667 1158.59 96.28C1159.21 95.8667 1159.95 95.66 1160.81 95.66C1162.17 95.66 1163.27 96.1 1164.11 96.98C1164.93 97.8733 1165.35 99.0067 1165.35 100.38C1165.35 101.78 1164.89 102.947 1163.99 103.88C1163.05 104.813 1161.9 105.28 1160.53 105.28C1158.81 105.28 1157.5 104.633 1156.61 103.34C1155.78 102.14 1155.37 100.44 1155.37 98.24C1155.37 95.9467 1155.81 94.0933 1156.71 92.68C1157.64 91.1867 1158.92 90.44 1160.55 90.44ZM1160.49 97.02C1159.55 97.02 1158.77 97.34 1158.15 97.98C1157.53 98.6067 1157.23 99.42 1157.23 100.42C1157.23 101.433 1157.52 102.253 1158.11 102.88C1158.71 103.56 1159.5 103.9 1160.49 103.9C1161.43 103.9 1162.21 103.573 1162.83 102.92C1163.43 102.24 1163.73 101.393 1163.73 100.38C1163.73 99.38 1163.43 98.5733 1162.85 97.96C1162.26 97.3333 1161.47 97.02 1160.49 97.02ZM1168.98 102.62C1169.31 102.62 1169.6 102.74 1169.84 102.98C1170.08 103.22 1170.2 103.513 1170.2 103.86C1170.2 104.193 1170.08 104.48 1169.84 104.72C1169.6 104.96 1169.31 105.08 1168.98 105.08C1168.63 105.08 1168.35 104.96 1168.12 104.72C1167.88 104.48 1167.76 104.193 1167.76 103.86C1167.76 103.513 1167.88 103.22 1168.12 102.98C1168.35 102.74 1168.63 102.62 1168.98 102.62ZM1177.81 90.44C1179.13 90.44 1180.22 90.82 1181.07 91.58C1181.93 92.3533 1182.35 93.36 1182.35 94.6C1182.35 95.8267 1181.89 96.9467 1180.95 97.96C1180.7 98.2133 1180.33 98.5333 1179.83 98.92C1179.35 99.3067 1178.74 99.7533 1177.99 100.26C1176.18 101.473 1175.14 102.567 1174.87 103.54H1182.37V105H1172.85C1172.85 103.68 1173.33 102.5 1174.27 101.46C1174.55 101.14 1174.95 100.767 1175.45 100.34C1175.97 99.9133 1176.61 99.44 1177.37 98.92C1177.93 98.52 1178.4 98.1733 1178.77 97.88C1179.15 97.5867 1179.43 97.34 1179.61 97.14C1180.35 96.34 1180.71 95.4867 1180.71 94.58C1180.71 93.7133 1180.45 93.04 1179.93 92.56C1179.41 92.08 1178.69 91.84 1177.75 91.84C1176.75 91.84 1176 92.1733 1175.49 92.84C1174.92 93.4933 1174.63 94.4467 1174.61 95.7H1172.97C1172.97 94.1133 1173.42 92.84 1174.31 91.88C1175.19 90.92 1176.36 90.44 1177.81 90.44ZM1198.39 97.18C1199.45 97.18 1200.27 97.5733 1200.85 98.36C1201.35 99.0533 1201.61 99.9667 1201.61 101.1C1201.61 102.22 1201.35 103.133 1200.85 103.84C1200.26 104.613 1199.44 105 1198.39 105C1197.32 105 1196.5 104.613 1195.93 103.84C1195.42 103.133 1195.17 102.22 1195.17 101.1C1195.17 99.94 1195.42 99.0267 1195.93 98.36C1196.47 97.5733 1197.29 97.18 1198.39 97.18ZM1196.67 90.44H1197.95L1189.95 105.28H1188.65L1196.67 90.44ZM1188.23 90.72C1189.29 90.72 1190.11 91.1133 1190.69 91.9C1191.19 92.5933 1191.45 93.5067 1191.45 94.64C1191.45 95.76 1191.19 96.6733 1190.69 97.38C1190.1 98.1533 1189.28 98.54 1188.23 98.54C1187.16 98.54 1186.34 98.1533 1185.77 97.38C1185.26 96.6733 1185.01 95.76 1185.01 94.64C1185.01 93.48 1185.26 92.5667 1185.77 91.9C1186.31 91.1133 1187.13 90.72 1188.23 90.72ZM1198.39 98.26C1197.77 98.26 1197.33 98.54 1197.05 99.1C1196.79 99.5667 1196.67 100.233 1196.67 101.1C1196.67 101.94 1196.79 102.593 1197.05 103.06C1197.34 103.633 1197.79 103.92 1198.39 103.92C1198.97 103.92 1199.42 103.627 1199.73 103.04C1199.85 102.8 1199.94 102.52 1200.01 102.2C1200.07 101.88 1200.11 101.513 1200.11 101.1C1200.11 100.673 1200.07 100.3 1200.01 99.98C1199.94 99.6467 1199.85 99.36 1199.73 99.12C1199.43 98.5467 1198.99 98.26 1198.39 98.26ZM1188.23 91.8C1187.61 91.8 1187.17 92.08 1186.89 92.64C1186.63 93.1067 1186.51 93.7733 1186.51 94.64C1186.51 95.48 1186.63 96.1333 1186.89 96.6C1187.18 97.1733 1187.63 97.46 1188.23 97.46C1188.81 97.46 1189.26 97.1667 1189.57 96.58C1189.69 96.34 1189.78 96.06 1189.85 95.74C1189.91 95.42 1189.95 95.0533 1189.95 94.64C1189.95 93.8133 1189.81 93.1533 1189.55 92.66C1189.27 92.0867 1188.83 91.8 1188.23 91.8Z" fill="black"/>
<path d="M1154.89 164.72H1156.17V179H1154.53V166.72C1153.65 167.627 1152.53 168.28 1151.17 168.68V167.04C1151.49 166.947 1151.81 166.833 1152.15 166.7C1152.49 166.553 1152.83 166.38 1153.17 166.18C1153.83 165.753 1154.41 165.267 1154.89 164.72ZM1162.91 164.72H1164.19V179H1162.55V166.72C1161.67 167.627 1160.55 168.28 1159.19 168.68V167.04C1159.51 166.947 1159.84 166.833 1160.17 166.7C1160.52 166.553 1160.86 166.38 1161.19 166.18C1161.86 165.753 1162.43 165.267 1162.91 164.72ZM1168.98 176.62C1169.31 176.62 1169.6 176.74 1169.84 176.98C1170.08 177.22 1170.2 177.513 1170.2 177.86C1170.2 178.193 1170.08 178.48 1169.84 178.72C1169.6 178.96 1169.31 179.08 1168.98 179.08C1168.63 179.08 1168.35 178.96 1168.12 178.72C1167.88 178.48 1167.76 178.193 1167.76 177.86C1167.76 177.513 1167.88 177.22 1168.12 176.98C1168.35 176.74 1168.63 176.62 1168.98 176.62ZM1177.75 164.44C1179.14 164.44 1180.25 164.787 1181.07 165.48C1181.9 166.187 1182.31 167.133 1182.31 168.32C1182.31 169.933 1181.53 171 1179.97 171.52C1180.83 171.787 1181.47 172.193 1181.89 172.74C1182.37 173.3 1182.61 174 1182.61 174.84C1182.61 176.133 1182.16 177.193 1181.25 178.02C1180.33 178.86 1179.13 179.28 1177.65 179.28C1176.32 179.28 1175.21 178.933 1174.33 178.24C1173.32 177.4 1172.75 176.18 1172.63 174.58H1174.29C1174.33 175.7 1174.71 176.553 1175.41 177.14C1176.03 177.633 1176.77 177.88 1177.65 177.88C1178.67 177.88 1179.49 177.587 1180.11 177C1180.69 176.427 1180.97 175.727 1180.97 174.9C1180.97 174.047 1180.69 173.38 1180.13 172.9C1179.59 172.433 1178.81 172.2 1177.81 172.2H1176.65V170.92H1177.75C1178.7 170.92 1179.43 170.707 1179.93 170.28C1180.44 169.84 1180.69 169.22 1180.69 168.42C1180.69 167.633 1180.45 167.013 1179.95 166.56C1179.45 166.093 1178.72 165.86 1177.77 165.86C1176.8 165.86 1176.05 166.113 1175.53 166.62C1174.99 167.127 1174.66 167.867 1174.55 168.84H1172.93C1173.05 167.467 1173.56 166.387 1174.45 165.6C1175.28 164.827 1176.38 164.44 1177.75 164.44ZM1198.39 171.18C1199.45 171.18 1200.27 171.573 1200.85 172.36C1201.35 173.053 1201.61 173.967 1201.61 175.1C1201.61 176.22 1201.35 177.133 1200.85 177.84C1200.26 178.613 1199.44 179 1198.39 179C1197.32 179 1196.5 178.613 1195.93 177.84C1195.42 177.133 1195.17 176.22 1195.17 175.1C1195.17 173.94 1195.42 173.027 1195.93 172.36C1196.47 171.573 1197.29 171.18 1198.39 171.18ZM1196.67 164.44H1197.95L1189.95 179.28H1188.65L1196.67 164.44ZM1188.23 164.72C1189.29 164.72 1190.11 165.113 1190.69 165.9C1191.19 166.593 1191.45 167.507 1191.45 168.64C1191.45 169.76 1191.19 170.673 1190.69 171.38C1190.1 172.153 1189.28 172.54 1188.23 172.54C1187.16 172.54 1186.34 172.153 1185.77 171.38C1185.26 170.673 1185.01 169.76 1185.01 168.64C1185.01 167.48 1185.26 166.567 1185.77 165.9C1186.31 165.113 1187.13 164.72 1188.23 164.72ZM1198.39 172.26C1197.77 172.26 1197.33 172.54 1197.05 173.1C1196.79 173.567 1196.67 174.233 1196.67 175.1C1196.67 175.94 1196.79 176.593 1197.05 177.06C1197.34 177.633 1197.79 177.92 1198.39 177.92C1198.97 177.92 1199.42 177.627 1199.73 177.04C1199.85 176.8 1199.94 176.52 1200.01 176.2C1200.07 175.88 1200.11 175.513 1200.11 175.1C1200.11 174.673 1200.07 174.3 1200.01 173.98C1199.94 173.647 1199.85 173.36 1199.73 173.12C1199.43 172.547 1198.99 172.26 1198.39 172.26ZM1188.23 165.8C1187.61 165.8 1187.17 166.08 1186.89 166.64C1186.63 167.107 1186.51 167.773 1186.51 168.64C1186.51 169.48 1186.63 170.133 1186.89 170.6C1187.18 171.173 1187.63 171.46 1188.23 171.46C1188.81 171.46 1189.26 171.167 1189.57 170.58C1189.69 170.34 1189.78 170.06 1189.85 169.74C1189.91 169.42 1189.95 169.053 1189.95 168.64C1189.95 167.813 1189.81 167.153 1189.55 166.66C1189.27 166.087 1188.83 165.8 1188.23 165.8Z" fill="black"/>
<path d="M1160.35 238.44C1161.85 238.44 1163.02 238.827 1163.85 239.6C1164.62 240.307 1165.01 241.18 1165.01 242.22C1165.01 242.98 1164.83 243.62 1164.47 244.14C1164.05 244.713 1163.49 245.127 1162.77 245.38V245.42C1163.51 245.607 1164.15 246.02 1164.67 246.66C1165.23 247.34 1165.51 248.14 1165.51 249.06C1165.51 250.327 1165.07 251.34 1164.19 252.1C1163.25 252.887 1161.97 253.28 1160.35 253.28C1158.69 253.28 1157.41 252.887 1156.51 252.1C1155.63 251.34 1155.19 250.327 1155.19 249.06C1155.19 248.14 1155.47 247.34 1156.03 246.66C1156.56 246.007 1157.19 245.593 1157.93 245.42V245.38C1157.18 245.127 1156.61 244.713 1156.23 244.14C1155.87 243.62 1155.69 242.98 1155.69 242.22C1155.69 241.167 1156.07 240.293 1156.85 239.6C1157.67 238.827 1158.84 238.44 1160.35 238.44ZM1160.35 239.78C1159.32 239.78 1158.53 240.04 1157.97 240.56C1157.47 241 1157.23 241.573 1157.23 242.28C1157.23 243.013 1157.45 243.6 1157.89 244.04C1158.42 244.573 1159.24 244.84 1160.35 244.84C1161.43 244.84 1162.25 244.573 1162.81 244.04C1163.25 243.6 1163.47 243.013 1163.47 242.28C1163.47 241.587 1163.22 241.013 1162.73 240.56C1162.15 240.04 1161.36 239.78 1160.35 239.78ZM1160.35 246.12C1159.19 246.12 1158.3 246.407 1157.69 246.98C1157.1 247.487 1156.81 248.18 1156.81 249.06C1156.81 249.927 1157.1 250.613 1157.69 251.12C1158.3 251.667 1159.19 251.94 1160.35 251.94C1161.49 251.94 1162.39 251.66 1163.03 251.1C1163.6 250.567 1163.89 249.887 1163.89 249.06C1163.89 248.207 1163.6 247.513 1163.03 246.98C1162.4 246.407 1161.51 246.12 1160.35 246.12ZM1168.98 250.62C1169.31 250.62 1169.6 250.74 1169.84 250.98C1170.08 251.22 1170.2 251.513 1170.2 251.86C1170.2 252.193 1170.08 252.48 1169.84 252.72C1169.6 252.96 1169.31 253.08 1168.98 253.08C1168.63 253.08 1168.35 252.96 1168.12 252.72C1167.88 252.48 1167.76 252.193 1167.76 251.86C1167.76 251.513 1167.88 251.22 1168.12 250.98C1168.35 250.74 1168.63 250.62 1168.98 250.62ZM1179.29 238.72H1180.83V248.42H1183.15V249.76H1180.83V253H1179.27V249.76H1172.09V248.2L1179.29 238.72ZM1179.21 240.86L1173.47 248.42H1179.27V240.86H1179.21ZM1198.39 245.18C1199.45 245.18 1200.27 245.573 1200.85 246.36C1201.35 247.053 1201.61 247.967 1201.61 249.1C1201.61 250.22 1201.35 251.133 1200.85 251.84C1200.26 252.613 1199.44 253 1198.39 253C1197.32 253 1196.5 252.613 1195.93 251.84C1195.42 251.133 1195.17 250.22 1195.17 249.1C1195.17 247.94 1195.42 247.027 1195.93 246.36C1196.47 245.573 1197.29 245.18 1198.39 245.18ZM1196.67 238.44H1197.95L1189.95 253.28H1188.65L1196.67 238.44ZM1188.23 238.72C1189.29 238.72 1190.11 239.113 1190.69 239.9C1191.19 240.593 1191.45 241.507 1191.45 242.64C1191.45 243.76 1191.19 244.673 1190.69 245.38C1190.1 246.153 1189.28 246.54 1188.23 246.54C1187.16 246.54 1186.34 246.153 1185.77 245.38C1185.26 244.673 1185.01 243.76 1185.01 242.64C1185.01 241.48 1185.26 240.567 1185.77 239.9C1186.31 239.113 1187.13 238.72 1188.23 238.72ZM1198.39 246.26C1197.77 246.26 1197.33 246.54 1197.05 247.1C1196.79 247.567 1196.67 248.233 1196.67 249.1C1196.67 249.94 1196.79 250.593 1197.05 251.06C1197.34 251.633 1197.79 251.92 1198.39 251.92C1198.97 251.92 1199.42 251.627 1199.73 251.04C1199.85 250.8 1199.94 250.52 1200.01 250.2C1200.07 249.88 1200.11 249.513 1200.11 249.1C1200.11 248.673 1200.07 248.3 1200.01 247.98C1199.94 247.647 1199.85 247.36 1199.73 247.12C1199.43 246.547 1198.99 246.26 1198.39 246.26ZM1188.23 239.8C1187.61 239.8 1187.17 240.08 1186.89 240.64C1186.63 241.107 1186.51 241.773 1186.51 242.64C1186.51 243.48 1186.63 244.133 1186.89 244.6C1187.18 245.173 1187.63 245.46 1188.23 245.46C1188.81 245.46 1189.26 245.167 1189.57 244.58C1189.69 244.34 1189.78 244.06 1189.85 243.74C1189.91 243.42 1189.95 243.053 1189.95 242.64C1189.95 241.813 1189.81 241.153 1189.55 240.66C1189.27 240.087 1188.83 239.8 1188.23 239.8Z" fill="black"/>
<path d="M1.224 461.862H6.46C7.667 461.862 8.619 462.134 9.316 462.695C10.03 463.273 10.404 464.123 10.404 465.245C10.404 465.925 10.217 466.52 9.843 467.047C9.435 467.591 8.891 467.931 8.194 468.101V468.135C9.35 468.39 9.996 469.121 10.132 470.345L10.319 472.215C10.387 472.963 10.608 473.558 10.965 474H9.452C9.18 473.592 9.01 473.065 8.959 472.385L8.806 470.77C8.738 470.056 8.483 469.529 8.041 469.223C7.633 468.917 7.055 468.781 6.29 468.781H2.618V474H1.224V461.862ZM2.618 463.069V467.574H6.29C7.174 467.574 7.871 467.353 8.347 466.945C8.772 466.554 8.993 466.01 8.993 465.296C8.993 464.548 8.772 463.987 8.364 463.63C7.922 463.256 7.225 463.069 6.29 463.069H2.618ZM16.1633 464.973C17.5743 464.973 18.6453 465.449 19.3593 466.401C20.0053 467.251 20.3453 468.458 20.3793 469.988H13.4433C13.5113 470.974 13.7663 471.739 14.2423 472.283C14.7183 472.827 15.3813 473.099 16.2143 473.099C16.9283 473.099 17.5233 472.912 17.9653 472.555C18.3393 472.249 18.6283 471.79 18.8493 471.178H20.2093C20.0053 472.028 19.6143 472.708 19.0193 473.252C18.2883 473.898 17.3533 474.238 16.2143 474.238C14.9563 474.238 13.9363 473.813 13.1883 472.997C12.4063 472.147 12.0323 471.025 12.0323 469.597C12.0323 468.305 12.3893 467.217 13.1373 466.35C13.8853 465.432 14.8883 464.973 16.1633 464.973ZM16.1973 466.112C15.4153 466.112 14.7863 466.367 14.3103 466.877C13.8343 467.387 13.5623 468.067 13.4773 468.934H18.9683C18.7983 467.047 17.8633 466.112 16.1973 466.112ZM25.083 464.973C27.259 464.973 28.449 465.874 28.687 467.71H27.361C27.242 467.166 27.021 466.758 26.681 466.52C26.307 466.248 25.763 466.112 25.066 466.112C24.454 466.112 23.978 466.214 23.638 466.452C23.264 466.673 23.077 466.979 23.077 467.37C23.077 467.744 23.315 468.067 23.825 468.322C24.148 468.475 24.76 468.662 25.644 468.9C26.698 469.155 27.446 469.427 27.905 469.716C28.602 470.158 28.959 470.753 28.959 471.518C28.959 473.32 27.718 474.238 25.236 474.238C22.924 474.238 21.666 473.218 21.462 471.195H22.788C22.89 471.892 23.145 472.385 23.519 472.691C23.893 472.963 24.454 473.099 25.202 473.099C26.766 473.099 27.565 472.589 27.565 471.603C27.565 471.11 27.276 470.736 26.732 470.464C26.443 470.328 25.814 470.141 24.862 469.903C23.825 469.648 23.094 469.393 22.686 469.121C22.006 468.713 21.683 468.152 21.683 467.404C21.683 466.656 22.006 466.078 22.669 465.636C23.281 465.194 24.097 464.973 25.083 464.973ZM34.482 464.973C35.791 464.973 36.845 465.415 37.627 466.333C38.375 467.2 38.749 468.288 38.749 469.614C38.749 470.923 38.375 472.011 37.644 472.861C36.845 473.779 35.791 474.238 34.482 474.238C33.156 474.238 32.119 473.779 31.337 472.861C30.589 472.011 30.215 470.923 30.215 469.614C30.215 468.288 30.589 467.2 31.337 466.333C32.119 465.415 33.156 464.973 34.482 464.973ZM34.482 466.112C33.547 466.112 32.816 466.469 32.306 467.183C31.83 467.829 31.609 468.628 31.609 469.614C31.609 470.583 31.83 471.382 32.306 472.028C32.816 472.742 33.547 473.099 34.482 473.099C35.4 473.099 36.131 472.742 36.675 472.028C37.134 471.382 37.372 470.566 37.372 469.614C37.372 468.628 37.134 467.829 36.675 467.183C36.131 466.469 35.4 466.112 34.482 466.112ZM40.5159 465.211H41.8759V470.583C41.8759 471.416 42.0459 472.045 42.4029 472.453C42.7599 472.861 43.3379 473.082 44.1369 473.082C44.7149 473.082 45.2419 472.844 45.7009 472.402C46.1769 471.926 46.4659 471.314 46.5679 470.566V465.211H47.9279V474H46.5679V472.64C45.8539 473.694 44.9019 474.238 43.7119 474.238C41.5699 474.238 40.5159 473.031 40.5159 470.651V465.211ZM53.8876 464.973C54.3636 464.973 54.7716 465.041 55.0946 465.177V466.537C54.6526 466.401 54.2106 466.35 53.7856 466.35C53.1056 466.35 52.5276 466.639 52.0686 467.251C51.5926 467.829 51.3716 468.526 51.3716 469.342V474H50.0286V465.211H51.3716V466.741C51.6096 466.231 51.9156 465.823 52.2896 465.534C52.7486 465.16 53.2756 464.973 53.8876 464.973ZM60.0286 464.973C61.1166 464.973 61.9836 465.228 62.6466 465.738C63.3266 466.265 63.7346 467.064 63.8876 468.135H62.5446C62.4256 467.455 62.1536 466.945 61.7286 466.605C61.2866 466.265 60.7256 466.112 60.0286 466.112C59.1786 466.112 58.4986 466.435 58.0056 467.081C57.5296 467.71 57.2916 468.56 57.2916 469.631C57.2916 470.702 57.5126 471.552 57.9886 472.164C58.4476 472.776 59.1276 473.099 60.0116 473.099C61.5076 473.099 62.3746 472.334 62.5786 470.821H63.9386C63.7346 471.943 63.3096 472.81 62.6296 473.388C61.9666 473.949 61.0996 474.238 60.0116 474.238C58.6856 474.238 57.6656 473.796 56.9346 472.912C56.2376 472.079 55.8976 470.991 55.8976 469.648C55.8976 468.305 56.2376 467.217 56.9346 466.367C57.6826 465.432 58.7196 464.973 60.0286 464.973ZM69.1555 464.973C70.5665 464.973 71.6375 465.449 72.3515 466.401C72.9975 467.251 73.3375 468.458 73.3715 469.988H66.4355C66.5035 470.974 66.7585 471.739 67.2345 472.283C67.7105 472.827 68.3735 473.099 69.2065 473.099C69.9205 473.099 70.5155 472.912 70.9575 472.555C71.3315 472.249 71.6205 471.79 71.8415 471.178H73.2015C72.9975 472.028 72.6065 472.708 72.0115 473.252C71.2805 473.898 70.3455 474.238 69.2065 474.238C67.9485 474.238 66.9285 473.813 66.1805 472.997C65.3985 472.147 65.0245 471.025 65.0245 469.597C65.0245 468.305 65.3815 467.217 66.1295 466.35C66.8775 465.432 67.8805 464.973 69.1555 464.973ZM69.1895 466.112C68.4075 466.112 67.7785 466.367 67.3025 466.877C66.8265 467.387 66.5545 468.067 66.4695 468.934H71.9605C71.7905 467.047 70.8555 466.112 69.1895 466.112ZM76.1542 465.721C76.4262 465.721 76.6812 465.823 76.8852 466.027C77.0892 466.231 77.1912 466.469 77.1912 466.758C77.1912 467.047 77.0892 467.302 76.8852 467.506C76.6812 467.693 76.4262 467.795 76.1542 467.795C75.8482 467.795 75.6102 467.693 75.4232 467.506C75.2192 467.302 75.1172 467.047 75.1172 466.758C75.1172 466.469 75.2192 466.231 75.4232 466.027C75.6102 465.823 75.8482 465.721 76.1542 465.721ZM76.1542 471.943C76.4262 471.943 76.6812 472.045 76.8852 472.249C77.0892 472.453 77.1912 472.691 77.1912 472.98C77.1912 473.269 77.0892 473.524 76.8852 473.728C76.6812 473.915 76.4262 474.017 76.1542 474.017C75.8482 474.017 75.6102 473.915 75.4232 473.728C75.2192 473.524 75.1172 473.269 75.1172 472.98C75.1172 472.691 75.2192 472.453 75.4232 472.249C75.6102 472.045 75.8482 471.943 76.1542 471.943ZM88.2187 464.973C90.3947 464.973 91.5847 465.874 91.8227 467.71H90.4967C90.3777 467.166 90.1567 466.758 89.8167 466.52C89.4427 466.248 88.8987 466.112 88.2017 466.112C87.5897 466.112 87.1137 466.214 86.7737 466.452C86.3997 466.673 86.2127 466.979 86.2127 467.37C86.2127 467.744 86.4507 468.067 86.9607 468.322C87.2837 468.475 87.8957 468.662 88.7797 468.9C89.8337 469.155 90.5817 469.427 91.0407 469.716C91.7377 470.158 92.0947 470.753 92.0947 471.518C92.0947 473.32 90.8537 474.238 88.3717 474.238C86.0597 474.238 84.8017 473.218 84.5977 471.195H85.9237C86.0257 471.892 86.2807 472.385 86.6547 472.691C87.0287 472.963 87.5897 473.099 88.3377 473.099C89.9017 473.099 90.7007 472.589 90.7007 471.603C90.7007 471.11 90.4117 470.736 89.8677 470.464C89.5787 470.328 88.9497 470.141 87.9977 469.903C86.9607 469.648 86.2297 469.393 85.8217 469.121C85.1417 468.713 84.8187 468.152 84.8187 467.404C84.8187 466.656 85.1417 466.078 85.8047 465.636C86.4167 465.194 87.2327 464.973 88.2187 464.973ZM96.0367 462.372V465.211H98.2127V466.35H96.0367V471.943C96.0367 472.266 96.0877 472.504 96.2237 472.64C96.3427 472.776 96.5637 472.861 96.8697 472.861H97.9917V474H96.6657C95.9517 474 95.4247 473.813 95.1187 473.439C94.8297 473.099 94.6937 472.606 94.6937 471.943V466.35H92.9257V465.211H94.6937V462.933L96.0367 462.372ZM103.559 464.973C104.817 464.973 105.735 465.296 106.347 465.959C106.857 466.537 107.129 467.336 107.129 468.356V474H105.854V472.521C105.514 472.997 105.055 473.388 104.511 473.694C103.865 474.051 103.134 474.238 102.318 474.238C101.434 474.238 100.737 474.017 100.21 473.575C99.6657 473.116 99.3937 472.521 99.3937 471.807C99.3937 470.804 99.7847 470.056 100.601 469.546C101.315 469.07 102.335 468.815 103.661 468.798L105.769 468.764V468.305C105.769 466.826 105.004 466.095 103.474 466.095C102.828 466.095 102.301 466.214 101.893 466.486C101.434 466.758 101.145 467.183 101.009 467.744L99.6657 467.642C99.8527 466.724 100.312 466.027 101.026 465.585C101.672 465.177 102.505 464.973 103.559 464.973ZM105.769 469.784L103.746 469.818C101.774 469.852 100.788 470.498 100.788 471.773C100.788 472.181 100.941 472.504 101.281 472.776C101.621 473.031 102.063 473.167 102.607 473.167C103.44 473.167 104.171 472.895 104.817 472.351C105.446 471.824 105.769 471.212 105.769 470.532V469.784ZM111.576 462.372V465.211H113.752V466.35H111.576V471.943C111.576 472.266 111.627 472.504 111.763 472.64C111.882 472.776 112.103 472.861 112.409 472.861H113.531V474H112.205C111.491 474 110.964 473.813 110.658 473.439C110.369 473.099 110.233 472.606 110.233 471.943V466.35H108.465V465.211H110.233V462.933L111.576 462.372ZM116.395 461.896C116.684 461.896 116.922 461.981 117.126 462.185C117.33 462.355 117.432 462.593 117.432 462.899C117.432 463.188 117.33 463.426 117.126 463.63C116.922 463.817 116.684 463.919 116.395 463.919C116.106 463.919 115.868 463.817 115.664 463.63C115.46 463.426 115.375 463.188 115.375 462.899C115.375 462.593 115.46 462.355 115.664 462.185C115.868 461.981 116.106 461.896 116.395 461.896ZM115.715 465.211H117.075V474H115.715V465.211ZM122.733 464.973C124.909 464.973 126.099 465.874 126.337 467.71H125.011C124.892 467.166 124.671 466.758 124.331 466.52C123.957 466.248 123.413 466.112 122.716 466.112C122.104 466.112 121.628 466.214 121.288 466.452C120.914 466.673 120.727 466.979 120.727 467.37C120.727 467.744 120.965 468.067 121.475 468.322C121.798 468.475 122.41 468.662 123.294 468.9C124.348 469.155 125.096 469.427 125.555 469.716C126.252 470.158 126.609 470.753 126.609 471.518C126.609 473.32 125.368 474.238 122.886 474.238C120.574 474.238 119.316 473.218 119.112 471.195H120.438C120.54 471.892 120.795 472.385 121.169 472.691C121.543 472.963 122.104 473.099 122.852 473.099C124.416 473.099 125.215 472.589 125.215 471.603C125.215 471.11 124.926 470.736 124.382 470.464C124.093 470.328 123.464 470.141 122.512 469.903C121.475 469.648 120.744 469.393 120.336 469.121C119.656 468.713 119.333 468.152 119.333 467.404C119.333 466.656 119.656 466.078 120.319 465.636C120.931 465.194 121.747 464.973 122.733 464.973ZM130.551 462.372V465.211H132.727V466.35H130.551V471.943C130.551 472.266 130.602 472.504 130.738 472.64C130.857 472.776 131.078 472.861 131.384 472.861H132.506V474H131.18C130.466 474 129.939 473.813 129.633 473.439C129.344 473.099 129.208 472.606 129.208 471.943V466.35H127.44V465.211H129.208V462.933L130.551 462.372ZM138.073 464.973C139.331 464.973 140.249 465.296 140.861 465.959C141.371 466.537 141.643 467.336 141.643 468.356V474H140.368V472.521C140.028 472.997 139.569 473.388 139.025 473.694C138.379 474.051 137.648 474.238 136.832 474.238C135.948 474.238 135.251 474.017 134.724 473.575C134.18 473.116 133.908 472.521 133.908 471.807C133.908 470.804 134.299 470.056 135.115 469.546C135.829 469.07 136.849 468.815 138.175 468.798L140.283 468.764V468.305C140.283 466.826 139.518 466.095 137.988 466.095C137.342 466.095 136.815 466.214 136.407 466.486C135.948 466.758 135.659 467.183 135.523 467.744L134.18 467.642C134.367 466.724 134.826 466.027 135.54 465.585C136.186 465.177 137.019 464.973 138.073 464.973ZM140.283 469.784L138.26 469.818C136.288 469.852 135.302 470.498 135.302 471.773C135.302 472.181 135.455 472.504 135.795 472.776C136.135 473.031 136.577 473.167 137.121 473.167C137.954 473.167 138.685 472.895 139.331 472.351C139.96 471.824 140.283 471.212 140.283 470.532V469.784Z" fill="#3D3D3D"/>
<defs>
<clipPath id="clip0_828_285">
<rect width="48" height="48" fill="white" transform="translate(278 377)"/>
</clipPath>
<clipPath id="clip1_828_285">
<rect width="48" height="48" fill="white" transform="translate(350 377)"/>
</clipPath>
</defs>
</svg>
