<svg width="139" height="252" viewBox="0 0 139 252" fill="none" xmlns="http://www.w3.org/2000/svg">
<rect x="4.34375" y="40.5254" width="127.318" height="133.204" rx="37.5" fill="#3F6975" stroke="black"/>
<rect x="33.7773" y="131.172" width="30.7852" height="90.824" rx="1.5" fill="#3F6975" stroke="black"/>
<rect x="72.625" y="131.172" width="30.7852" height="90.824" rx="1.5" fill="#3F6975" stroke="black"/>
<mask id="path-4-inside-1_801_156" fill="white">
<path d="M66.5908 232.502C67.6954 232.502 68.6015 231.605 68.488 230.506C68.0316 226.088 66.0706 221.936 62.9016 218.767C59.2588 215.125 54.3181 213.078 49.1665 213.078C44.0148 213.078 39.0742 215.125 35.4314 218.767C32.2624 221.936 30.3014 226.088 29.845 230.506C29.7315 231.605 30.6376 232.502 31.7422 232.502L49.1665 232.502H66.5908Z"/>
</mask>
<path d="M66.5908 232.502C67.6954 232.502 68.6015 231.605 68.488 230.506C68.0316 226.088 66.0706 221.936 62.9016 218.767C59.2588 215.125 54.3181 213.078 49.1665 213.078C44.0148 213.078 39.0742 215.125 35.4314 218.767C32.2624 221.936 30.3014 226.088 29.845 230.506C29.7315 231.605 30.6376 232.502 31.7422 232.502L49.1665 232.502H66.5908Z" fill="#F6F2E9" stroke="black" stroke-width="2" mask="url(#path-4-inside-1_801_156)"/>
<mask id="path-5-inside-2_801_156" fill="white">
<path d="M106.618 232.502C107.723 232.502 108.629 231.605 108.515 230.506C108.059 226.088 106.098 221.936 102.929 218.767C99.2861 215.125 94.3455 213.078 89.1938 213.078C84.0422 213.078 79.1015 215.125 75.4588 218.767C72.2897 221.936 70.3287 226.088 69.8724 230.506C69.7589 231.605 70.665 232.502 71.7695 232.502L89.1938 232.502H106.618Z"/>
</mask>
<path d="M106.618 232.502C107.723 232.502 108.629 231.605 108.515 230.506C108.059 226.088 106.098 221.936 102.929 218.767C99.2861 215.125 94.3455 213.078 89.1938 213.078C84.0422 213.078 79.1015 215.125 75.4588 218.767C72.2897 221.936 70.3287 226.088 69.8724 230.506C69.7589 231.605 70.665 232.502 71.7695 232.502L89.1938 232.502H106.618Z" fill="#F6F2E9" stroke="black" stroke-width="2" mask="url(#path-5-inside-2_801_156)"/>
<path d="M29.7422 229.561H68.5908V236.978C68.5908 238.083 67.6954 238.978 66.5908 238.978H31.7422C30.6376 238.978 29.7422 238.083 29.7422 236.978V229.561Z" fill="#3F6975" stroke="black" stroke-linejoin="round"/>
<path d="M70.2812 229.561H107.953V236.978C107.953 238.083 107.057 238.978 105.953 238.978H72.2812C71.1767 238.978 70.2812 238.083 70.2812 236.978V229.561Z" fill="#3F6975" stroke="black" stroke-linejoin="round"/>
<rect x="16.1172" y="0.5" width="106.128" height="89.6468" rx="44.8234" fill="#F6F2E9" stroke="black"/>
<path fill-rule="evenodd" clip-rule="evenodd" d="M5.02322 144.21C7.38794 148.589 14.9004 153.291 25.3432 151.652C30.8948 156.891 38.3809 160.104 46.6173 160.104H90.568C98.946 160.104 106.548 156.78 112.127 151.38C123.339 153.731 131.455 148.794 133.93 144.21C145.988 121.881 128.681 104.634 111.828 95.554C106.278 90.3219 98.7975 87.1152 90.568 87.1152H46.6172C37.2494 87.1152 28.8521 91.2704 23.1678 97.8383C7.73961 107.369 -6.08984 123.631 5.02322 144.21Z" fill="#F6F2E9"/>
<path d="M25.3432 151.652L25.6864 151.288L25.508 151.12L25.2656 151.158L25.3432 151.652ZM5.02322 144.21L5.46317 143.972L5.46317 143.972L5.02322 144.21ZM112.127 151.38L112.229 150.89L111.97 150.836L111.779 151.02L112.127 151.38ZM133.93 144.21L133.49 143.972L133.49 143.972L133.93 144.21ZM111.828 95.554L111.485 95.9178L111.533 95.963L111.591 95.9942L111.828 95.554ZM23.1678 97.8383L23.4306 98.2637L23.4958 98.2234L23.5459 98.1655L23.1678 97.8383ZM25.2656 151.158C14.9918 152.771 7.709 148.131 5.46317 143.972L4.58327 144.448C7.06689 149.047 14.8091 153.812 25.4207 152.146L25.2656 151.158ZM46.6173 159.604C38.5135 159.604 31.1489 156.444 25.6864 151.288L25 152.015C30.6407 157.339 38.2483 160.604 46.6173 160.604V159.604ZM90.568 159.604H46.6173V160.604H90.568V159.604ZM111.779 151.02C106.289 156.334 98.8111 159.604 90.568 159.604V160.604C99.0809 160.604 106.806 157.226 112.475 151.739L111.779 151.02ZM112.024 151.869C123.411 154.257 131.77 149.261 134.37 144.448L133.49 143.972C131.139 148.326 123.267 153.205 112.229 150.89L112.024 151.869ZM134.37 144.448C140.489 133.116 139.16 123.035 134.15 114.657C129.159 106.311 120.533 99.6757 112.065 95.1138L111.591 95.9942C119.976 100.512 128.43 107.04 133.291 115.17C138.134 123.268 139.429 132.974 133.49 143.972L134.37 144.448ZM90.568 87.6152C98.665 87.6152 106.024 90.7697 111.485 95.9178L112.171 95.1902C106.532 89.8741 98.93 86.6152 90.568 86.6152V87.6152ZM46.6172 87.6152H90.568V86.6152H46.6172V87.6152ZM23.5459 98.1655C29.1392 91.7027 37.4006 87.6152 46.6172 87.6152V86.6152C37.0982 86.6152 28.565 90.8382 22.7898 97.5111L23.5459 98.1655ZM5.46317 143.972C-0.0130874 133.832 0.663784 124.795 4.58787 117.108C8.52692 109.392 15.7573 103.004 23.4306 98.2637L22.905 97.4129C15.1501 102.203 7.75168 108.711 3.69721 116.654C-0.37221 124.625 -1.05353 134.009 4.58327 144.448L5.46317 143.972Z" fill="black"/>
<path d="M31.827 91.5817L26.1137 94.288C24.8069 94.907 24.1347 96.3855 24.4844 97.7885C32.2373 128.896 26.8353 145.868 21.2613 152.904C19.9266 154.588 19.9252 157.35 21.686 158.583L22.2928 159.008C23.2481 159.676 24.5169 159.743 25.4776 159.082C43.6218 146.598 40.5001 112.331 35.9371 93.4967C35.4992 91.6895 33.5074 90.7857 31.827 91.5817Z" fill="#3F6975" stroke="black"/>
<path d="M105.653 91.5817L111.367 94.288C112.674 94.907 113.346 96.3855 112.996 97.7885C105.243 128.896 110.645 145.868 116.219 152.904C117.554 154.588 117.555 157.35 115.794 158.583L115.188 159.008C114.232 159.676 112.964 159.743 112.003 159.082C93.8587 146.598 96.9804 112.331 101.543 93.4967C101.981 91.6895 103.973 90.7857 105.653 91.5817Z" fill="#3F6975" stroke="black"/>
<circle cx="35.6307" cy="130.672" r="13.6268" fill="#F6F2E9" stroke="black"/>
<path d="M82.3631 107.018C82.1479 105.512 83.3166 104.164 84.8379 104.164H107.681C109.203 104.164 110.371 105.512 110.156 107.018L106.314 133.912C106.138 135.144 105.083 136.058 103.839 136.058H88.68C87.4359 136.058 86.3811 135.144 86.2051 133.912L82.3631 107.018Z" fill="#3F6975" stroke="black"/>
<rect x="80.3125" y="102.598" width="31.8943" height="5.26559" rx="0.5" fill="black" stroke="black"/>
<circle cx="105.088" cy="130.672" r="13.6268" fill="#F6F2E9" stroke="black"/>
<circle cx="54.4667" cy="52.9745" r="4.70892" fill="black"/>
<circle cx="82.7206" cy="52.9745" r="4.70892" fill="black"/>
</svg>
