<svg width="119" height="218" viewBox="0 0 119 218" fill="none" xmlns="http://www.w3.org/2000/svg">
<rect x="69.5" y="156.5" width="19" height="45" rx="1.5" fill="#F6F2E9" stroke="black"/>
<rect x="69.5" y="180.5" width="19" height="20" fill="#D9D9D9" stroke="black"/>
<rect x="34.5" y="156.5" width="19" height="45" rx="1.5" fill="#F6F2E9" stroke="black"/>
<rect x="34.5" y="180.5" width="19" height="20" fill="#D9D9D9" stroke="black"/>
<rect x="28.5" y="126.5" width="31" height="45" rx="1.5" fill="#F6F2E9" stroke="black"/>
<rect x="63.5" y="126.5" width="31" height="45" rx="1.5" fill="#F6F2E9" stroke="black"/>
<rect x="31.2891" y="176.5" width="24.4211" height="22.2105" fill="#3F6975" stroke="black"/>
<mask id="path-8-inside-1_801_222" fill="white">
<path d="M56.4202 203.632C57.5248 203.632 58.435 202.732 58.276 201.639C57.8289 198.565 56.3557 195.692 54.05 193.472C51.2517 190.777 47.4565 189.264 43.4992 189.264C39.5419 189.264 35.7466 190.777 32.9484 193.472C30.6426 195.692 29.1695 198.565 28.7223 201.639C28.5633 202.732 29.4736 203.632 30.5781 203.632L43.4992 203.632H56.4202Z"/>
</mask>
<path d="M56.4202 203.632C57.5248 203.632 58.435 202.732 58.276 201.639C57.8289 198.565 56.3557 195.692 54.05 193.472C51.2517 190.777 47.4565 189.264 43.4992 189.264C39.5419 189.264 35.7466 190.777 32.9484 193.472C30.6426 195.692 29.1695 198.565 28.7223 201.639C28.5633 202.732 29.4736 203.632 30.5781 203.632L43.4992 203.632H56.4202Z" fill="#3F6975" stroke="black" stroke-width="2" mask="url(#path-8-inside-1_801_222)"/>
<path d="M29.0781 201.922H57.9202V207.159C57.9202 207.987 57.2487 208.659 56.4202 208.659H30.5781C29.7497 208.659 29.0781 207.987 29.0781 207.159V201.922Z" fill="#030303" stroke="black"/>
<rect x="66.7109" y="176.5" width="24.4211" height="22.2105" fill="#3F6975" stroke="black"/>
<mask id="path-11-inside-2_801_222" fill="white">
<path d="M91.8421 203.632C92.9467 203.632 93.8569 202.732 93.6979 201.639C93.2508 198.565 91.7776 195.692 89.4718 193.472C86.6736 190.777 82.8784 189.264 78.9211 189.264C74.9637 189.264 71.1685 190.777 68.3703 193.472C66.0645 195.692 64.5913 198.565 64.1442 201.639C63.9852 202.732 64.8954 203.632 66 203.632L78.9211 203.632H91.8421Z"/>
</mask>
<path d="M91.8421 203.632C92.9467 203.632 93.8569 202.732 93.6979 201.639C93.2508 198.565 91.7776 195.692 89.4718 193.472C86.6736 190.777 82.8784 189.264 78.9211 189.264C74.9637 189.264 71.1685 190.777 68.3703 193.472C66.0645 195.692 64.5913 198.565 64.1442 201.639C63.9852 202.732 64.8954 203.632 66 203.632L78.9211 203.632H91.8421Z" fill="#3F6975" stroke="black" stroke-width="2" mask="url(#path-11-inside-2_801_222)"/>
<path d="M64.5 201.922H93.3421V207.159C93.3421 207.987 92.6705 208.659 91.8421 208.659H66C65.1716 208.659 64.5 207.987 64.5 207.159V201.922Z" fill="#030303" stroke="black"/>
<path d="M22 97C22 87.0589 30.0589 79 40 79H81C90.9411 79 99 87.0589 99 97V145C99 149.418 95.4183 153 91 153H30C25.5817 153 22 149.418 22 145V97Z" fill="#3F6975"/>
<path d="M40 79.5H81V78.5H40V79.5ZM98.5 97V145H99.5V97H98.5ZM91 152.5H30V153.5H91V152.5ZM22.5 145V97H21.5V145H22.5ZM30 152.5C25.8579 152.5 22.5 149.142 22.5 145H21.5C21.5 149.694 25.3056 153.5 30 153.5V152.5ZM98.5 145C98.5 149.142 95.1421 152.5 91 152.5V153.5C95.6944 153.5 99.5 149.694 99.5 145H98.5ZM81 79.5C90.665 79.5 98.5 87.335 98.5 97H99.5C99.5 86.7827 91.2173 78.5 81 78.5V79.5ZM40 78.5C29.7827 78.5 21.5 86.7827 21.5 97H22.5C22.5 87.335 30.335 79.5 40 79.5V78.5Z" fill="black"/>
<path d="M6.02663 128.07C5.28841 110.018 20.0693 90.7837 29.1533 81.767C29.7996 81.1256 30.864 81.6431 30.7888 82.5505L27.019 128.083C26.9761 128.601 26.5427 129 26.0224 129H7.0101C6.48529 129 6.04807 128.595 6.02663 128.07Z" fill="#3F6975" stroke="black" stroke-linecap="round" stroke-linejoin="round"/>
<path d="M113.973 128.07C114.712 110.018 99.9307 90.7837 90.8467 81.767C90.2004 81.1256 89.136 81.6431 89.2112 82.5505L92.981 128.083C93.0239 128.601 93.4573 129 93.9776 129H112.99C113.515 129 113.952 128.595 113.973 128.07Z" fill="#3F6975" stroke="black" stroke-linecap="round" stroke-linejoin="round"/>
<circle cx="18" cy="131" r="11.5" fill="#F6F2E9" stroke="black"/>
<circle cx="104" cy="131" r="11.5" fill="#F6F2E9" stroke="black"/>
<path d="M52.0446 100.992C50.8525 101.902 49.1328 101.565 48.3723 100.272L28.0643 65.7477C26.9715 63.8899 28.5846 61.6124 30.6997 62.0268L82.8408 72.2404C84.956 72.6548 85.5906 75.3725 83.8776 76.6807L52.0446 100.992Z" fill="#F6F2E9" stroke="black"/>
<rect x="0.5" y="0.5" width="118" height="79" rx="14.5" fill="#F6F2E9" stroke="black"/>
<path d="M68.9995 51.0272C70.0571 51.4551 72.9222 51.8488 75.9219 50.0003" stroke="black" stroke-width="3" stroke-linecap="round"/>
<path d="M50.9223 51.0272C49.8648 51.4551 46.9997 51.8488 44 50.0003" stroke="black" stroke-width="3" stroke-linecap="round"/>
</svg>
