<svg width="1920" height="940" viewBox="0 0 1920 940" fill="none" xmlns="http://www.w3.org/2000/svg">
<circle cx="971.5" cy="1550.5" r="1529.5" fill="#FCEECA"/>
<mask id="mask0_790_115" style="mask-type:alpha" maskUnits="userSpaceOnUse" x="-450" y="23" width="3082" height="3197">
<path d="M675.936 306.919L715.557 297.847C763.797 286.801 802.494 250.886 817.101 203.603C846.7 107.792 767.958 13.2094 668.369 24.9506L322.357 65.7442C301.356 68.2201 281.117 75.1082 262.966 85.9567L-145.906 330.33C-170.143 344.815 -189.798 365.847 -202.613 391.007L-444.027 864.983C-461.862 899.999 -436.426 941.5 -397.13 941.5C-368.063 941.5 -344.5 965.063 -344.5 994.13V1049.32C-344.5 1072.62 -325.615 1091.5 -302.32 1091.5C-276.077 1091.5 -256.205 1115.21 -260.788 1141.05L-330.192 1532.34C-337.654 1574.4 -305.3 1613 -262.576 1613C-238.08 1613 -215.439 1599.95 -203.158 1578.76L-189.385 1554.99C-171.466 1524.06 -140.327 1503.09 -104.935 1498.11L-30.0645 1487.57C32.1624 1478.82 82.335 1432.2 95.6348 1370.78L102.642 1338.43C120.412 1256.36 202.074 1204.87 283.781 1224.2L422.071 1256.92C480.046 1270.64 540.642 1248.75 576.464 1201.14L744.555 977.769C801.611 901.949 774.813 792.867 689.119 752.115L621.175 719.803C559.99 690.706 525.905 624.207 538.007 557.546L561.828 426.34C572.548 367.29 617.434 320.314 675.936 306.919Z" fill="#858585"/>
<path d="M1574.88 502.515L1748.31 481.916C1837.54 471.319 1916 541.014 1916 630.87V644.302C1916 716.705 1864.28 778.774 1793.07 791.839L1731.09 803.21C1694.51 809.921 1661.73 829.982 1639.1 859.501L1528.93 1003.25C1500.54 1040.28 1456.54 1062 1409.88 1062H1200.02C1109.69 1062 1046.48 972.699 1076.52 887.507C1092.56 842.018 1132.3 809.028 1179.96 801.641L1301.77 782.763C1355.46 774.441 1400.46 737.736 1419.39 686.81L1451.97 599.19C1471.57 546.471 1519.02 509.149 1574.88 502.515Z" fill="#858585"/>
<path d="M2160.03 988.046L2300.15 895.739C2321.67 881.558 2346.88 874 2372.66 874C2434.33 874 2487.76 916.76 2501.27 976.932L2628.41 1543.15C2640.8 1598.36 2610.79 1654.31 2557.93 1674.51C2510.65 1692.58 2457.12 1677.29 2426.53 1636.97L2233.08 1382.07C2216.74 1360.55 2194.89 1343.83 2169.84 1333.7L1938.77 1240.24C1894.19 1222.2 1865 1178.92 1865 1130.82C1865 1065.63 1917.84 1012.79 1983.03 1012.79H2077.51C2106.85 1012.79 2135.54 1004.18 2160.03 988.046Z" fill="#858585"/>
</mask>
<g mask="url(#mask0_790_115)">
<circle cx="971.5" cy="1550.5" r="1529.5" fill="#B4D2D4"/>
</g>
</svg>
