<svg width="235" height="298" viewBox="0 0 235 298" fill="none" xmlns="http://www.w3.org/2000/svg">
<rect x="99.2598" y="7.76562" width="77.4995" height="28.4466" fill="#F7F3EA" stroke="#396774" stroke-width="2" stroke-linejoin="round"/>
<rect x="94.1855" y="1" width="85.9569" height="6.45739" rx="3.2287" fill="#396774" stroke="#396774" stroke-width="2" stroke-linejoin="round"/>
<rect x="15.377" y="108.255" width="82.8825" height="189.446" fill="#B4D2D4"/>
<path d="M233.578 36.3672H1V113.329H96.5686V168.303H7.76592V180.989H96.5686V235.962H7.76592V247.802H96.5686V296.855H233.578V36.3672Z" fill="#F7F3EA" stroke="#396774" stroke-width="2" stroke-linejoin="round"/>
<rect x="106.533" y="17.6807" width="10.2327" height="18.0172" fill="#3F6975" stroke="#396774" stroke-width="2" stroke-linejoin="round"/>
<rect x="192.291" y="61.8936" width="9.84035" height="207.743" fill="#396774" stroke="#396774" stroke-width="2" stroke-linejoin="round"/>
<rect x="107.715" y="119.403" width="25.0637" height="4.76592" fill="#3F6975" stroke="#396774" stroke-width="2" stroke-linejoin="round"/>
<rect x="107.715" y="138.01" width="25.0637" height="4.76592" fill="#3F6975" stroke="#396774" stroke-width="2" stroke-linejoin="round"/>
<rect x="107.715" y="156.616" width="25.0637" height="4.76592" fill="#3F6975" stroke="#396774" stroke-width="2" stroke-linejoin="round"/>
<rect x="107.715" y="175.223" width="25.0637" height="4.76592" fill="#3F6975" stroke="#396774" stroke-width="2" stroke-linejoin="round"/>
<rect x="107.715" y="193.828" width="25.0637" height="4.76592" fill="#3F6975" stroke="#396774" stroke-width="2" stroke-linejoin="round"/>
<rect x="107.715" y="212.435" width="25.0637" height="4.76592" fill="#3F6975" stroke="#396774" stroke-width="2" stroke-linejoin="round"/>
<rect x="107.715" y="231.041" width="25.0637" height="4.76592" fill="#3F6975" stroke="#396774" stroke-width="2" stroke-linejoin="round"/>
<rect x="107.715" y="249.647" width="25.0637" height="4.76592" fill="#3F6975" stroke="#396774" stroke-width="2" stroke-linejoin="round"/>
<rect x="107.715" y="268.254" width="25.0637" height="4.76592" fill="#3F6975" stroke="#396774" stroke-width="2" stroke-linejoin="round"/>
<rect x="144.928" y="119.403" width="25.0637" height="4.76592" fill="#3F6975" stroke="#396774" stroke-width="2" stroke-linejoin="round"/>
<rect x="144.928" y="138.01" width="25.0637" height="4.76592" fill="#3F6975" stroke="#396774" stroke-width="2" stroke-linejoin="round"/>
<rect x="144.928" y="156.616" width="25.0637" height="4.76592" fill="#3F6975" stroke="#396774" stroke-width="2" stroke-linejoin="round"/>
<rect x="144.928" y="175.223" width="25.0637" height="4.76592" fill="#3F6975" stroke="#396774" stroke-width="2" stroke-linejoin="round"/>
<rect x="144.928" y="193.828" width="25.0637" height="4.76592" fill="#3F6975" stroke="#396774" stroke-width="2" stroke-linejoin="round"/>
<rect x="144.928" y="212.435" width="25.0637" height="4.76592" fill="#3F6975" stroke="#396774" stroke-width="2" stroke-linejoin="round"/>
<rect x="144.928" y="231.041" width="25.0637" height="4.76592" fill="#3F6975" stroke="#396774" stroke-width="2" stroke-linejoin="round"/>
<rect x="144.928" y="249.647" width="25.0637" height="4.76592" fill="#3F6975" stroke="#396774" stroke-width="2" stroke-linejoin="round"/>
<rect x="144.928" y="268.254" width="25.0637" height="4.76592" fill="#3F6975" stroke="#396774" stroke-width="2" stroke-linejoin="round"/>
<rect x="214.281" y="61.8936" width="9.84035" height="207.743" fill="#396774" stroke="#396774" stroke-width="2" stroke-linejoin="round"/>
</svg>
