<svg width="277" height="281" viewBox="0 0 277 281" fill="none" xmlns="http://www.w3.org/2000/svg">
<rect x="36.5703" y="1" width="84.5527" height="279" fill="#F6F2E9" stroke="#3B667A" stroke-width="2" stroke-linejoin="round"/>
<line x1="35.5703" y1="55.9111" x2="122.123" y2="55.9111" stroke="#3B667A" stroke-width="2" stroke-linejoin="round"/>
<line x1="35.5703" y1="114.009" x2="122.123" y2="114.009" stroke="#3B667A" stroke-width="2" stroke-linejoin="round"/>
<line x1="35.5703" y1="170.92" x2="122.123" y2="170.92" stroke="#3B667A" stroke-width="2" stroke-linejoin="round"/>
<line x1="35.5703" y1="229.017" x2="122.123" y2="229.017" stroke="#3B667A" stroke-width="2" stroke-linejoin="round"/>
<rect x="120.938" y="50.7979" width="154.506" height="229.203" stroke="#3B667A" stroke-width="2" stroke-linejoin="round"/>
<rect x="1" y="50.7979" width="35.9409" height="229.203" stroke="#3B667A" stroke-width="2" stroke-linejoin="round"/>
<rect x="136.164" y="73.3252" width="131.979" height="2" rx="1" fill="#F6F2E9" stroke="#3B667A" stroke-width="2" stroke-linejoin="round"/>
<rect x="136.164" y="88.7383" width="131.979" height="2" rx="1" fill="#F6F2E9" stroke="#3B667A" stroke-width="2" stroke-linejoin="round"/>
<rect x="136.164" y="105.338" width="131.979" height="2" rx="1" fill="#F6F2E9" stroke="#3B667A" stroke-width="2" stroke-linejoin="round"/>
<rect x="136.164" y="120.751" width="131.979" height="2" rx="1" fill="#F6F2E9" stroke="#3B667A" stroke-width="2" stroke-linejoin="round"/>
<rect x="136.164" y="137.351" width="131.979" height="2" rx="1" fill="#F6F2E9" stroke="#3B667A" stroke-width="2" stroke-linejoin="round"/>
<rect x="136.164" y="153.949" width="131.979" height="2" rx="1" fill="#F6F2E9" stroke="#3B667A" stroke-width="2" stroke-linejoin="round"/>
<rect x="136.164" y="169.363" width="131.979" height="2" rx="1" fill="#F6F2E9" stroke="#3B667A" stroke-width="2" stroke-linejoin="round"/>
<rect x="136.164" y="185.962" width="131.979" height="5.11392" fill="#F6F2E9" stroke="#3B667A" stroke-width="2" stroke-linejoin="round"/>
<rect x="136.164" y="202.562" width="131.979" height="5.11392" fill="#F6F2E9" stroke="#3B667A" stroke-width="2" stroke-linejoin="round"/>
<rect x="136.164" y="217.975" width="131.979" height="6.29958" fill="#F6F2E9" stroke="#3B667A" stroke-width="2" stroke-linejoin="round"/>
<rect x="9.29883" y="73.3252" width="19.3418" height="2" rx="1" fill="#F6F2E9" stroke="#3B667A" stroke-width="2" stroke-linejoin="round"/>
<rect x="9.29883" y="88.7383" width="19.3418" height="2" rx="1" fill="#F6F2E9" stroke="#3B667A" stroke-width="2" stroke-linejoin="round"/>
<rect x="9.29883" y="105.338" width="19.3418" height="2" rx="1" fill="#F6F2E9" stroke="#3B667A" stroke-width="2" stroke-linejoin="round"/>
<rect x="9.29883" y="120.751" width="19.3418" height="2" rx="1" fill="#F6F2E9" stroke="#3B667A" stroke-width="2" stroke-linejoin="round"/>
<rect x="9.29883" y="137.351" width="19.3418" height="5.11392" fill="#F6F2E9" stroke="#3B667A" stroke-width="2" stroke-linejoin="round"/>
<rect x="9.29883" y="153.949" width="19.3418" height="3.92827" fill="#F6F2E9" stroke="#3B667A" stroke-width="2" stroke-linejoin="round"/>
<rect x="9.29883" y="169.363" width="19.3418" height="6.29958" fill="#F6F2E9" stroke="#3B667A" stroke-width="2" stroke-linejoin="round"/>
<rect x="9.29883" y="185.962" width="19.3418" height="5.11392" fill="#F6F2E9" stroke="#3B667A" stroke-width="2" stroke-linejoin="round"/>
<rect x="9.29883" y="202.562" width="19.3418" height="5.11392" fill="#F6F2E9" stroke="#3B667A" stroke-width="2" stroke-linejoin="round"/>
<rect x="9.29883" y="217.975" width="19.3418" height="6.29958" fill="#F6F2E9" stroke="#3B667A" stroke-width="2" stroke-linejoin="round"/>
<rect x="9.29883" y="235.76" width="19.3418" height="35.9409" fill="#F6F2E9" stroke="#3B667A" stroke-width="2" stroke-linejoin="round"/>
<rect x="136.164" y="235.76" width="59.654" height="35.9409" fill="#F6F2E9" stroke="#3B667A" stroke-width="2" stroke-linejoin="round"/>
<rect x="208.49" y="235.76" width="59.654" height="35.9409" fill="#F6F2E9" stroke="#3B667A" stroke-width="2" stroke-linejoin="round"/>
</svg>
