<svg width="1319" height="1331" viewBox="0 0 1319 1331" fill="none" xmlns="http://www.w3.org/2000/svg">
<path d="M11.6836 870.427L614.839 494.786L1307.06 839.446V870.427L714.558 1261.56L11.6836 870.427Z" fill="#F7F3EA" stroke="#386776" stroke-width="2" stroke-linecap="round" stroke-linejoin="round"/>
<path d="M1317.2 352.953C1317.53 353.124 1317.74 353.468 1317.74 353.844V852.032C1317.74 852.38 1317.56 852.703 1317.26 852.885C1316.97 853.067 1316.6 853.081 1316.29 852.923L626.968 501.079C626.633 500.908 626.422 500.564 626.422 500.189V2C626.422 1.65194 626.603 1.32893 626.9 1.14717C627.197 0.965421 627.567 0.951082 627.877 1.10932L1317.2 352.953Z" fill="#F7F3EA" stroke="#386776" stroke-width="2" stroke-linejoin="round"/>
<path d="M1.49002 371.94C1.18625 372.12 1 372.447 1 372.8V868.491C1 868.85 1.19279 869.182 1.50502 869.359C1.81724 869.537 2.20089 869.534 2.50998 869.351L627.932 498.551C628.236 498.371 628.422 498.044 628.422 497.691V2C628.422 1.64067 628.229 1.30896 627.917 1.1311C627.605 0.953234 627.221 0.956562 626.912 1.13982L1.49002 371.94Z" fill="#F7F3EA" stroke="#386776" stroke-width="2" stroke-linejoin="round"/>
<path d="M18.9117 381.063C18.6102 381.244 18.4258 381.57 18.4258 381.921V873.331C18.4258 873.691 18.6195 874.024 18.9328 874.201C19.2462 874.379 19.6308 874.374 19.9398 874.189L627.935 509.873C628.237 509.693 628.421 509.367 628.421 509.015V17.4902C628.421 17.13 628.228 16.7977 627.914 16.6201C627.601 16.4426 627.216 16.4473 626.907 16.6325L18.9117 381.063Z" fill="#F7F3EA" stroke="#386776" stroke-width="2" stroke-linejoin="round"/>
<mask id="path-5-outside-1_843_139" maskUnits="userSpaceOnUse" x="0" y="370" width="719" height="961" fill="black">
<rect fill="white" y="370" width="719" height="961"/>
<path fill-rule="evenodd" clip-rule="evenodd" d="M2 374L19 382.826V872.863L716.492 1250.91V1327.39L2 939.165V866.174V863.649V374Z"/>
</mask>
<path fill-rule="evenodd" clip-rule="evenodd" d="M2 374L19 382.826V872.863L716.492 1250.91V1327.39L2 939.165V866.174V863.649V374Z" fill="#386776"/>
<path d="M19 382.826H21V381.611L19.9215 381.051L19 382.826ZM2 374L2.92153 372.225L0 370.708V374H2ZM19 872.863H17V874.054L18.047 874.622L19 872.863ZM716.492 1250.91H718.492V1249.72L717.445 1249.15L716.492 1250.91ZM716.492 1327.39L715.537 1329.15L718.492 1330.75V1327.39H716.492ZM2 939.165H0V940.354L1.04513 940.922L2 939.165ZM19.9215 381.051L2.92153 372.225L1.07847 375.775L18.0785 384.601L19.9215 381.051ZM21 872.863V382.826H17V872.863H21ZM717.445 1249.15L19.953 871.105L18.047 874.622L715.539 1252.67L717.445 1249.15ZM718.492 1327.39V1250.91H714.492V1327.39H718.492ZM1.04513 940.922L715.537 1329.15L717.447 1325.63L2.95487 937.407L1.04513 940.922ZM0 866.174V939.165H4V866.174H0ZM0 863.649V866.174H4V863.649H0ZM0 374V863.649H4V374H0Z" fill="#386776" mask="url(#path-5-outside-1_843_139)"/>
<path d="M1299.46 363.716C1299.79 363.887 1300 364.23 1300 364.604V864C1300 864.35 1299.82 864.675 1299.52 864.856C1299.22 865.037 1298.84 865.048 1298.53 864.885L626.535 511.467C626.206 511.294 626 510.953 626 510.582V17C626 16.651 626.182 16.3272 626.48 16.1458C626.778 15.9643 627.149 15.9514 627.459 16.1118L1299.46 363.716Z" fill="#F7F3EA" stroke="#386776" stroke-width="2" stroke-linejoin="round"/>
<mask id="path-8-outside-2_843_139" maskUnits="userSpaceOnUse" x="715" y="350" width="604" height="981" fill="black">
<rect fill="white" x="715" y="350" width="604" height="981"/>
<path fill-rule="evenodd" clip-rule="evenodd" d="M1317 354L1300 364.962V863.264L717 1249.55V1327L1317 927.511V861.253V852V354Z"/>
</mask>
<path fill-rule="evenodd" clip-rule="evenodd" d="M1317 354L1300 364.962V863.264L717 1249.55V1327L1317 927.511V861.253V852V354Z" fill="#386776"/>
<path d="M1300 364.962L1298.92 363.281L1298 363.871V364.962H1300ZM1317 354H1319V350.331L1315.92 352.319L1317 354ZM1300 863.264L1301.1 864.931L1302 864.338V863.264H1300ZM717 1249.55L715.895 1247.89L715 1248.48V1249.55H717ZM717 1327H715V1330.73L718.108 1328.66L717 1327ZM1317 927.511L1318.11 929.176L1319 928.582V927.511H1317ZM1301.08 366.642L1318.08 355.681L1315.92 352.319L1298.92 363.281L1301.08 366.642ZM1302 863.264V364.962H1298V863.264H1302ZM718.105 1251.22L1301.1 864.931L1298.9 861.597L715.895 1247.89L718.105 1251.22ZM719 1327V1249.55H715V1327H719ZM1315.89 925.846L715.892 1325.34L718.108 1328.66L1318.11 929.176L1315.89 925.846ZM1315 861.253V927.511H1319V861.253H1315ZM1315 852V861.253H1319V852H1315ZM1315 354V852H1319V354H1315Z" fill="#386776" mask="url(#path-8-outside-2_843_139)"/>
</svg>
