<svg width="761" height="240" viewBox="0 0 761 240" fill="none" xmlns="http://www.w3.org/2000/svg">
<path d="M1 5.99999C1 3.23857 3.23857 1 6 1H142.05C148.125 1 153.05 5.92487 153.05 12V190.609C153.05 196.684 148.125 201.609 142.05 201.609H6C3.23858 201.609 1 199.371 1 196.609V5.99999Z" fill="#F6F2E9" stroke="#3A6F7E" stroke-width="2"/>
<circle cx="77.0008" cy="108.003" r="36.0008" fill="#538F93" stroke="#3A6F7E" stroke-width="2"/>
<path d="M71.1405 73.6763C63.559 83.602 52.9449 111.228 71.1405 142.329" stroke="#3A6F7E" stroke-width="2" stroke-linecap="round"/>
<path d="M82.8615 73.6763C90.443 83.602 101.057 111.228 82.8615 142.329" stroke="#3A6F7E" stroke-width="2" stroke-linecap="round"/>
<path d="M111.746 101.724C101.699 93.6306 73.7359 82.3002 42.2561 101.724" stroke="#3A6F7E" stroke-width="2" stroke-linecap="round"/>
<path d="M111.746 113.445C101.699 121.538 73.7359 132.868 42.2562 113.445" stroke="#3A6F7E" stroke-width="2" stroke-linecap="round"/>
<path d="M52.7706 45.8149V35.6331H59.87V37.6317H55.2315V39.7198H59.5071V41.7233H55.2315V43.8164H59.87V45.8149H52.7706ZM66.3381 42.5188V38.1786H68.7642V45.8149H66.4474V44.3931H66.3679C66.1989 44.8604 65.9105 45.2316 65.5028 45.5067C65.0985 45.7785 64.6096 45.9144 64.0362 45.9144C63.5159 45.9144 63.0585 45.7951 62.6641 45.5564C62.2696 45.3178 61.9631 44.9847 61.7443 44.5571C61.5256 44.1263 61.4145 43.6225 61.4112 43.0458V38.1786H63.8423V42.5685C63.8456 42.9828 63.955 43.3093 64.1705 43.5479C64.3859 43.7865 64.6792 43.9059 65.0504 43.9059C65.2924 43.9059 65.5095 43.8528 65.7017 43.7468C65.8973 43.6374 66.0514 43.48 66.1641 43.2745C66.2801 43.0657 66.3381 42.8138 66.3381 42.5188ZM70.3116 45.8149V38.1786H72.6731V39.5706H72.7527C72.8919 39.0668 73.1189 38.6923 73.4338 38.447C73.7486 38.1985 74.1149 38.0742 74.5325 38.0742C74.6452 38.0742 74.7612 38.0825 74.8805 38.099C74.9998 38.1123 75.1109 38.1338 75.2136 38.1637V40.2766C75.0976 40.2368 74.9451 40.2053 74.7562 40.1821C74.5706 40.1589 74.4049 40.1473 74.2591 40.1473C73.9707 40.1473 73.7105 40.212 73.4785 40.3412C73.2498 40.4672 73.0692 40.6445 72.9366 40.8732C72.8074 41.0986 72.7427 41.3637 72.7427 41.6686V45.8149H70.3116ZM79.3723 45.9591C78.5703 45.9591 77.8809 45.7951 77.3042 45.4669C76.7308 45.1355 76.2883 44.6748 75.9767 44.0848C75.6685 43.4916 75.5144 42.8038 75.5144 42.0216C75.5144 41.2361 75.6685 40.5484 75.9767 39.9584C76.2883 39.3651 76.7308 38.9044 77.3042 38.5763C77.8809 38.2449 78.5703 38.0791 79.3723 38.0791C80.1744 38.0791 80.8622 38.2449 81.4355 38.5763C82.0123 38.9044 82.4547 39.3651 82.763 39.9584C83.0745 40.5484 83.2303 41.2361 83.2303 42.0216C83.2303 42.8038 83.0745 43.4916 82.763 44.0848C82.4547 44.6748 82.0123 45.1355 81.4355 45.4669C80.8622 45.7951 80.1744 45.9591 79.3723 45.9591ZM79.3873 44.1246C79.6789 44.1246 79.9258 44.0351 80.128 43.8561C80.3302 43.6772 80.4843 43.4286 80.5904 43.1104C80.6998 42.7922 80.7544 42.4243 80.7544 42.0067C80.7544 41.5825 80.6998 41.2112 80.5904 40.8931C80.4843 40.5749 80.3302 40.3263 80.128 40.1473C79.9258 39.9684 79.6789 39.8789 79.3873 39.8789C79.0856 39.8789 78.8304 39.9684 78.6216 40.1473C78.4161 40.3263 78.2587 40.5749 78.1493 40.8931C78.0433 41.2112 77.9902 41.5825 77.9902 42.0067C77.9902 42.4243 78.0433 42.7922 78.1493 43.1104C78.2587 43.4286 78.4161 43.6772 78.6216 43.8561C78.8304 44.0351 79.0856 44.1246 79.3873 44.1246ZM84.4757 48.6786V38.1786H86.8819V39.4861H86.9565C87.0559 39.2541 87.1968 39.0304 87.3791 38.8149C87.5647 38.5995 87.8 38.4238 88.085 38.288C88.3734 38.1487 88.7181 38.0791 89.1191 38.0791C89.6494 38.0791 90.1449 38.2184 90.6056 38.4968C91.0697 38.7752 91.4442 39.2044 91.7292 39.7844C92.0143 40.3644 92.1568 41.1035 92.1568 42.0017C92.1568 42.8668 92.0192 43.591 91.7441 44.1743C91.4724 44.7576 91.1045 45.1951 90.6404 45.4868C90.1797 45.7785 89.6677 45.9243 89.1042 45.9243C88.7198 45.9243 88.3867 45.8613 88.1049 45.7354C87.8232 45.6094 87.5862 45.4437 87.394 45.2382C87.2051 45.0327 87.0592 44.8123 86.9565 44.577H86.9068V48.6786H84.4757ZM86.8571 41.9968C86.8571 42.4077 86.9118 42.7657 87.0211 43.0706C87.1338 43.3755 87.2946 43.6125 87.5034 43.7816C87.7155 43.9473 87.969 44.0301 88.264 44.0301C88.5623 44.0301 88.8159 43.9473 89.0247 43.7816C89.2335 43.6125 89.3909 43.3755 89.497 43.0706C89.6064 42.7657 89.661 42.4077 89.661 41.9968C89.661 41.5858 89.6064 41.2295 89.497 40.9279C89.3909 40.6263 89.2335 40.3926 89.0247 40.2269C88.8192 40.0612 88.5656 39.9783 88.264 39.9783C87.9657 39.9783 87.7122 40.0595 87.5034 40.2219C87.2946 40.3843 87.1338 40.6163 87.0211 40.9179C86.9118 41.2195 86.8571 41.5791 86.8571 41.9968ZM97.0004 45.9591C96.2016 45.9591 95.5122 45.8017 94.9322 45.4868C94.3555 45.1686 93.9113 44.7162 93.5998 44.1296C93.2915 43.5396 93.1374 42.8386 93.1374 42.0266C93.1374 41.2378 93.2932 40.5484 93.6048 39.9584C93.9163 39.3651 94.3555 38.9044 94.9222 38.5763C95.489 38.2449 96.1568 38.0791 96.9258 38.0791C97.4693 38.0791 97.9665 38.1637 98.4173 38.3327C98.868 38.5017 99.2575 38.752 99.5856 39.0834C99.9137 39.4148 100.169 39.8242 100.351 40.3114C100.533 40.7953 100.625 41.3505 100.625 41.9769V42.5834H93.9876V41.1715H98.3626C98.3593 40.913 98.2979 40.6826 98.1786 40.4804C98.0593 40.2782 97.8952 40.1208 97.6864 40.0081C97.4809 39.8921 97.244 39.8341 96.9755 39.8341C96.7037 39.8341 96.4601 39.8954 96.2447 40.0181C96.0292 40.1374 95.8585 40.3014 95.7326 40.5103C95.6067 40.7157 95.5404 40.9494 95.5337 41.2112V42.648C95.5337 42.9596 95.5951 43.233 95.7177 43.4684C95.8403 43.7004 96.0143 43.881 96.2397 44.0103C96.4651 44.1395 96.7335 44.2041 97.0451 44.2041C97.2605 44.2041 97.4561 44.1743 97.6317 44.1147C97.8074 44.055 97.9582 43.9672 98.0842 43.8512C98.2101 43.7352 98.3046 43.5926 98.3675 43.4236L100.6 43.4882C100.507 43.9887 100.303 44.4246 99.9883 44.7958C99.6767 45.1637 99.2674 45.4504 98.7603 45.6559C98.2532 45.858 97.6665 45.9591 97.0004 45.9591Z" fill="#3A6F7E"/>
<rect x="32" y="162.422" width="90.4207" height="6.69783" rx="3.34891" fill="#3A6F7E"/>
<rect x="51" y="172.469" width="51.9082" height="5.02337" rx="2.51168" fill="#3A6F7E"/>
<path d="M71.0431 215.901H72.8471V231.609H70.4491V218.783C69.5104 219.678 68.3077 220.338 66.8411 220.763V218.387C67.5157 218.211 68.2564 217.903 69.0631 217.463C69.4591 217.214 69.8184 216.965 70.1411 216.715C70.4784 216.451 70.7791 216.18 71.0431 215.901ZM81.5195 215.593C83.1915 215.593 84.5189 216.033 85.5015 216.913C86.3815 217.705 86.8215 218.688 86.8215 219.861C86.8215 220.668 86.6455 221.35 86.2935 221.907C85.8975 222.494 85.3035 222.941 84.5115 223.249V223.315C85.2742 223.491 85.9195 223.931 86.4475 224.635C87.0635 225.383 87.3715 226.249 87.3715 227.231C87.3715 228.61 86.8655 229.739 85.8535 230.619C84.8122 231.485 83.3675 231.917 81.5195 231.917C79.6569 231.917 78.2122 231.485 77.1855 230.619C76.1735 229.739 75.6675 228.61 75.6675 227.231C75.6675 226.249 75.9755 225.383 76.5915 224.635C77.1195 223.931 77.7649 223.491 78.5275 223.315V223.249C77.7355 222.941 77.1415 222.494 76.7455 221.907C76.3935 221.35 76.2175 220.668 76.2175 219.861C76.2175 218.688 76.6575 217.705 77.5375 216.913C78.5055 216.033 79.8329 215.593 81.5195 215.593ZM81.5195 217.507C80.5369 217.507 79.7669 217.764 79.2095 218.277C78.7109 218.717 78.4615 219.275 78.4615 219.949C78.4615 220.712 78.6669 221.306 79.0775 221.731C79.5909 222.259 80.4049 222.523 81.5195 222.523C82.6195 222.523 83.4335 222.259 83.9615 221.731C84.3722 221.277 84.5775 220.683 84.5775 219.949C84.5775 219.289 84.3282 218.732 83.8295 218.277C83.2722 217.764 82.5022 217.507 81.5195 217.507ZM81.5195 224.305C80.3462 224.305 79.4809 224.584 78.9235 225.141C78.3369 225.669 78.0435 226.366 78.0435 227.231C78.0435 228.053 78.3442 228.713 78.9455 229.211C79.5469 229.725 80.4049 229.981 81.5195 229.981C82.6195 229.981 83.4922 229.725 84.1375 229.211C84.7095 228.698 84.9955 228.038 84.9955 227.231C84.9955 226.351 84.7095 225.662 84.1375 225.163C83.5215 224.591 82.6489 224.305 81.5195 224.305Z" fill="black"/>
<path d="M203.051 5.99999C203.051 3.23857 205.289 1 208.051 1H344.101C350.176 1 355.101 5.92487 355.101 12V190.609C355.101 196.684 350.176 201.609 344.101 201.609H208.051C205.289 201.609 203.051 199.371 203.051 196.609V5.99999Z" fill="#F6F2E9" stroke="#3A6F7E" stroke-width="2"/>
<circle cx="279.542" cy="108.003" r="36.0008" fill="#75AFB2" stroke="#3A6F7E" stroke-width="2"/>
<path d="M273.682 73.6763C266.1 83.602 255.486 111.228 273.682 142.329" stroke="#3A6F7E" stroke-width="2" stroke-linecap="round"/>
<path d="M285.402 73.6763C292.984 83.602 303.598 111.228 285.402 142.329" stroke="#3A6F7E" stroke-width="2" stroke-linecap="round"/>
<path d="M314.287 101.724C304.24 93.6306 276.277 82.3002 244.797 101.724" stroke="#3A6F7E" stroke-width="2" stroke-linecap="round"/>
<path d="M314.287 113.445C304.24 121.538 276.277 132.868 244.797 113.445" stroke="#3A6F7E" stroke-width="2" stroke-linecap="round"/>
<path d="M248.024 46.0127H245.379L248.814 35.8309H252.091L255.526 46.0127H252.881L250.49 38.3962H250.41L248.024 46.0127ZM247.671 42.0056H253.199V43.8749H247.671V42.0056ZM256.622 46.0127V38.3763H258.934V39.7783H259.018C259.178 39.3143 259.446 38.9481 259.824 38.6796C260.202 38.4111 260.652 38.2769 261.176 38.2769C261.706 38.2769 262.161 38.4128 262.538 38.6846C262.916 38.9564 263.156 39.3209 263.259 39.7783H263.339C263.481 39.3242 263.76 38.9613 264.174 38.6895C264.588 38.4144 265.077 38.2769 265.641 38.2769C266.363 38.2769 266.95 38.5089 267.401 38.9729C267.851 39.4336 268.077 40.0667 268.077 40.8721V46.0127H265.646V41.4289C265.646 41.0477 265.548 40.7577 265.352 40.5589C265.157 40.3567 264.903 40.2556 264.592 40.2556C264.257 40.2556 263.993 40.365 263.801 40.5837C263.612 40.7992 263.518 41.0892 263.518 41.4537V46.0127H261.181V41.404C261.181 41.0494 261.085 40.7693 260.893 40.5638C260.701 40.3583 260.447 40.2556 260.132 40.2556C259.92 40.2556 259.733 40.307 259.57 40.4097C259.408 40.5091 259.28 40.6517 259.188 40.8373C259.098 41.0229 259.053 41.2416 259.053 41.4935V46.0127H256.622ZM273.153 46.1569C272.354 46.1569 271.665 45.9994 271.085 45.6846C270.508 45.3664 270.064 44.914 269.752 44.3273C269.444 43.7374 269.29 43.0364 269.29 42.2243C269.29 41.4355 269.446 40.7461 269.757 40.1562C270.069 39.5629 270.508 39.1022 271.075 38.7741C271.641 38.4426 272.309 38.2769 273.078 38.2769C273.622 38.2769 274.119 38.3614 274.57 38.5305C275.02 38.6995 275.41 38.9497 275.738 39.2812C276.066 39.6126 276.321 40.0219 276.504 40.5091C276.686 40.993 276.777 41.5482 276.777 42.1746V42.7812H270.14V41.3692H274.515C274.512 41.1107 274.45 40.8804 274.331 40.6782C274.212 40.476 274.048 40.3186 273.839 40.2059C273.633 40.0899 273.396 40.0319 273.128 40.0319C272.856 40.0319 272.612 40.0932 272.397 40.2158C272.182 40.3351 272.011 40.4992 271.885 40.708C271.759 40.9135 271.693 41.1472 271.686 41.409V42.8458C271.686 43.1573 271.747 43.4308 271.87 43.6661C271.993 43.8981 272.167 44.0787 272.392 44.208C272.617 44.3373 272.886 44.4019 273.197 44.4019C273.413 44.4019 273.608 44.3721 273.784 44.3124C273.96 44.2528 274.111 44.1649 274.237 44.0489C274.362 43.9329 274.457 43.7904 274.52 43.6214L276.752 43.686C276.659 44.1865 276.455 44.6223 276.141 44.9935C275.829 45.3614 275.42 45.6481 274.913 45.8536C274.406 46.0558 273.819 46.1569 273.153 46.1569ZM278.019 46.0127V38.3763H280.38V39.7684H280.46C280.599 39.2646 280.826 38.8901 281.141 38.6448C281.456 38.3962 281.822 38.2719 282.24 38.2719C282.352 38.2719 282.468 38.2802 282.588 38.2968C282.707 38.31 282.818 38.3316 282.921 38.3614V40.4743C282.805 40.4346 282.652 40.4031 282.463 40.3799C282.278 40.3567 282.112 40.3451 281.966 40.3451C281.678 40.3451 281.418 40.4097 281.186 40.539C280.957 40.6649 280.776 40.8422 280.644 41.0709C280.514 41.2963 280.45 41.5615 280.45 41.8664V46.0127H278.019ZM283.911 46.0127V38.3763H286.342V46.0127H283.911ZM285.129 37.4864C284.788 37.4864 284.495 37.3737 284.249 37.1483C284.004 36.9197 283.881 36.6446 283.881 36.3231C283.881 36.0049 284.004 35.7331 284.249 35.5077C284.495 35.279 284.788 35.1647 285.129 35.1647C285.474 35.1647 285.767 35.279 286.009 35.5077C286.254 35.7331 286.377 36.0049 286.377 36.3231C286.377 36.6446 286.254 36.9197 286.009 37.1483C285.767 37.3737 285.474 37.4864 285.129 37.4864ZM291.454 46.1569C290.649 46.1569 289.958 45.9912 289.381 45.6597C288.808 45.3283 288.367 44.8676 288.059 44.2776C287.751 43.6843 287.596 42.9983 287.596 42.2194C287.596 41.4372 287.751 40.7511 288.059 40.1611C288.37 39.5679 288.813 39.1055 289.386 38.7741C289.963 38.4426 290.651 38.2769 291.449 38.2769C292.155 38.2769 292.77 38.4045 293.294 38.6597C293.821 38.9149 294.232 39.2762 294.527 39.7435C294.825 40.2075 294.983 40.7528 294.999 41.3792H292.727C292.681 40.9881 292.548 40.6815 292.329 40.4594C292.114 40.2374 291.832 40.1263 291.484 40.1263C291.202 40.1263 290.956 40.2059 290.743 40.365C290.531 40.5207 290.366 40.7528 290.246 41.061C290.13 41.3659 290.072 41.7438 290.072 42.1945C290.072 42.6453 290.13 43.0264 290.246 43.338C290.366 43.6462 290.531 43.8799 290.743 44.039C290.956 44.1948 291.202 44.2726 291.484 44.2726C291.71 44.2726 291.908 44.2246 292.081 44.1285C292.256 44.0323 292.401 43.8915 292.513 43.7059C292.626 43.517 292.697 43.2883 292.727 43.0198H294.999C294.976 43.6495 294.818 44.1997 294.527 44.6704C294.238 45.141 293.832 45.5073 293.309 45.7691C292.788 46.0276 292.17 46.1569 291.454 46.1569ZM298.396 46.142C297.909 46.142 297.476 46.0608 297.098 45.8983C296.724 45.7326 296.427 45.484 296.208 45.1526C295.993 44.8179 295.885 44.3986 295.885 43.8948C295.885 43.4706 295.96 43.1126 296.109 42.8209C296.258 42.5293 296.464 42.2923 296.725 42.11C296.987 41.9277 297.289 41.7902 297.63 41.6974C297.972 41.6012 298.336 41.5366 298.724 41.5035C299.158 41.4637 299.508 41.4223 299.773 41.3792C300.038 41.3328 300.23 41.2681 300.35 41.1853C300.472 41.0991 300.534 40.9781 300.534 40.8224V40.7975C300.534 40.5423 300.446 40.3451 300.27 40.2059C300.095 40.0667 299.858 39.9971 299.559 39.9971C299.238 39.9971 298.979 40.0667 298.784 40.2059C298.588 40.3451 298.464 40.5373 298.411 40.7826L296.169 40.703C296.235 40.239 296.406 39.8247 296.681 39.4601C296.959 39.0922 297.34 38.8039 297.824 38.5951C298.311 38.383 298.896 38.2769 299.579 38.2769C300.066 38.2769 300.516 38.3349 300.926 38.4509C301.337 38.5636 301.695 38.7293 302 38.9481C302.305 39.1635 302.541 39.4287 302.706 39.7435C302.875 40.0584 302.96 40.418 302.96 40.8224V46.0127H300.673V44.9488H300.613C300.477 45.2073 300.303 45.426 300.091 45.605C299.882 45.784 299.636 45.9182 299.35 46.0077C299.069 46.0972 298.751 46.142 298.396 46.142ZM299.147 44.551C299.408 44.551 299.644 44.498 299.853 44.392C300.065 44.2859 300.234 44.1401 300.36 43.9545C300.486 43.7655 300.549 43.5468 300.549 43.2982V42.5724C300.479 42.6088 300.395 42.642 300.295 42.6718C300.199 42.7016 300.093 42.7298 299.977 42.7563C299.861 42.7828 299.742 42.806 299.619 42.8259C299.496 42.8458 299.379 42.864 299.266 42.8806C299.037 42.9171 298.842 42.9734 298.679 43.0496C298.52 43.1259 298.398 43.2253 298.311 43.3479C298.229 43.4672 298.187 43.6098 298.187 43.7755C298.187 44.0274 298.277 44.2196 298.456 44.3522C298.638 44.4848 298.868 44.551 299.147 44.551ZM311.113 40.708L308.881 40.7677C308.858 40.6086 308.795 40.4677 308.692 40.3451C308.589 40.2191 308.455 40.1214 308.289 40.0518C308.127 39.9788 307.938 39.9424 307.723 39.9424C307.441 39.9424 307.201 39.9987 307.002 40.1114C306.806 40.2241 306.71 40.3766 306.713 40.5688C306.71 40.718 306.77 40.8472 306.892 40.9566C307.018 41.066 307.242 41.1538 307.564 41.2201L309.035 41.4985C309.797 41.6443 310.364 41.8863 310.735 42.2243C311.11 42.5624 311.299 43.0099 311.302 43.5667C311.299 44.0903 311.143 44.5461 310.835 44.9339C310.53 45.3216 310.112 45.6233 309.582 45.8387C309.052 46.0508 308.445 46.1569 307.762 46.1569C306.672 46.1569 305.812 45.9331 305.182 45.4857C304.556 45.0349 304.198 44.4317 304.108 43.676L306.51 43.6164C306.563 43.8948 306.7 44.1069 306.922 44.2528C307.144 44.3986 307.428 44.4715 307.772 44.4715C308.084 44.4715 308.337 44.4135 308.533 44.2975C308.729 44.1815 308.828 44.0274 308.831 43.8351C308.828 43.6628 308.752 43.5252 308.603 43.4225C308.453 43.3164 308.22 43.2336 307.902 43.1739L306.569 42.9204C305.804 42.7812 305.234 42.5243 304.859 42.1498C304.484 41.7719 304.299 41.2913 304.302 40.708C304.299 40.1976 304.435 39.7617 304.71 39.4005C304.985 39.0359 305.376 38.7575 305.883 38.5653C306.39 38.373 306.989 38.2769 307.678 38.2769C308.712 38.2769 309.527 38.494 310.124 38.9282C310.721 39.359 311.05 39.9523 311.113 40.708Z" fill="#3A6F7E"/>
<rect x="233.541" y="162.422" width="90.4207" height="6.69783" rx="3.34891" fill="#3A6F7E"/>
<rect x="253.543" y="172.469" width="51.9082" height="5.02337" rx="2.51168" fill="#3A6F7E"/>
<path d="M273.094 215.901H274.898V231.609H272.5V218.783C271.561 219.678 270.359 220.338 268.892 220.763V218.387C269.567 218.211 270.307 217.903 271.114 217.463C271.51 217.214 271.869 216.965 272.192 216.715C272.529 216.451 272.83 216.18 273.094 215.901ZM283.79 215.593C286.841 215.593 288.564 217.016 288.96 219.861H286.628C286.306 218.336 285.352 217.573 283.768 217.573C282.668 217.573 281.803 218.109 281.172 219.179C280.542 220.177 280.226 221.445 280.226 222.985C280.226 223.015 280.226 223.051 280.226 223.095C280.226 223.139 280.234 223.198 280.248 223.271H280.336C280.776 222.567 281.334 222.054 282.008 221.731C282.61 221.409 283.336 221.247 284.186 221.247C285.726 221.247 286.958 221.731 287.882 222.699C288.792 223.697 289.246 224.965 289.246 226.505C289.246 228.075 288.726 229.365 287.684 230.377C286.614 231.404 285.308 231.917 283.768 231.917C281.847 231.917 280.38 231.213 279.368 229.805C278.4 228.456 277.916 226.586 277.916 224.195C277.916 221.614 278.437 219.546 279.478 217.991C280.534 216.393 281.972 215.593 283.79 215.593ZM283.702 223.183C282.72 223.183 281.942 223.491 281.37 224.107C280.798 224.723 280.512 225.545 280.512 226.571C280.512 227.598 280.806 228.412 281.392 229.013C281.964 229.629 282.727 229.937 283.68 229.937C284.648 229.937 285.418 229.615 285.99 228.969C286.592 228.295 286.892 227.473 286.892 226.505C286.892 225.479 286.606 224.679 286.034 224.107C285.462 223.491 284.685 223.183 283.702 223.183Z" fill="black"/>
<path d="M405.1 5.99999C405.1 3.23857 407.338 1 410.1 1H546.15C552.225 1 557.15 5.92487 557.15 12V190.609C557.15 196.684 552.225 201.609 546.15 201.609H410.1C407.338 201.609 405.1 199.371 405.1 196.609V5.99999Z" fill="#F6F2E9" stroke="#3A6F7E" stroke-width="2"/>
<circle cx="481.1" cy="108.003" r="36.0008" fill="#B4D2D4" stroke="#3A6F7E" stroke-width="2"/>
<path d="M475.24 73.6763C467.659 83.602 457.044 111.228 475.24 142.329" stroke="#3A6F7E" stroke-width="2" stroke-linecap="round"/>
<path d="M486.961 73.6763C494.543 83.602 505.157 111.228 486.961 142.329" stroke="#3A6F7E" stroke-width="2" stroke-linecap="round"/>
<path d="M515.846 101.724C505.799 93.6306 477.836 82.3002 446.356 101.724" stroke="#3A6F7E" stroke-width="2" stroke-linecap="round"/>
<path d="M515.846 113.445C505.799 121.538 477.836 132.868 446.356 113.445" stroke="#3A6F7E" stroke-width="2" stroke-linecap="round"/>
<path d="M462.073 46.4033H459.428L462.863 36.2215H466.139L469.575 46.4033H466.93L464.539 38.7868H464.459L462.073 46.4033ZM461.72 42.3962H467.248V44.2655H461.72V42.3962ZM474.82 38.767V40.5567H469.908V38.767H474.82ZM470.932 46.4033V38.3792C470.932 37.7892 471.043 37.3003 471.265 36.9126C471.487 36.5215 471.795 36.2298 472.19 36.0376C472.584 35.842 473.04 35.7442 473.557 35.7442C473.895 35.7442 474.213 35.7707 474.512 35.8238C474.813 35.8735 475.037 35.9182 475.183 35.958L474.795 37.7378C474.705 37.708 474.596 37.6831 474.467 37.6633C474.341 37.6434 474.222 37.6334 474.109 37.6334C473.824 37.6334 473.628 37.6964 473.522 37.8224C473.416 37.9483 473.363 38.1206 473.363 38.3394V46.4033H470.932ZM475.989 46.4033V38.767H478.351V40.159H478.43C478.57 39.6552 478.797 39.2807 479.112 39.0354C479.426 38.7868 479.793 38.6626 480.21 38.6626C480.323 38.6626 480.439 38.6708 480.558 38.6874C480.678 38.7007 480.789 38.7222 480.891 38.752V40.865C480.775 40.8252 480.623 40.7937 480.434 40.7705C480.248 40.7473 480.083 40.7357 479.937 40.7357C479.648 40.7357 479.388 40.8003 479.156 40.9296C478.928 41.0555 478.747 41.2329 478.614 41.4616C478.485 41.6869 478.42 41.9521 478.42 42.257V46.4033H475.989ZM481.882 46.4033V38.767H484.313V46.4033H481.882ZM483.1 37.877C482.759 37.877 482.465 37.7644 482.22 37.539C481.975 37.3103 481.852 37.0352 481.852 36.7137C481.852 36.3955 481.975 36.1237 482.22 35.8983C482.465 35.6697 482.759 35.5553 483.1 35.5553C483.445 35.5553 483.738 35.6697 483.98 35.8983C484.225 36.1237 484.348 36.3955 484.348 36.7137C484.348 37.0352 484.225 37.3103 483.98 37.539C483.738 37.7644 483.445 37.877 483.1 37.877ZM489.425 46.5475C488.62 46.5475 487.929 46.3818 487.352 46.0503C486.779 45.7189 486.338 45.2582 486.029 44.6682C485.721 44.075 485.567 43.3889 485.567 42.61C485.567 41.8278 485.721 41.1417 486.029 40.5518C486.341 39.9585 486.783 39.4961 487.357 39.1647C487.934 38.8332 488.621 38.6675 489.42 38.6675C490.126 38.6675 490.741 38.7951 491.265 39.0503C491.792 39.3055 492.203 39.6668 492.498 40.1341C492.796 40.5982 492.953 41.1434 492.97 41.7698H490.698C490.651 41.3787 490.519 41.0721 490.3 40.8501C490.085 40.628 489.803 40.517 489.455 40.517C489.173 40.517 488.926 40.5965 488.714 40.7556C488.502 40.9114 488.336 41.1434 488.217 41.4516C488.101 41.7565 488.043 42.1344 488.043 42.5851C488.043 43.0359 488.101 43.4171 488.217 43.7286C488.336 44.0368 488.502 44.2705 488.714 44.4296C488.926 44.5854 489.173 44.6633 489.455 44.6633C489.68 44.6633 489.879 44.6152 490.051 44.5191C490.227 44.423 490.371 44.2821 490.484 44.0965C490.597 43.9076 490.668 43.6789 490.698 43.4104H492.97C492.947 44.0402 492.789 44.5903 492.498 45.061C492.209 45.5316 491.803 45.8979 491.279 46.1597C490.759 46.4182 490.141 46.5475 489.425 46.5475ZM496.367 46.5326C495.879 46.5326 495.447 46.4514 495.069 46.289C494.695 46.1233 494.398 45.8747 494.179 45.5432C493.964 45.2085 493.856 44.7892 493.856 44.2854C493.856 43.8612 493.931 43.5032 494.08 43.2116C494.229 42.9199 494.434 42.6829 494.696 42.5006C494.958 42.3183 495.26 42.1808 495.601 42.088C495.942 41.9919 496.307 41.9272 496.695 41.8941C497.129 41.8543 497.479 41.8129 497.744 41.7698C498.009 41.7234 498.201 41.6588 498.32 41.5759C498.443 41.4897 498.504 41.3688 498.504 41.213V41.1881C498.504 40.9329 498.417 40.7357 498.241 40.5965C498.065 40.4573 497.828 40.3877 497.53 40.3877C497.209 40.3877 496.95 40.4573 496.754 40.5965C496.559 40.7357 496.435 40.9279 496.382 41.1732L494.139 41.0937C494.206 40.6296 494.376 40.2153 494.651 39.8508C494.93 39.4829 495.311 39.1945 495.795 38.9857C496.282 38.7736 496.867 38.6675 497.55 38.6675C498.037 38.6675 498.486 38.7255 498.897 38.8415C499.308 38.9542 499.666 39.1199 499.971 39.3387C500.276 39.5541 500.511 39.8193 500.677 40.1341C500.846 40.449 500.931 40.8086 500.931 41.213V46.4033H498.644V45.3394H498.584C498.448 45.5979 498.274 45.8167 498.062 45.9956C497.853 46.1746 497.606 46.3089 497.321 46.3983C497.039 46.4878 496.721 46.5326 496.367 46.5326ZM497.117 44.9417C497.379 44.9417 497.615 44.8886 497.823 44.7826C498.035 44.6765 498.204 44.5307 498.33 44.3451C498.456 44.1562 498.519 43.9374 498.519 43.6888V42.963C498.45 42.9994 498.365 43.0326 498.266 43.0624C498.17 43.0922 498.064 43.1204 497.948 43.1469C497.832 43.1734 497.712 43.1966 497.59 43.2165C497.467 43.2364 497.349 43.2546 497.237 43.2712C497.008 43.3077 496.812 43.364 496.65 43.4403C496.491 43.5165 496.368 43.6159 496.282 43.7385C496.199 43.8579 496.158 44.0004 496.158 44.1661C496.158 44.418 496.247 44.6102 496.426 44.7428C496.609 44.8754 496.839 44.9417 497.117 44.9417Z" fill="#3A6F7E"/>
<rect x="436.1" y="162.422" width="90.4207" height="6.69783" rx="3.34891" fill="#3A6F7E"/>
<rect x="455.1" y="172.469" width="51.9082" height="5.02337" rx="2.51168" fill="#3A6F7E"/>
<path d="M482.713 215.901H484.913V226.285H487.289V228.199H484.913V231.609H482.625V228.199H474.969V225.933L482.713 215.901ZM482.559 218.937L476.927 226.285H482.625V218.937H482.559Z" fill="black"/>
<path d="M607.15 5.99999C607.15 3.23857 609.389 1 612.15 1H748.2C754.276 1 759.2 5.92487 759.2 12V190.609C759.2 196.684 754.276 201.609 748.2 201.609H612.15C609.389 201.609 607.15 199.371 607.15 196.609V5.99999Z" fill="#F6F2E9" stroke="#3A6F7E" stroke-width="2"/>
<circle cx="683.151" cy="108.003" r="36.0008" fill="#B4D2D4" stroke="#3A6F7E" stroke-width="2"/>
<path d="M677.291 73.6763C669.709 83.602 659.095 111.228 677.291 142.329" stroke="#3A6F7E" stroke-width="2" stroke-linecap="round"/>
<path d="M689.012 73.6763C696.593 83.602 707.207 111.228 689.012 142.329" stroke="#3A6F7E" stroke-width="2" stroke-linecap="round"/>
<path d="M717.896 101.724C707.85 93.6306 679.886 82.3002 648.407 101.724" stroke="#3A6F7E" stroke-width="2" stroke-linecap="round"/>
<path d="M717.896 113.445C707.85 121.538 679.886 132.868 648.407 113.445" stroke="#3A6F7E" stroke-width="2" stroke-linecap="round"/>
<path d="M671.123 46.4033H668.479L671.914 36.2215H675.19L678.626 46.4033H675.981L673.589 38.7868H673.51L671.123 46.4033ZM670.77 42.3962H676.299V44.2655H670.77V42.3962ZM686.156 41.0986L683.924 41.1583C683.901 40.9992 683.838 40.8583 683.735 40.7357C683.632 40.6098 683.498 40.512 683.332 40.4424C683.17 40.3695 682.981 40.333 682.766 40.333C682.484 40.333 682.244 40.3894 682.045 40.502C681.849 40.6147 681.753 40.7672 681.756 40.9594C681.753 41.1086 681.813 41.2378 681.935 41.3472C682.061 41.4566 682.285 41.5444 682.607 41.6107L684.078 41.8891C684.84 42.0349 685.407 42.2769 685.778 42.615C686.153 42.953 686.342 43.4005 686.345 43.9573C686.342 44.481 686.186 44.9367 685.878 45.3245C685.573 45.7123 685.155 46.0139 684.625 46.2293C684.095 46.4414 683.488 46.5475 682.805 46.5475C681.715 46.5475 680.855 46.3238 680.225 45.8763C679.599 45.4256 679.241 44.8224 679.151 44.0667L681.553 44.007C681.606 44.2854 681.743 44.4975 681.965 44.6434C682.187 44.7892 682.471 44.8621 682.815 44.8621C683.127 44.8621 683.38 44.8041 683.576 44.6881C683.772 44.5721 683.871 44.418 683.874 44.2258C683.871 44.0534 683.795 43.9159 683.646 43.8131C683.496 43.7071 683.263 43.6242 682.945 43.5645L681.612 43.311C680.847 43.1718 680.277 42.9149 679.902 42.5404C679.527 42.1626 679.342 41.682 679.345 41.0986C679.342 40.5882 679.478 40.1524 679.753 39.7911C680.028 39.4265 680.419 39.1481 680.926 38.9559C681.433 38.7636 682.031 38.6675 682.721 38.6675C683.755 38.6675 684.57 38.8846 685.167 39.3188C685.763 39.7497 686.093 40.343 686.156 41.0986ZM687.542 46.4033V38.767H689.973V46.4033H687.542ZM688.76 37.877C688.419 37.877 688.125 37.7644 687.88 37.539C687.635 37.3103 687.512 37.0352 687.512 36.7137C687.512 36.3955 687.635 36.1237 687.88 35.8983C688.125 35.6697 688.419 35.5553 688.76 35.5553C689.105 35.5553 689.398 35.6697 689.64 35.8983C689.885 36.1237 690.008 36.3955 690.008 36.7137C690.008 37.0352 689.885 37.3103 689.64 37.539C689.398 37.7644 689.105 37.877 688.76 37.877ZM693.673 46.5326C693.186 46.5326 692.754 46.4514 692.376 46.289C692.001 46.1233 691.705 45.8747 691.486 45.5432C691.27 45.2085 691.163 44.7892 691.163 44.2854C691.163 43.8612 691.237 43.5032 691.386 43.2116C691.536 42.9199 691.741 42.6829 692.003 42.5006C692.265 42.3183 692.566 42.1808 692.908 42.088C693.249 41.9919 693.614 41.9272 694.001 41.8941C694.436 41.8543 694.785 41.8129 695.05 41.7698C695.316 41.7234 695.508 41.6588 695.627 41.5759C695.75 41.4897 695.811 41.3688 695.811 41.213V41.1881C695.811 40.9329 695.723 40.7357 695.548 40.5965C695.372 40.4573 695.135 40.3877 694.837 40.3877C694.515 40.3877 694.257 40.4573 694.061 40.5965C693.866 40.7357 693.741 40.9279 693.688 41.1732L691.446 41.0937C691.512 40.6296 691.683 40.2153 691.958 39.8508C692.237 39.4829 692.618 39.1945 693.102 38.9857C693.589 38.7736 694.174 38.6675 694.857 38.6675C695.344 38.6675 695.793 38.7255 696.204 38.8415C696.615 38.9542 696.973 39.1199 697.278 39.3387C697.583 39.5541 697.818 39.8193 697.984 40.1341C698.153 40.449 698.237 40.8086 698.237 41.213V46.4033H695.95V45.3394H695.891C695.755 45.5979 695.581 45.8167 695.369 45.9956C695.16 46.1746 694.913 46.3089 694.628 46.3983C694.346 46.4878 694.028 46.5326 693.673 46.5326ZM694.424 44.9417C694.686 44.9417 694.921 44.8886 695.13 44.7826C695.342 44.6765 695.511 44.5307 695.637 44.3451C695.763 44.1562 695.826 43.9374 695.826 43.6888V42.963C695.756 42.9994 695.672 43.0326 695.572 43.0624C695.476 43.0922 695.37 43.1204 695.254 43.1469C695.138 43.1734 695.019 43.1966 694.896 43.2165C694.774 43.2364 694.656 43.2546 694.543 43.2712C694.315 43.3077 694.119 43.364 693.957 43.4403C693.798 43.5165 693.675 43.6159 693.589 43.7385C693.506 43.8579 693.464 44.0004 693.464 44.1661C693.464 44.418 693.554 44.6102 693.733 44.7428C693.915 44.8754 694.146 44.9417 694.424 44.9417Z" fill="#3A6F7E"/>
<rect x="638.15" y="162.422" width="90.4207" height="6.69783" rx="3.34891" fill="#3A6F7E"/>
<rect x="657.15" y="172.469" width="51.9082" height="5.02337" rx="2.51168" fill="#3A6F7E"/>
<path d="M684.764 215.901H686.964V226.285H689.34V228.199H686.964V231.609H684.676V228.199H677.02V225.933L684.764 215.901ZM684.61 218.937L678.978 226.285H684.676V218.937H684.61Z" fill="black"/>
</svg>
