<svg width="118" height="243" viewBox="0 0 118 243" fill="none" xmlns="http://www.w3.org/2000/svg">
<rect x="30.5" y="140.5" width="26" height="77" rx="1.5" fill="#3F6975" stroke="black"/>
<rect x="61.5" y="140.5" width="26" height="77" rx="1.5" fill="#3F6975" stroke="black"/>
<mask id="path-3-inside-1_801_247" fill="white">
<path d="M57 226.5C58.1046 226.5 59.0125 225.601 58.879 224.505C58.4356 220.864 56.7876 217.453 54.1673 214.833C51.0729 211.738 46.8761 210 42.5 210C38.1239 210 33.9271 211.738 30.8327 214.833C28.2124 217.453 26.5644 220.864 26.121 224.505C25.9875 225.601 26.8954 226.5 28 226.5L42.5 226.5H57Z"/>
</mask>
<path d="M57 226.5C58.1046 226.5 59.0125 225.601 58.879 224.505C58.4356 220.864 56.7876 217.453 54.1673 214.833C51.0729 211.738 46.8761 210 42.5 210C38.1239 210 33.9271 211.738 30.8327 214.833C28.2124 217.453 26.5644 220.864 26.121 224.505C25.9875 225.601 26.8954 226.5 28 226.5L42.5 226.5H57Z" fill="#3F6975" stroke="black" stroke-width="2" mask="url(#path-3-inside-1_801_247)"/>
<mask id="path-4-inside-2_801_247" fill="white">
<path d="M91 226.5C92.1046 226.5 93.0125 225.601 92.879 224.505C92.4356 220.864 90.7876 217.453 88.1673 214.833C85.0729 211.738 80.8761 210 76.5 210C72.1239 210 67.9271 211.738 64.8327 214.833C62.2124 217.453 60.5644 220.864 60.121 224.505C59.9875 225.601 60.8954 226.5 62 226.5L76.5 226.5H91Z"/>
</mask>
<path d="M91 226.5C92.1046 226.5 93.0125 225.601 92.879 224.505C92.4356 220.864 90.7876 217.453 88.1673 214.833C85.0729 211.738 80.8761 210 76.5 210C72.1239 210 67.9271 211.738 64.8327 214.833C62.2124 217.453 60.5644 220.864 60.121 224.505C59.9875 225.601 60.8954 226.5 62 226.5L76.5 226.5H91Z" fill="#3F6975" stroke="black" stroke-width="2" mask="url(#path-4-inside-2_801_247)"/>
<path d="M26 224H59V230C59 231.105 58.1046 232 57 232H28C26.8954 232 26 231.105 26 230V224Z" fill="black" stroke="black" stroke-linejoin="round"/>
<path d="M60.4336 224H92.4336V230C92.4336 231.105 91.5382 232 90.4336 232H62.4336C61.329 232 60.4336 231.105 60.4336 230V224Z" fill="black" stroke="black" stroke-linejoin="round"/>
<path d="M23 117C23 107.059 31.0589 99 41 99H75C84.9411 99 93 107.059 93 117V155C93 159.418 89.4183 163 85 163H31C26.5817 163 23 159.418 23 155V117Z" fill="#3F6975"/>
<path d="M41 99.5H75V98.5H41V99.5ZM92.5 117V155H93.5V117H92.5ZM85 162.5H31V163.5H85V162.5ZM23.5 155V117H22.5V155H23.5ZM31 162.5C26.8579 162.5 23.5 159.142 23.5 155H22.5C22.5 159.694 26.3056 163.5 31 163.5V162.5ZM92.5 155C92.5 159.142 89.1421 162.5 85 162.5V163.5C89.6944 163.5 93.5 159.694 93.5 155H92.5ZM75 99.5C84.665 99.5 92.5 107.335 92.5 117H93.5C93.5 106.783 85.2173 98.5 75 98.5V99.5ZM41 98.5C30.7827 98.5 22.5 106.783 22.5 117H23.5C23.5 107.335 31.335 99.5 41 99.5V98.5Z" fill="black"/>
<path d="M93.6323 109.074C90.822 96.7429 75.4042 92.0604 67.0746 91.1061C66.4939 91.0396 66 91.5009 66 92.0854V201.952C66 202.523 66.4766 202.978 67.0465 202.951L97.9896 201.511C98.5458 201.485 98.9737 201.01 98.9415 200.454L93.655 109.235C93.6518 109.181 93.6443 109.127 93.6323 109.074Z" fill="#F6F2E9" stroke="black" stroke-linecap="round"/>
<path d="M23.5309 109.072C26.4316 96.7257 42.3541 92.0478 50.9275 91.1023C51.5075 91.0383 52 91.4992 52 92.0828V201.954C52 202.524 51.5243 202.979 50.9549 202.953L19.0136 201.51C18.4562 201.485 18.0272 201.008 18.0605 200.451L23.5069 109.237C23.5102 109.182 23.5182 109.126 23.5309 109.072Z" fill="#F6F2E9" stroke="black" stroke-linecap="round"/>
<path d="M48.5136 90.9922L51.7586 90.2745C52.3909 90.1347 52.9874 90.6236 52.9743 91.2711L51.968 141.085C51.9471 142.121 50.5593 142.446 50.0811 141.527L38.4042 119.093C38.1728 118.649 38.3063 118.102 38.7164 117.814L47.0866 111.932C47.5999 111.572 47.6582 110.833 47.208 110.396L41.329 104.693C41.0039 104.378 40.9314 103.883 41.1522 103.488L47.8564 91.4811C47.9956 91.2317 48.2348 91.0538 48.5136 90.9922Z" fill="#F6F2E9" stroke="black" stroke-linecap="round"/>
<path d="M69.1515 90.9837L66.2547 90.2973C65.619 90.1467 65.012 90.6361 65.0243 91.2892L65.9585 140.834C65.9783 141.885 67.3984 142.198 67.8578 141.252L78.6402 119.057C78.8492 118.627 78.7243 118.109 78.3422 117.822L70.4982 111.916C70.0188 111.556 69.9629 110.857 70.379 110.424L75.909 104.676C76.2068 104.367 76.2737 103.902 76.0752 103.521L69.8077 91.4946C69.6735 91.2371 69.434 91.0506 69.1515 90.9837Z" fill="#F6F2E9" stroke="black" stroke-linecap="round"/>
<path d="M5.03246 157.06C4.21556 135.677 19.0039 112.857 28.114 102.138C28.7265 101.417 29.8667 101.906 29.8007 102.849L26.0081 157.07C25.9714 157.594 25.5357 158 25.0105 158H6.0204C5.49136 158 5.05266 157.589 5.03246 157.06Z" fill="#F6F2E9" stroke="black" stroke-linecap="round" stroke-linejoin="round"/>
<path d="M112.968 157.06C113.784 135.677 98.9961 112.857 89.886 102.138C89.2735 101.417 88.1333 101.906 88.1993 102.849L91.9919 157.07C92.0286 157.594 92.4643 158 92.9895 158H111.98C112.509 158 112.947 157.589 112.968 157.06Z" fill="#F6F2E9" stroke="black" stroke-linecap="round" stroke-linejoin="round"/>
<circle cx="17" cy="162" r="11.5" fill="#F6F2E9" stroke="black"/>
<circle cx="103" cy="162" r="11.5" fill="#F6F2E9" stroke="black"/>
<path d="M52.7385 7.55984C56.1067 3.89096 61.8933 3.89096 65.2615 7.55984L81.328 25.0606C82.1865 25.9958 83.2238 26.7494 84.3785 27.277L105.988 37.1491C110.518 39.2187 112.306 44.7221 109.857 49.0592L98.178 69.7473C97.5539 70.8529 97.1577 72.0722 97.0128 73.3335L94.3014 96.9355C93.733 101.883 89.0515 105.285 84.1701 104.296L60.8853 99.5816C59.6411 99.3297 58.3589 99.3297 57.1147 99.5816L33.8299 104.296C28.9485 105.285 24.267 101.883 23.6986 96.9355L20.9872 73.3335C20.8423 72.0722 20.4461 70.8529 19.822 69.7473L8.14259 49.0592C5.69411 44.7221 7.48228 39.2187 12.0124 37.1491L33.6215 27.277C34.7762 26.7494 35.8135 25.9958 36.672 25.0606L52.7385 7.55984Z" fill="#F6F2E9" stroke="black"/>
<rect x="30" y="55" width="24" height="13" rx="6.5" fill="#F6F2E9" stroke="black" stroke-width="2"/>
<rect x="64" y="55" width="23" height="13" rx="6.5" fill="#F6F2E9" stroke="black" stroke-width="2"/>
<line x1="53" y1="58" x2="65" y2="58" stroke="black" stroke-width="2"/>
</svg>
