<svg width="920" height="1710" viewBox="0 0 920 1710" fill="none" xmlns="http://www.w3.org/2000/svg">
<path fill-rule="evenodd" clip-rule="evenodd" d="M569.829 224.833V14C569.829 6.26801 563.561 0 555.829 0H418.829C411.097 0 404.829 6.26801 404.829 14V224.833C404.829 291.296 351.045 345 284.915 345C127.854 345 0.630988 472.139 0.00233985 628.999C0.00233727 628.999 0.00181421 629 0.00116992 629C0.000523788 629 -2.59339e-09 629.001 0 629.001C7.79266e-07 629.195 0.000195507 629.389 0.000584 629.583C0.000195507 629.777 7.7922e-07 629.971 0 630.166C-2.5935e-09 630.166 0.000523787 630.167 0.00116992 630.167C0.00181421 630.167 0.00233729 630.167 0.00233988 630.168C0.630991 787.028 127.854 914.167 284.915 914.167H635.085C701.216 914.167 755 967.87 755 1034.33C755 1100.8 701.216 1154.5 635.085 1154.5H619.915C462.464 1154.5 335 1282.27 335 1439.67V1695.17C335 1702.9 341.268 1709.17 349 1709.17H486C493.732 1709.17 500 1702.9 500 1695.17V1439.67C500 1373.2 553.784 1319.5 619.915 1319.5H635.085C792.536 1319.5 920 1191.73 920 1034.33C920 876.937 792.536 749.167 635.085 749.167H284.915C218.978 749.167 165.315 695.777 165.001 629.583C165.315 563.39 218.978 510 284.915 510C442.366 510 569.829 382.23 569.829 224.833Z" fill="#FCEECA"/>
</svg>
