<svg width="111" height="222" viewBox="0 0 111 222" fill="none" xmlns="http://www.w3.org/2000/svg">
<rect x="25.4531" y="119.5" width="26" height="77" rx="1.5" fill="#3F6975" stroke="black"/>
<rect x="58.4531" y="119.5" width="26" height="77" rx="1.5" fill="#3F6975" stroke="black"/>
<mask id="path-3-inside-1_801_202" fill="white">
<path d="M53.3711 205.5C54.4757 205.5 55.3836 204.601 55.2501 203.505C54.8067 199.864 53.1587 196.453 50.5384 193.833C47.444 190.738 43.2472 189 38.8711 189C34.495 189 30.2982 190.738 27.2038 193.833C24.5835 196.453 22.9355 199.864 22.4921 203.505C22.3586 204.601 23.2665 205.5 24.3711 205.5L38.8711 205.5H53.3711Z"/>
</mask>
<path d="M53.3711 205.5C54.4757 205.5 55.3836 204.601 55.2501 203.505C54.8067 199.864 53.1587 196.453 50.5384 193.833C47.444 190.738 43.2472 189 38.8711 189C34.495 189 30.2982 190.738 27.2038 193.833C24.5835 196.453 22.9355 199.864 22.4921 203.505C22.3586 204.601 23.2665 205.5 24.3711 205.5L38.8711 205.5H53.3711Z" fill="#F6F2E9" stroke="black" stroke-width="2" mask="url(#path-3-inside-1_801_202)"/>
<mask id="path-4-inside-2_801_202" fill="white">
<path d="M87.3711 205.5C88.4757 205.5 89.3836 204.601 89.2501 203.505C88.8067 199.864 87.1587 196.453 84.5384 193.833C81.444 190.738 77.2472 189 72.8711 189C68.495 189 64.2982 190.738 61.2038 193.833C58.5835 196.453 56.9355 199.864 56.4921 203.505C56.3586 204.601 57.2665 205.5 58.3711 205.5L72.8711 205.5H87.3711Z"/>
</mask>
<path d="M87.3711 205.5C88.4757 205.5 89.3836 204.601 89.2501 203.505C88.8067 199.864 87.1587 196.453 84.5384 193.833C81.444 190.738 77.2472 189 72.8711 189C68.495 189 64.2982 190.738 61.2038 193.833C58.5835 196.453 56.9355 199.864 56.4921 203.505C56.3586 204.601 57.2665 205.5 58.3711 205.5L72.8711 205.5H87.3711Z" fill="#F6F2E9" stroke="black" stroke-width="2" mask="url(#path-4-inside-2_801_202)"/>
<path d="M22.3711 203H55.3711V209C55.3711 210.105 54.4757 211 53.3711 211H24.3711C23.2665 211 22.3711 210.105 22.3711 209V203Z" fill="#F6F2E9" stroke="black" stroke-linejoin="round"/>
<path d="M56.8047 203H88.8047V209C88.8047 210.105 87.9093 211 86.8047 211H58.8047C57.7001 211 56.8047 210.105 56.8047 209V203Z" fill="#F6F2E9" stroke="black" stroke-linejoin="round"/>
<rect x="4.45312" y="0.5" width="102" height="87" rx="23.5" fill="#F6F2E9" stroke="black"/>
<path d="M16.9531 100C16.9531 90.0589 25.012 82 34.9531 82H75.9531C85.8942 82 93.9531 90.0589 93.9531 100V138C93.9531 147.941 85.8942 156 75.9531 156H34.9531C25.012 156 16.9531 147.941 16.9531 138V100Z" fill="#3F6975"/>
<path d="M34.9531 82.5H75.9531V81.5H34.9531V82.5ZM93.4531 100V138H94.4531V100H93.4531ZM75.9531 155.5H34.9531V156.5H75.9531V155.5ZM17.4531 138V100H16.4531V138H17.4531ZM34.9531 155.5C25.2881 155.5 17.4531 147.665 17.4531 138H16.4531C16.4531 148.217 24.7359 156.5 34.9531 156.5V155.5ZM93.4531 138C93.4531 147.665 85.6181 155.5 75.9531 155.5V156.5C86.1704 156.5 94.4531 148.217 94.4531 138H93.4531ZM75.9531 82.5C85.6181 82.5 93.4531 90.335 93.4531 100H94.4531C94.4531 89.7827 86.1704 81.5 75.9531 81.5V82.5ZM34.9531 81.5C24.7359 81.5 16.4531 89.7827 16.4531 100H17.4531C17.4531 90.335 25.2881 82.5 34.9531 82.5V81.5Z" fill="black"/>
<ellipse cx="42.9531" cy="54.5" rx="4" ry="2.5" fill="black"/>
<ellipse cx="66.9531" cy="54.5" rx="4" ry="2.5" fill="black"/>
<path d="M57.9531 97H52.3531L45.9531 153H65.9531L57.9531 97Z" fill="#F6F2E9" stroke="black"/>
<path d="M58.8456 89H52.0606C51.4681 89 51.0055 89.5123 51.0658 90.1017L51.6794 96.1017C51.7316 96.612 52.1614 97 52.6743 97H58.232C58.7449 97 59.1746 96.612 59.2268 96.1017L59.8404 90.1017C59.9007 89.5123 59.4382 89 58.8456 89Z" fill="#F6F2E9" stroke="black"/>
<path d="M69.1716 85.4163L65.6193 81.3476C64.8277 80.4409 63.4204 80.4338 62.6196 81.3323L55.998 88.7621C55.349 89.4903 55.32 90.5805 55.9293 91.3422L61.2123 97.9459C62.128 99.0906 63.9235 98.8937 64.5694 97.5777L69.4604 87.6129C69.8156 86.8894 69.7017 86.0234 69.1716 85.4163Z" fill="#F6F2E9" stroke="black" stroke-linecap="round"/>
<path d="M41.387 85.4163L44.9393 81.3476C45.7309 80.4409 47.1382 80.4338 47.939 81.3323L54.5606 88.7621C55.2096 89.4903 55.2386 90.5805 54.6293 91.3422L49.3463 97.9459C48.4305 99.0906 46.6351 98.8937 45.9892 97.5777L41.0982 87.6129C40.743 86.8894 40.8569 86.0234 41.387 85.4163Z" fill="#F6F2E9" stroke="black" stroke-linecap="round"/>
<path d="M0.979754 131.07C0.241538 113.018 15.0225 93.7837 24.1065 84.767C24.7527 84.1256 25.8171 84.6431 25.742 85.5505L21.9721 131.083C21.9292 131.601 21.4958 132 20.9755 132H1.96323C1.43841 132 1.0012 131.595 0.979754 131.07Z" fill="#3F6975" stroke="black" stroke-linecap="round" stroke-linejoin="round"/>
<path d="M108.926 131.07C109.665 113.018 94.8838 93.7837 85.7998 84.767C85.1536 84.1256 84.0892 84.6431 84.1643 85.5505L87.9341 131.083C87.9771 131.601 88.4104 132 88.9307 132H107.943C108.468 132 108.905 131.595 108.926 131.07Z" fill="#3F6975" stroke="black" stroke-linecap="round" stroke-linejoin="round"/>
<circle cx="12.9531" cy="132" r="11.5" fill="#F6F2E9" stroke="black"/>
<circle cx="98.9531" cy="132" r="11.5" fill="#F6F2E9" stroke="black"/>
</svg>
