<svg width="463" height="264" viewBox="0 0 463 264" fill="none" xmlns="http://www.w3.org/2000/svg">
<path d="M68.272 37.0479C75.0192 75.4125 80.0396 180.143 81.8271 232.166H33.4509C30.3609 198.913 49.6517 86.051 63.4237 36.8773C64.2184 34.04 67.7616 34.146 68.272 37.0479Z" fill="#F6F2E9" stroke="#366574" stroke-width="2" stroke-linecap="round"/>
<path d="M134.078 31.7317C124.129 55.3644 116.696 128.755 114.1 164.664H182.293C186.756 141.835 158.093 63.0023 138.618 31.4643C137.48 29.6219 134.918 29.736 134.078 31.7317Z" fill="#F6F2E9" stroke="#366574" stroke-width="2" stroke-linecap="round"/>
<path d="M189.238 33.0813C179.289 56.714 171.856 130.105 169.26 166.013H237.453C241.917 143.184 213.253 64.3519 193.778 32.8139C192.64 30.9715 190.078 31.0856 189.238 33.0813Z" fill="#F6F2E9" stroke="#366574" stroke-width="2" stroke-linecap="round"/>
<path d="M100.71 30.3026C113.262 50.0976 136.439 114.546 148.724 164.326H67.1559C63.9774 141.344 83.8158 61.4628 97.5094 30.5982C98.1158 29.2314 99.9096 29.0397 100.71 30.3026Z" fill="#F6F2E9" stroke="#366574" stroke-width="2" stroke-linecap="round"/>
<path d="M131.039 62.2902C139.804 78.502 151.035 105.552 157.679 127.555H100.994C99.1772 116.822 108.178 84.2366 116.726 63.2502C119.503 56.4306 127.537 55.8129 131.039 62.2902Z" fill="#F6F2E9" stroke="#366574" stroke-width="2" stroke-linecap="round"/>
<path d="M33.9438 83.3862C40.0944 121.322 50.1371 194.122 50.1371 234.865H16.1016C18.6395 173.922 24.2266 112.375 30.4588 83.2608C30.9026 81.1876 33.6045 81.2933 33.9438 83.3862Z" fill="#F6F2E9" stroke="#366574" stroke-width="2" stroke-linecap="round"/>
<path d="M223.43 20.9523C232.079 58.2184 246.979 133.735 246.979 175.574H198.734C202.445 112.48 210.754 48.7415 219.922 20.7462C220.524 18.9062 222.993 19.0662 223.43 20.9523Z" fill="#F6F2E9" stroke="#366574" stroke-width="2" stroke-linecap="round"/>
<path d="M236.844 40.5008C226.895 64.1334 219.462 137.524 216.866 173.433H285.059C289.522 150.604 260.858 71.7714 241.383 40.2334C240.246 38.3909 237.684 38.505 236.844 40.5008Z" fill="#F6F2E9" stroke="#366574" stroke-width="2" stroke-linecap="round"/>
<path d="M309.747 55.0981C318.47 79.9574 333.569 130.571 333.569 158.588H284.863C288.628 116.211 297.079 73.3996 306.388 54.83C307.134 53.3413 309.195 53.5267 309.747 55.0981Z" fill="#F6F2E9" stroke="#366574" stroke-width="2" stroke-linecap="round"/>
<path d="M33.6367 211.27C33.6367 181.447 57.8133 157.27 87.6367 157.27H406.032C435.855 157.27 460.032 181.447 460.032 211.27V262.138H33.6367V211.27Z" fill="#F6C0AB" stroke="#366574" stroke-width="2" stroke-linecap="round" stroke-linejoin="round"/>
<path d="M392.641 222.282V67.6679C392.641 66.9127 393.453 66.4365 394.11 66.8088C444.487 95.3599 444.541 181.691 438.095 222.464C438.019 222.948 437.604 223.282 437.114 223.282H393.641C393.088 223.282 392.641 222.834 392.641 222.282Z" fill="#366574" stroke="#366574" stroke-width="2" stroke-linecap="round" stroke-linejoin="round"/>
<path d="M392.641 208.591H416.838" stroke="#366574" stroke-width="2" stroke-linecap="round" stroke-linejoin="round"/>
<path d="M392.641 216.369H416.838" stroke="#366574" stroke-width="2" stroke-linecap="round" stroke-linejoin="round"/>
<path d="M400.418 103.161H419.43" stroke="#F6F2E9" stroke-width="2" stroke-linecap="round" stroke-linejoin="round"/>
<path d="M400.418 113.531H419.43" stroke="#F6F2E9" stroke-width="2" stroke-linecap="round" stroke-linejoin="round"/>
<path d="M400.418 123.902H419.43" stroke="#F6F2E9" stroke-width="2" stroke-linecap="round" stroke-linejoin="round"/>
<path d="M400.418 132.542H419.43" stroke="#F6F2E9" stroke-width="2" stroke-linecap="round" stroke-linejoin="round"/>
<path d="M400.418 142.913H419.43" stroke="#F6F2E9" stroke-width="2" stroke-linecap="round" stroke-linejoin="round"/>
<path d="M400.418 153.283H419.43" stroke="#F6F2E9" stroke-width="2" stroke-linecap="round" stroke-linejoin="round"/>
<path d="M400.418 162.789H419.43" stroke="#F6F2E9" stroke-width="2" stroke-linecap="round" stroke-linejoin="round"/>
<path d="M400.418 174.023H419.43" stroke="#F6F2E9" stroke-width="2" stroke-linecap="round" stroke-linejoin="round"/>
<path d="M400.418 184.394H419.43" stroke="#F6F2E9" stroke-width="2" stroke-linecap="round" stroke-linejoin="round"/>
<path d="M400.418 81.5562L400.418 191.308" stroke="#F6F2E9" stroke-width="2" stroke-linecap="round" stroke-linejoin="round"/>
<rect x="384" y="189.578" width="40.6167" height="34.5674" rx="4" fill="#F6F2E9" stroke="#366574" stroke-width="2" stroke-linecap="round" stroke-linejoin="round"/>
<path d="M392.641 199.085H416.838" stroke="#366574" stroke-width="2" stroke-linecap="round" stroke-linejoin="round"/>
<rect x="124.086" y="174.678" width="14.7353" height="31.0218" fill="#F6F2E9" stroke="#366574" stroke-width="2" stroke-linecap="round" stroke-linejoin="round"/>
<path d="M111.68 174.43V174.43C119.489 156.813 144.244 156.146 152.992 173.316L153.559 174.43V205.701H111.68V174.43Z" fill="#F6F2E9" stroke="#366574" stroke-width="2" stroke-linecap="round" stroke-linejoin="round"/>
<path d="M283.168 88.9555L292.562 86.6069L301.956 88.9555V100.698H292.562H283.168V88.9555Z" fill="#366574"/>
<path d="M292.562 86.6069L283.168 88.9555V100.698H292.562M292.562 86.6069L301.956 88.9555V100.698H292.562M292.562 86.6069V100.698" stroke="#366574" stroke-width="2" stroke-linecap="round" stroke-linejoin="round"/>
<path d="M375.055 125.536L292.607 93.8477L208.398 125.536V209.451H375.055V125.536Z" fill="#F6F2E9" stroke="#366574" stroke-width="2" stroke-linecap="round" stroke-linejoin="round"/>
<rect x="238.363" y="107.015" width="7.84746" height="88.2839" rx="1" fill="#F6F2E9" stroke="#366574" stroke-width="2" stroke-linecap="round" stroke-linejoin="round"/>
<rect x="271.719" y="92.3013" width="8.82839" height="119.674" rx="1" fill="#F6F2E9" stroke="#366574" stroke-width="2" stroke-linecap="round" stroke-linejoin="round"/>
<rect x="304.086" y="92.3013" width="7.84746" height="119.674" rx="1" fill="#F6F2E9" stroke="#366574" stroke-width="2" stroke-linecap="round" stroke-linejoin="round"/>
<rect x="375.695" y="121.729" width="7.84746" height="88.2839" rx="1" fill="#F6F2E9" stroke="#366574" stroke-width="2" stroke-linecap="round" stroke-linejoin="round"/>
<rect x="338.422" y="107.015" width="7.84746" height="102.998" rx="1" fill="#F6F2E9" stroke="#366574" stroke-width="2" stroke-linecap="round" stroke-linejoin="round"/>
<path d="M268.759 157.961H259.37H249.98V129.794V123.814C249.98 121.597 250.987 119.499 252.717 118.112C256.604 114.994 262.135 114.994 266.022 118.112C267.752 119.499 268.759 121.597 268.759 123.814V129.794V157.961Z" fill="#F6F2E9"/>
<path d="M249.98 129.794V157.961H259.37H268.759V129.794M249.98 129.794V123.814C249.98 121.597 250.987 119.499 252.717 118.112V118.112C256.604 114.994 262.135 114.994 266.022 118.112V118.112C267.752 119.499 268.759 121.597 268.759 123.814V129.794M249.98 129.794H268.759" stroke="#366574" stroke-width="2" stroke-linecap="round" stroke-linejoin="round"/>
<circle cx="292.387" cy="121.326" r="10.5627" fill="#F6F2E9" stroke="#366574" stroke-width="2" stroke-linecap="round" stroke-linejoin="round"/>
<circle cx="292.435" cy="121.372" r="3.2275" fill="#366574" stroke="#366574" stroke-width="2" stroke-linecap="round" stroke-linejoin="round"/>
<path d="M334.653 157.812H325.264H315.875V129.644V123.665C315.875 121.448 316.882 119.35 318.611 117.963C322.499 114.845 328.03 114.845 331.917 117.963C333.647 119.35 334.653 121.448 334.653 123.665V129.644V157.812Z" fill="#F6F2E9"/>
<path d="M315.875 129.644V157.812H325.264H334.653V129.644M315.875 129.644V123.665C315.875 121.448 316.882 119.35 318.611 117.963V117.963C322.499 114.845 328.03 114.845 331.917 117.963V117.963C333.647 119.35 334.653 121.448 334.653 123.665V129.644M315.875 129.644H334.653" stroke="#366574" stroke-width="2" stroke-linecap="round" stroke-linejoin="round"/>
<path d="M370.45 171.894H361.061H351.672V143.727V137.748C351.672 135.53 352.678 133.433 354.408 132.045C358.295 128.927 363.827 128.927 367.714 132.045C369.444 133.433 370.45 135.53 370.45 137.748V143.727V171.894Z" fill="#F6F2E9"/>
<path d="M351.672 143.727V171.894H361.061H370.45V143.727M351.672 143.727V137.748C351.672 135.53 352.678 133.433 354.408 132.045V132.045C358.295 128.927 363.827 128.927 367.714 132.045V132.045C369.444 133.433 370.45 135.53 370.45 137.748V143.727M351.672 143.727H370.45" stroke="#366574" stroke-width="2" stroke-linecap="round" stroke-linejoin="round"/>
<path d="M233.716 171.894H224.327H214.938V143.727V137.748C214.938 135.53 215.944 133.433 217.674 132.045C221.561 128.927 227.092 128.927 230.979 132.045C232.709 133.433 233.716 135.53 233.716 137.748V143.727V171.894Z" fill="#F6F2E9"/>
<path d="M214.938 143.727V171.894H224.327H233.716V143.727M214.938 143.727V137.748C214.938 135.53 215.944 133.433 217.674 132.045V132.045C221.561 128.927 227.092 128.927 230.979 132.045V132.045C232.709 133.433 233.716 135.53 233.716 137.748V143.727M214.938 143.727H233.716" stroke="#366574" stroke-width="2" stroke-linecap="round" stroke-linejoin="round"/>
<rect x="201.09" y="121.729" width="7.84746" height="88.2839" rx="1" fill="#F6F2E9" stroke="#366574" stroke-width="2" stroke-linecap="round" stroke-linejoin="round"/>
<path d="M182.544 150.352V164.598H162.391V150.352V130.894C177.679 130.894 182.196 143.866 182.544 150.352Z" fill="#F6F2E9"/>
<path d="M182.544 150.352V164.598H162.391V150.352M182.544 150.352H162.391M182.544 150.352C182.196 143.866 177.679 130.894 162.391 130.894V150.352" stroke="#366574" stroke-width="2" stroke-linecap="round" stroke-linejoin="round"/>
<path d="M162.391 166.445C162.391 165.34 163.286 164.445 164.391 164.445H178.159H191.928C193.033 164.445 193.928 165.34 193.928 166.445V230.217C193.928 231.322 193.033 232.217 191.928 232.217H178.159H164.391C163.286 232.217 162.391 231.322 162.391 230.217V166.445Z" fill="#366574"/>
<path d="M178.159 164.445H164.391C163.286 164.445 162.391 165.34 162.391 166.445V230.217C162.391 231.322 163.286 232.217 164.391 232.217H178.159M178.159 164.445H191.928C193.033 164.445 193.928 165.34 193.928 166.445V230.217C193.928 231.322 193.033 232.217 191.928 232.217H178.159M178.159 164.445V232.217" stroke="#366574" stroke-width="2" stroke-linecap="round" stroke-linejoin="round"/>
<rect x="63.0781" y="119.943" width="100.069" height="111.883" rx="9" fill="#F6F2E9" stroke="#366574" stroke-width="2" stroke-linecap="round" stroke-linejoin="round"/>
<rect x="85.3164" y="106.738" width="56.984" height="124.392" rx="5" fill="#F6F2E9" stroke="#366574" stroke-width="2" stroke-linecap="round" stroke-linejoin="round"/>
<path d="M69.332 174.841L113.46 157.12L157.588 174.841V231.825H69.332V174.841Z" fill="#F6F2E9" stroke="#366574" stroke-width="2" stroke-linecap="round" stroke-linejoin="round"/>
<rect x="193.723" y="180.4" width="4.86449" height="51.4246" fill="#F6F2E9" stroke="#366574" stroke-width="2" stroke-linecap="round" stroke-linejoin="round"/>
<rect x="170.098" y="152.014" width="3.47463" height="6.94927" fill="#366574" stroke="#366574" stroke-width="2" stroke-linecap="round" stroke-linejoin="round"/>
<path d="M85.3438 143.302L-nan -nanL85.3438 143.302C87.9861 108.004 139.794 107.996 142.328 143.302L-nan -nanL142.328 143.302V228.154C142.328 228.695 141.889 229.134 141.347 229.134H86.3247C85.7829 229.134 85.3438 228.695 85.3438 228.154V143.302Z" fill="#F6F2E9" stroke="#366574" stroke-width="2" stroke-linecap="round" stroke-linejoin="round"/>
<circle cx="113.537" cy="146.979" r="18.4156" fill="#366574" stroke="#366574" stroke-width="2" stroke-linecap="round" stroke-linejoin="round"/>
<path d="M107.201 133.49L113.012 138.816C113.372 139.146 113.916 139.168 114.302 138.868L120.966 133.685C121.689 133.123 122.724 133.746 122.565 134.648L121.084 143.038C120.997 143.533 121.291 144.016 121.771 144.166L129.044 146.439C129.975 146.73 129.981 148.046 129.053 148.345L122.157 150.57C121.661 150.73 121.371 151.244 121.49 151.751L123.485 160.229C123.692 161.108 122.719 161.789 121.963 161.294L114.592 156.464C114.228 156.226 113.753 156.25 113.415 156.523L106.866 161.813C106.167 162.377 105.137 161.806 105.245 160.915L106.24 152.706C106.297 152.234 106.014 151.788 105.563 151.637L98.2044 149.184C97.3592 148.903 97.2766 147.74 98.0734 147.341L105.727 143.514C106.096 143.33 106.313 142.939 106.276 142.529L105.53 134.317C105.447 133.407 106.528 132.872 107.201 133.49Z" fill="#F6F2E9"/>
<circle cx="114" cy="148" r="6" fill="#F6F2E9" stroke="#366574" stroke-width="2" stroke-linecap="round" stroke-linejoin="round"/>
<path d="M81.1992 255.223L68.2046 235.435C67.768 234.77 68.245 233.886 69.0405 233.886H69.3757C69.6556 233.886 69.9227 234.004 70.1121 234.21L86.876 252.454C87.3555 252.976 87.1551 253.817 86.4918 254.066L82.3871 255.61C81.9494 255.775 81.4559 255.614 81.1992 255.223Z" fill="#F6F2E9" stroke="#366574" stroke-width="2" stroke-linecap="round" stroke-linejoin="round"/>
<path d="M75.8457 225.665C38.5068 234.839 18.5223 228.149 8.59956 221.509C5.99292 219.765 0 222.07 0 225.207V260C0 261.657 1.34316 263 3.00001 263H460C461.657 263 463 261.657 463 260V246.554C463 245.687 462.648 244.879 461.987 244.317C426.952 214.518 339.981 176 263.775 176C167.585 176 152.523 206.827 75.8457 225.665Z" fill="#B4D2D4"/>
<path d="M140.095 239.452C137.25 239.513 135.926 235.95 138.121 234.139L174.153 204.408C175.745 203.095 178.156 203.743 178.875 205.677L189.546 234.402C190.265 236.336 188.861 238.402 186.799 238.446L140.095 239.452Z" fill="#F6F2E9"/>
<path fill-rule="evenodd" clip-rule="evenodd" d="M140.117 240.452C136.323 240.534 134.558 235.782 137.485 233.367L173.517 203.637C175.639 201.886 178.854 202.75 179.812 205.329L190.484 234.054C191.442 236.633 189.571 239.387 186.82 239.446L140.117 240.452ZM138.758 234.91C137.294 236.117 138.177 238.493 140.073 238.452L186.777 237.447C188.152 237.417 189.088 236.04 188.609 234.75L177.937 206.026C177.458 204.736 175.851 204.304 174.79 205.179L138.758 234.91Z" fill="#366574"/>
<path d="M192.802 251.385C190.668 251.544 189.058 249.482 189.731 247.451L197.617 223.621C198.37 221.345 201.355 220.828 202.83 222.717L219.975 244.679C221.45 246.568 220.223 249.338 217.833 249.517L192.802 251.385Z" fill="#F6F2E9"/>
<path fill-rule="evenodd" clip-rule="evenodd" d="M192.876 252.382C190.031 252.594 187.885 249.845 188.781 247.136L196.668 223.306C197.672 220.273 201.652 219.583 203.618 222.102L220.763 244.064C222.73 246.582 221.094 250.276 217.908 250.514L192.876 252.382ZM190.68 247.765C190.232 249.119 191.305 250.494 192.728 250.388L217.759 248.519C219.352 248.401 220.17 246.554 219.187 245.294L202.042 223.332C201.058 222.073 199.068 222.418 198.566 223.935L190.68 247.765Z" fill="#366574"/>
<path d="M243.696 232.911C241.562 233.07 239.952 231.008 240.624 228.977L244.374 217.647C245.127 215.372 248.112 214.854 249.587 216.743L257.738 227.185C259.213 229.074 257.987 231.845 255.597 232.023L243.696 232.911Z" fill="#F6F2E9"/>
<path fill-rule="evenodd" clip-rule="evenodd" d="M243.77 233.908C240.925 234.121 238.778 231.371 239.675 228.663L243.425 217.333C244.428 214.299 248.409 213.609 250.375 216.128L258.527 226.57C260.493 229.089 258.858 232.782 255.671 233.02L243.77 233.908ZM241.574 229.291C241.125 230.645 242.199 232.02 243.621 231.914L255.523 231.026C257.116 230.907 257.933 229.06 256.95 227.801L248.798 217.359C247.815 216.099 245.825 216.444 245.323 217.961L241.574 229.291Z" fill="#366574"/>
<path d="M57.3168 253.511C55.1829 253.67 53.5732 251.608 54.2455 249.576L57.9951 238.246C58.7481 235.971 61.7332 235.454 63.2079 237.343L71.3597 247.785C72.8344 249.674 71.6081 252.444 69.2182 252.622L57.3168 253.511Z" fill="#F6F2E9"/>
<path fill-rule="evenodd" clip-rule="evenodd" d="M57.3912 254.508C54.546 254.72 52.3997 251.971 53.2961 249.262L57.0458 237.932C58.0497 234.898 62.0299 234.209 63.9962 236.727L72.1479 247.169C74.1143 249.688 72.4792 253.382 69.2926 253.62L57.3912 254.508ZM55.1948 249.891C54.7466 251.245 55.8198 252.62 57.2424 252.513L69.1438 251.625C70.7371 251.506 71.5546 249.659 70.5714 248.4L62.4197 237.958C61.4365 236.699 59.4465 237.044 58.9445 238.56L55.1948 249.891Z" fill="#366574"/>
<path d="M379.062 230.95C376.928 231.109 375.318 229.047 375.991 227.015L379.74 215.685C380.493 213.41 383.478 212.893 384.953 214.782L393.105 225.224C394.58 227.113 393.353 229.883 390.963 230.062L379.062 230.95Z" fill="#F6F2E9"/>
<path fill-rule="evenodd" clip-rule="evenodd" d="M379.136 231.947C376.291 232.159 374.145 229.41 375.041 226.701L378.791 215.371C379.795 212.338 383.775 211.648 385.741 214.166L393.893 224.608C395.859 227.127 394.224 230.821 391.038 231.059L379.136 231.947ZM376.94 227.33C376.492 228.684 377.565 230.059 378.988 229.952L390.889 229.064C392.482 228.945 393.3 227.099 392.317 225.839L384.165 215.397C383.182 214.138 381.192 214.483 380.69 216L376.94 227.33Z" fill="#366574"/>
<path d="M311.758 253.164C309.992 254.372 307.565 253.397 307.127 251.302L304.683 239.621C304.193 237.275 306.515 235.329 308.739 236.223L321.03 241.163C323.254 242.057 323.584 245.069 321.606 246.422L311.758 253.164Z" fill="#F6F2E9"/>
<path fill-rule="evenodd" clip-rule="evenodd" d="M312.323 253.989C309.968 255.6 306.732 254.3 306.148 251.507L303.705 239.825C303.05 236.697 306.147 234.103 309.112 235.295L321.403 240.235C324.368 241.427 324.808 245.442 322.171 247.247L312.323 253.989ZM308.106 251.098C308.398 252.494 310.016 253.144 311.193 252.338L321.041 245.597C322.359 244.695 322.14 242.687 320.657 242.091L308.366 237.151C306.883 236.555 305.335 237.852 305.662 239.416L308.106 251.098Z" fill="#366574"/>
<path d="M103.708 257.378C101.574 257.537 99.964 255.475 100.636 253.443L108.523 229.613C109.276 227.338 112.261 226.821 113.736 228.71L130.881 250.672C132.355 252.561 131.129 255.331 128.739 255.51L103.708 257.378Z" fill="#F6F2E9"/>
<path fill-rule="evenodd" clip-rule="evenodd" d="M103.782 258.375C100.937 258.587 98.7906 255.838 99.687 253.129L107.573 229.299C108.577 226.266 112.557 225.576 114.524 228.095L131.669 250.056C133.635 252.575 132 256.269 128.814 256.507L103.782 258.375ZM101.586 253.758C101.138 255.112 102.211 256.487 103.633 256.38L128.665 254.512C130.258 254.393 131.076 252.547 130.092 251.287L112.947 229.325C111.964 228.066 109.974 228.411 109.472 229.928L101.586 253.758Z" fill="#366574"/>
<path d="M273.657 192.844C275.792 192.691 277.396 194.757 276.718 196.787L268.768 220.595C268.009 222.869 265.023 223.378 263.553 221.485L246.467 199.477C244.997 197.584 246.231 194.817 248.621 194.645L273.657 192.844Z" fill="#F6F2E9"/>
<path fill-rule="evenodd" clip-rule="evenodd" d="M273.586 191.847C276.431 191.642 278.57 194.397 277.667 197.103L269.717 220.912C268.705 223.943 264.723 224.622 262.763 222.098L245.677 200.091C243.717 197.567 245.362 193.877 248.549 193.648L273.586 191.847ZM275.77 196.47C276.221 195.117 275.152 193.739 273.729 193.842L248.693 195.643C247.099 195.757 246.277 197.602 247.257 198.864L264.343 220.872C265.323 222.134 267.314 221.794 267.82 220.279L275.77 196.47Z" fill="#366574"/>
<path d="M365.869 210.201C367.172 210.548 368.084 211.722 368.097 213.07L368.46 250.254C368.488 253.127 364.852 254.392 363.091 252.123L326.794 205.372C325.032 203.103 327.16 199.894 329.935 200.633L365.869 210.201Z" fill="#F6F2E9"/>
<path fill-rule="evenodd" clip-rule="evenodd" d="M366.126 209.234C367.864 209.697 369.079 211.262 369.097 213.061L369.46 250.244C369.497 254.074 364.649 255.762 362.301 252.736L326.004 205.985C323.655 202.96 326.492 198.681 330.193 199.667L366.126 209.234ZM367.097 213.08C367.088 212.181 366.481 211.398 365.612 211.167L329.678 201.6C327.828 201.107 326.409 203.246 327.584 204.759L363.88 251.51C365.055 253.023 367.479 252.179 367.46 250.264L367.097 213.08Z" fill="#366574"/>
<path d="M412.694 255.689C411.918 257.683 409.364 258.248 407.82 256.767L389.708 239.389C387.978 237.729 388.797 234.812 391.137 234.295L418.341 228.276C420.681 227.758 422.653 230.058 421.785 232.292L412.694 255.689Z" fill="#F6F2E9"/>
<path fill-rule="evenodd" clip-rule="evenodd" d="M413.626 256.051C412.592 258.71 409.187 259.464 407.128 257.488L389.015 240.11C386.71 237.898 387.801 234.009 390.921 233.318L418.125 227.3C421.245 226.609 423.874 229.676 422.717 232.654L413.626 256.051ZM408.513 256.045C409.542 257.033 411.245 256.656 411.761 255.326L420.853 231.93C421.432 230.44 420.117 228.907 418.557 229.253L391.353 235.271C389.793 235.616 389.247 237.561 390.4 238.667L408.513 256.045Z" fill="#366574"/>
<path d="M217.863 228.182C216.412 229.132 214.46 228.657 213.607 227.147L198.864 201.023C197.573 198.737 199.634 196.013 202.185 196.634L242.028 206.329C244.579 206.95 245.158 210.316 242.961 211.754L217.863 228.182Z" fill="#F6F2E9"/>
<path fill-rule="evenodd" clip-rule="evenodd" d="M218.411 229.019C216.476 230.285 213.873 229.652 212.736 227.638L197.993 201.515C196.272 198.466 199.021 194.834 202.422 195.662L242.264 205.357C245.666 206.185 246.438 210.674 243.509 212.591L218.411 229.019ZM214.478 226.655C215.047 227.662 216.348 227.979 217.315 227.345L242.414 210.917C243.878 209.959 243.492 207.715 241.791 207.301L201.949 197.605C200.248 197.191 198.874 199.007 199.734 200.532L214.478 226.655Z" fill="#366574"/>
<path d="M265.88 12.88C269.267 12.88 271.893 13.5733 273.76 14.96C275.76 16.4533 276.907 18.76 277.2 21.88H272.56C272.16 20.12 271.427 18.8533 270.36 18.08C269.347 17.3067 267.773 16.92 265.64 16.92C263.827 16.92 262.453 17.1733 261.52 17.68C260.347 18.2667 259.76 19.2533 259.76 20.64C259.76 21.8933 260.427 22.8667 261.76 23.56C262.4 23.9067 264.027 24.4933 266.64 25.32C268.587 25.9067 270.173 26.44 271.4 26.92C272.653 27.4 273.56 27.8 274.12 28.12C276.6 29.5867 277.84 31.64 277.84 34.28C277.84 36.84 276.84 38.8667 274.84 40.36C272.813 41.8267 269.987 42.56 266.36 42.56C262.84 42.56 260.093 41.88 258.12 40.52C255.693 38.84 254.387 36.1867 254.2 32.56H258.84C259.16 34.7467 259.933 36.2933 261.16 37.2C262.307 38.0267 264.04 38.44 266.36 38.44C268.44 38.44 270.093 38.0933 271.32 37.4C272.547 36.6533 273.16 35.7067 273.16 34.56C273.16 33.04 272.267 31.84 270.48 30.96C270.213 30.8267 269.613 30.6 268.68 30.28C267.747 29.96 266.493 29.56 264.92 29.08C261.373 27.96 259.187 27.16 258.36 26.68C256.173 25.3733 255.08 23.4533 255.08 20.92C255.08 18.36 256.147 16.3733 258.28 14.96C260.253 13.5733 262.787 12.88 265.88 12.88ZM291.935 20.76C294.975 20.76 297.375 21.84 299.135 24C300.735 26 301.535 28.5867 301.535 31.76C301.535 34.7733 300.748 37.2933 299.175 39.32C297.495 41.48 295.161 42.56 292.175 42.56C289.775 42.56 287.721 41.4267 286.015 39.16V49.92H281.455V21.32H285.695V23.52C287.135 21.68 289.215 20.76 291.935 20.76ZM291.255 24.44C289.441 24.44 288.068 25.1467 287.135 26.56C286.281 27.76 285.855 29.4133 285.855 31.52V31.84C285.855 34.0267 286.388 35.7733 287.455 37.08C288.415 38.28 289.628 38.88 291.095 38.88C293.095 38.88 294.588 38.2267 295.575 36.92C296.428 35.6933 296.855 33.9733 296.855 31.76C296.855 29.5467 296.468 27.8267 295.695 26.6C294.735 25.16 293.255 24.44 291.255 24.44ZM314.917 20.76C317.984 20.76 320.237 21.52 321.677 23.04C322.957 24.3467 323.597 26.2667 323.597 28.8V42H319.357V39.28C318.957 39.7867 318.504 40.24 317.997 40.64C317.517 41.0133 316.984 41.3467 316.397 41.64C315.037 42.2533 313.477 42.56 311.717 42.56C309.584 42.56 307.891 42.0133 306.637 40.92C305.357 39.8 304.717 38.3867 304.717 36.68C304.717 34.3333 305.624 32.5467 307.437 31.32C309.117 30.12 311.477 29.48 314.517 29.4L319.037 29.28V28.48C319.037 25.7867 317.557 24.44 314.597 24.44C313.291 24.44 312.277 24.6667 311.557 25.12C310.651 25.6533 310.077 26.4533 309.837 27.52L305.317 27.16C305.771 24.8667 306.891 23.2 308.677 22.16C310.144 21.2267 312.224 20.76 314.917 20.76ZM319.037 32.56L314.837 32.68C311.211 32.76 309.397 34.04 309.397 36.52C309.397 37.2667 309.704 37.8667 310.317 38.32C310.984 38.8267 311.797 39.08 312.757 39.08C314.491 39.08 315.971 38.5733 317.197 37.56C318.424 36.4933 319.037 35.1733 319.037 33.6V32.56ZM331.488 12.88C332.394 12.88 333.141 13.16 333.728 13.72C334.314 14.3067 334.608 15.0267 334.608 15.88C334.608 16.7867 334.301 17.52 333.688 18.08C333.101 18.64 332.368 18.92 331.488 18.92C330.634 18.92 329.901 18.64 329.288 18.08C328.701 17.4933 328.408 16.76 328.408 15.88C328.408 15 328.701 14.28 329.288 13.72C329.901 13.16 330.634 12.88 331.488 12.88ZM329.208 21.32H333.768V42H329.208V21.32ZM350.103 20.76C355.277 20.76 357.863 23.5867 357.863 29.24V42H353.303V29.64C353.303 26.2533 351.743 24.56 348.623 24.56C347.503 24.56 346.517 24.96 345.663 25.76C344.703 26.64 344.143 27.9067 343.983 29.56V42H339.423V21.32H343.983V23.72C344.81 22.7333 345.717 22 346.703 21.52C347.717 21.0133 348.85 20.76 350.103 20.76Z" fill="#B2D3D4"/>
<path d="M381.8 13.44H399V17.28H385.32L384.48 25.52H384.6C385.48 24.6 386.48 23.96 387.64 23.56C388.68 23.12 389.88 22.92 391.16 22.92C393.84 22.92 396.04 23.8 397.72 25.56C399.4 27.32 400.28 29.72 400.28 32.8C400.28 35.76 399.16 38.16 397 40.04C394.96 41.72 392.52 42.56 389.68 42.56C387.12 42.56 384.92 41.84 383.08 40.44C381.04 38.92 379.92 36.8 379.72 34.16H384C384.16 35.76 384.8 37 385.88 37.8C386.84 38.52 388.12 38.88 389.72 38.88C391.48 38.88 392.96 38.32 394.16 37.24C395.36 36.12 395.96 34.68 395.96 32.84C395.96 30.84 395.44 29.28 394.4 28.16C393.36 27.04 391.92 26.48 390 26.48C388.72 26.48 387.64 26.68 386.68 27.16C385.64 27.64 384.88 28.4 384.32 29.44H380.24L381.8 13.44ZM432.104 26.36C434.304 26.36 435.984 27.12 437.184 28.72C438.224 30.08 438.784 31.92 438.784 34.2C438.784 36.44 438.224 38.28 437.184 39.68C435.984 41.2 434.304 42 432.104 42C429.864 42 428.144 41.2 426.944 39.68C425.864 38.24 425.344 36.44 425.344 34.2C425.344 31.92 425.864 30.08 426.944 28.72C428.144 27.12 429.864 26.36 432.104 26.36ZM428.144 12.88H431.424L415.384 42.56H412.144L428.144 12.88ZM411.544 13.44C413.744 13.44 415.424 14.2 416.624 15.8C417.664 17.16 418.224 19 418.224 21.28C418.224 23.52 417.664 25.36 416.624 26.76C415.424 28.28 413.744 29.08 411.544 29.08C409.304 29.08 407.584 28.28 406.384 26.76C405.304 25.32 404.784 23.52 404.784 21.28C404.784 19 405.304 17.16 406.384 15.8C407.584 14.2 409.304 13.44 411.544 13.44ZM432.104 29.12C431.064 29.12 430.304 29.64 429.824 30.68C429.464 31.52 429.304 32.68 429.304 34.2C429.304 35.64 429.464 36.8 429.824 37.68C430.304 38.72 431.064 39.24 432.104 39.24C433.104 39.24 433.824 38.68 434.304 37.6C434.624 36.76 434.824 35.64 434.824 34.2C434.824 32.72 434.624 31.56 434.264 30.72C433.824 29.64 433.104 29.12 432.104 29.12ZM411.544 16.2C410.504 16.2 409.744 16.72 409.264 17.76C408.904 18.6 408.744 19.76 408.744 21.28C408.744 22.72 408.904 23.88 409.264 24.76C409.744 25.8 410.504 26.32 411.544 26.32C412.544 26.32 413.264 25.76 413.744 24.68C414.064 23.84 414.264 22.72 414.264 21.28C414.264 19.8 414.064 18.64 413.704 17.8C413.264 16.72 412.544 16.2 411.544 16.2Z" fill="#B2D3D4"/>
</svg>
