<svg width="115" height="235" viewBox="0 0 115 235" fill="none" xmlns="http://www.w3.org/2000/svg">
<rect x="66.4531" y="168.5" width="19" height="45" rx="1.5" fill="#F6F2E9" stroke="black"/>
<rect x="66.4531" y="192.5" width="19" height="20" fill="#F6F2E9" stroke="black"/>
<rect x="31.4531" y="168.5" width="19" height="45" rx="1.5" fill="#F6F2E9" stroke="black"/>
<rect x="31.4531" y="192.5" width="19" height="20" fill="#F6F2E9" stroke="black"/>
<rect x="25.4531" y="138.5" width="31" height="45" rx="1.5" fill="#3F6975" stroke="black"/>
<rect x="60.4531" y="138.5" width="31" height="45" rx="1.5" fill="#3F6975" stroke="black"/>
<mask id="path-7-inside-1_801_179" fill="white">
<path d="M55.9531 218.5C57.0577 218.5 57.9657 217.601 57.8321 216.505C57.3887 212.864 55.7407 209.453 53.1204 206.833C50.026 203.738 45.8292 202 41.4531 202C37.0771 202 32.8802 203.738 29.7859 206.833C27.1655 209.453 25.5176 212.864 25.0741 216.505C24.9406 217.601 25.8486 218.5 26.9531 218.5L41.4531 218.5H55.9531Z"/>
</mask>
<path d="M55.9531 218.5C57.0577 218.5 57.9657 217.601 57.8321 216.505C57.3887 212.864 55.7407 209.453 53.1204 206.833C50.026 203.738 45.8292 202 41.4531 202C37.0771 202 32.8802 203.738 29.7859 206.833C27.1655 209.453 25.5176 212.864 25.0741 216.505C24.9406 217.601 25.8486 218.5 26.9531 218.5L41.4531 218.5H55.9531Z" fill="#F6F2E9" stroke="black" stroke-width="2" mask="url(#path-7-inside-1_801_179)"/>
<mask id="path-8-inside-2_801_179" fill="white">
<path d="M89.9531 218.5C91.0577 218.5 91.9657 217.601 91.8321 216.505C91.3887 212.864 89.7407 209.453 87.1204 206.833C84.026 203.738 79.8292 202 75.4531 202C71.0771 202 66.8802 203.738 63.7859 206.833C61.1655 209.453 59.5176 212.864 59.0741 216.505C58.9406 217.601 59.8486 218.5 60.9531 218.5L75.4531 218.5H89.9531Z"/>
</mask>
<path d="M89.9531 218.5C91.0577 218.5 91.9657 217.601 91.8321 216.505C91.3887 212.864 89.7407 209.453 87.1204 206.833C84.026 203.738 79.8292 202 75.4531 202C71.0771 202 66.8802 203.738 63.7859 206.833C61.1655 209.453 59.5176 212.864 59.0741 216.505C58.9406 217.601 59.8486 218.5 60.9531 218.5L75.4531 218.5H89.9531Z" fill="#F6F2E9" stroke="black" stroke-width="2" mask="url(#path-8-inside-2_801_179)"/>
<path d="M24.9531 215H57.9531V221C57.9531 222.105 57.0577 223 55.9531 223H26.9531C25.8486 223 24.9531 222.105 24.9531 221V215Z" fill="#3F6975" stroke="black" stroke-linejoin="round"/>
<path d="M59.3867 215H91.3867V221C91.3867 222.105 90.4913 223 89.3867 223H61.3867C60.2821 223 59.3867 222.105 59.3867 221V215Z" fill="#3F6975" stroke="black" stroke-linejoin="round"/>
<path d="M18.9531 109C18.9531 99.0589 27.012 91 36.9531 91H77.9531C87.8942 91 95.9531 99.0589 95.9531 109V157C95.9531 161.418 92.3714 165 87.9531 165H26.9531C22.5348 165 18.9531 161.418 18.9531 157V109Z" fill="#F6F2E9"/>
<path d="M36.9531 91.5H77.9531V90.5H36.9531V91.5ZM95.4531 109V157H96.4531V109H95.4531ZM87.9531 164.5H26.9531V165.5H87.9531V164.5ZM19.4531 157V109H18.4531V157H19.4531ZM26.9531 164.5C22.811 164.5 19.4531 161.142 19.4531 157H18.4531C18.4531 161.694 22.2587 165.5 26.9531 165.5V164.5ZM95.4531 157C95.4531 161.142 92.0953 164.5 87.9531 164.5V165.5C92.6475 165.5 96.4531 161.694 96.4531 157H95.4531ZM77.9531 91.5C87.6181 91.5 95.4531 99.335 95.4531 109H96.4531C96.4531 98.7827 88.1704 90.5 77.9531 90.5V91.5ZM36.9531 90.5C26.7359 90.5 18.4531 98.7827 18.4531 109H19.4531C19.4531 99.335 27.2881 91.5 36.9531 91.5V90.5Z" fill="black"/>
<path d="M2.97975 140.07C2.24154 122.018 17.0225 102.784 26.1065 93.767C26.7527 93.1256 27.8171 93.6431 27.742 94.5505L23.9721 140.083C23.9292 140.601 23.4958 141 22.9755 141H3.96323C3.43841 141 3.0012 140.595 2.97975 140.07Z" fill="#F6F2E9" stroke="black" stroke-linecap="round" stroke-linejoin="round"/>
<path d="M110.926 140.07C111.665 122.018 96.8838 102.784 87.7998 93.767C87.1536 93.1256 86.0892 93.6431 86.1643 94.5505L89.9341 140.083C89.9771 140.601 90.4104 141 90.9307 141H109.943C110.468 141 110.905 140.595 110.926 140.07Z" fill="#F6F2E9" stroke="black" stroke-linecap="round" stroke-linejoin="round"/>
<circle cx="56.9531" cy="87" r="13.5" fill="#F6F2E9" stroke="black"/>
<path d="M25.2376 93.5231L21.208 95.4319C19.9012 96.0509 19.2281 97.5234 19.5741 98.9274C25.9048 124.621 21.6306 138.883 17.017 145.033C15.7955 146.661 15.8023 149.294 17.47 150.462C18.3747 151.095 19.5763 151.16 20.4804 150.526C35.5594 139.95 33.1311 111.488 29.3372 95.4394C28.9094 93.6298 26.9181 92.7271 25.2376 93.5231Z" fill="#3F6975" stroke="black"/>
<path d="M88.9186 93.5231L92.9483 95.4319C94.2551 96.0509 94.9281 97.5234 94.5822 98.9274C88.2514 124.621 92.5256 138.883 97.1393 145.033C98.3608 146.661 98.3539 149.294 96.6863 150.462C95.7815 151.095 94.58 151.16 93.6758 150.526C78.5969 139.95 81.0251 111.488 84.8191 95.4394C85.2469 93.6298 87.2382 92.7271 88.9186 93.5231Z" fill="#3F6975" stroke="black"/>
<circle cx="14.9531" cy="143" r="11.5" fill="#F6F2E9" stroke="black"/>
<circle cx="100.953" cy="143" r="11.5" fill="#F6F2E9" stroke="black"/>
<path d="M52.3996 2.89651C54.7597 -0.791023 60.1468 -0.791024 62.5069 2.89651L113.464 82.516C116.02 86.5096 113.152 91.7503 108.41 91.7503H6.49611C1.75457 91.7503 -1.11347 86.5096 1.4425 82.516L52.3996 2.89651Z" fill="#F6F2E9"/>
<path fill-rule="evenodd" clip-rule="evenodd" d="M112.622 83.0551L61.6646 3.43556C59.6979 0.362623 55.2086 0.362624 53.2419 3.43557L2.28476 83.055C0.154793 86.3831 2.54483 90.7503 6.49611 90.7503H108.41C112.362 90.7503 114.752 86.3831 112.622 83.0551ZM62.5069 2.89651C60.1468 -0.791024 54.7597 -0.791023 52.3996 2.89651L1.4425 82.516C-1.11347 86.5096 1.75457 91.7503 6.49611 91.7503H108.41C113.152 91.7503 116.02 86.5096 113.464 82.516L62.5069 2.89651Z" fill="black"/>
<path d="M65.9527 62.3575C67.0102 61.9296 69.8753 61.536 72.875 63.3845" stroke="black" stroke-width="3" stroke-linecap="round"/>
<path d="M47.8755 62.3575C46.8179 61.9296 43.9528 61.536 40.9531 63.3845" stroke="black" stroke-width="3" stroke-linecap="round"/>
</svg>
