<svg width="579" height="253" viewBox="0 0 579 253" fill="none" xmlns="http://www.w3.org/2000/svg">
<rect x="185.863" y="63.0591" width="23.872" height="146.902" fill="#F6F2E9" stroke="#366574" stroke-width="2" stroke-linecap="round" stroke-linejoin="round"/>
<path d="M218.787 71.2617C218.305 71.2617 217.892 71.6051 217.804 72.0786L213.22 96.6846C213.166 96.9768 213.244 97.2781 213.434 97.5068C213.624 97.7354 213.906 97.8677 214.203 97.8677H230.607C230.906 97.8677 231.189 97.734 231.379 97.5031C231.569 97.2723 231.646 96.9686 231.588 96.6753L226.764 72.0693C226.672 71.6001 226.261 71.2617 225.782 71.2617H222.164H218.787Z" fill="#F6F2E9" stroke="#366574" stroke-width="2" stroke-linecap="round" stroke-linejoin="round"/>
<path d="M214.203 106.069C213.651 106.069 213.203 105.622 213.203 105.069V96.8673C213.203 96.3151 213.651 95.8673 214.203 95.8673H230.607C231.159 95.8673 231.607 96.3151 231.607 96.8673V105.069C231.607 105.622 231.159 106.069 230.607 106.069H222.164H214.203Z" fill="#366574" stroke="#366574" stroke-width="2" stroke-linecap="round" stroke-linejoin="round"/>
<path d="M213.441 104.069C213.23 104.069 213.024 104.136 212.853 104.261L208.146 107.687C207.887 107.875 207.734 108.176 207.734 108.496V174.331C207.734 174.883 208.182 175.331 208.734 175.331H234.252C234.804 175.331 235.252 174.883 235.252 174.331V108.496C235.252 108.205 235.125 107.929 234.906 107.739L230.942 104.313C230.76 104.156 230.528 104.069 230.288 104.069H221.617H213.441Z" fill="#F6F2E9" stroke="#366574" stroke-width="2" stroke-linecap="round" stroke-linejoin="round"/>
<rect x="203.176" y="114.094" width="12.0247" height="20.2266" fill="#F6F2E9" stroke="#366574" stroke-width="2" stroke-linecap="round" stroke-linejoin="round"/>
<rect x="227.783" y="114.094" width="12.0247" height="20.2266" fill="#F6F2E9" stroke="#366574" stroke-width="2" stroke-linecap="round" stroke-linejoin="round"/>
<rect x="200.443" y="133.232" width="17.4926" height="36.6306" fill="#F6F2E9" stroke="#366574" stroke-width="2" stroke-linecap="round" stroke-linejoin="round"/>
<rect x="225.051" y="133.232" width="17.4926" height="36.6306" fill="#F6F2E9" stroke="#366574" stroke-width="2" stroke-linecap="round" stroke-linejoin="round"/>
<path d="M222.404 57.6553V71.3253" stroke="#366574" stroke-width="2" stroke-linecap="round" stroke-linejoin="round"/>
<path d="M215.115 179.798H217.849" stroke="#366574" stroke-width="2" stroke-linecap="round" stroke-linejoin="round"/>
<path d="M215.115 185.267H217.849" stroke="#366574" stroke-width="2" stroke-linecap="round" stroke-linejoin="round"/>
<path d="M215.115 189.823H217.849" stroke="#366574" stroke-width="2" stroke-linecap="round" stroke-linejoin="round"/>
<path d="M215.115 179.798H217.849" stroke="#366574" stroke-width="2" stroke-linecap="round" stroke-linejoin="round"/>
<path d="M215.115 186.178H217.849" stroke="#366574" stroke-width="2" stroke-linecap="round" stroke-linejoin="round"/>
<rect x="264.236" y="48.4785" width="30.2513" height="32.074" fill="#F6F2E9" stroke="#366574" stroke-width="2" stroke-linecap="round" stroke-linejoin="round"/>
<rect x="261.502" y="77.6411" width="34.808" height="12.936" fill="#F6F2E9" stroke="#366574" stroke-width="2" stroke-linecap="round" stroke-linejoin="round"/>
<rect x="259.678" y="87.6655" width="38.4533" height="16.5813" fill="#F6F2E9" stroke="#366574" stroke-width="2" stroke-linecap="round" stroke-linejoin="round"/>
<rect x="219.58" y="130.499" width="21.138" height="46.6553" fill="#F6F2E9" stroke="#366574" stroke-width="2" stroke-linecap="round" stroke-linejoin="round"/>
<rect x="318.004" y="130.499" width="20.2266" height="46.6553" fill="#F6F2E9" stroke="#366574" stroke-width="2" stroke-linecap="round" stroke-linejoin="round"/>
<path d="M226.049 144.257H228.783" stroke="#366574" stroke-width="2" stroke-linecap="round" stroke-linejoin="round"/>
<path d="M226.049 149.725H228.783" stroke="#366574" stroke-width="2" stroke-linecap="round" stroke-linejoin="round"/>
<path d="M226.049 154.281H228.783" stroke="#366574" stroke-width="2" stroke-linecap="round" stroke-linejoin="round"/>
<path d="M226.049 159.75H228.783" stroke="#366574" stroke-width="2" stroke-linecap="round" stroke-linejoin="round"/>
<path d="M226.049 165.218H228.783" stroke="#366574" stroke-width="2" stroke-linecap="round" stroke-linejoin="round"/>
<path d="M329.029 143.346H332.675" stroke="#366574" stroke-width="2" stroke-linecap="round" stroke-linejoin="round"/>
<path d="M329.029 148.814H332.675" stroke="#366574" stroke-width="2" stroke-linecap="round" stroke-linejoin="round"/>
<path d="M329.029 153.371H332.675" stroke="#366574" stroke-width="2" stroke-linecap="round" stroke-linejoin="round"/>
<path d="M329.029 158.838H332.675" stroke="#366574" stroke-width="2" stroke-linecap="round" stroke-linejoin="round"/>
<path d="M329.029 165.218H332.675" stroke="#366574" stroke-width="2" stroke-linecap="round" stroke-linejoin="round"/>
<rect x="237.809" y="121.385" width="83.1086" height="54.8573" fill="#F6F2E9" stroke="#366574" stroke-width="2" stroke-linecap="round" stroke-linejoin="round"/>
<rect x="257.855" y="101.336" width="43.0099" height="42.0986" fill="#F6F2E9" stroke="#366574" stroke-width="2" stroke-linecap="round" stroke-linejoin="round"/>
<rect x="270.615" y="41.1372" width="17.4926" height="16.5813" fill="#366574" stroke="#366574" stroke-width="2" stroke-linecap="round" stroke-linejoin="round"/>
<line x1="274.438" y1="63.0601" x2="284.285" y2="63.0601" stroke="#366574" stroke-width="2" stroke-linecap="round" stroke-linejoin="round"/>
<line x1="274.438" y1="66.6226" x2="284.285" y2="66.6226" stroke="#366574" stroke-width="2" stroke-linecap="round" stroke-linejoin="round"/>
<line x1="274.438" y1="69.4321" x2="284.285" y2="69.4321" stroke="#366574" stroke-width="2" stroke-linecap="round" stroke-linejoin="round"/>
<line x1="274.438" y1="75.0518" x2="284.285" y2="75.0518" stroke="#366574" stroke-width="2" stroke-linecap="round" stroke-linejoin="round"/>
<line x1="274.438" y1="72.2422" x2="284.285" y2="72.2422" stroke="#366574" stroke-width="2" stroke-linecap="round" stroke-linejoin="round"/>
<line x1="269.881" y1="109.538" x2="288.841" y2="109.538" stroke="#366574" stroke-width="2" stroke-linecap="round" stroke-linejoin="round"/>
<line x1="269.881" y1="115.006" x2="288.841" y2="115.006" stroke="#366574" stroke-width="2" stroke-linecap="round" stroke-linejoin="round"/>
<line x1="269.881" y1="121.385" x2="288.841" y2="121.385" stroke="#366574" stroke-width="2" stroke-linecap="round" stroke-linejoin="round"/>
<line x1="269.881" y1="132.321" x2="288.841" y2="132.321" stroke="#366574" stroke-width="2" stroke-linecap="round" stroke-linejoin="round"/>
<line x1="269.881" y1="126.854" x2="288.841" y2="126.854" stroke="#366574" stroke-width="2" stroke-linecap="round" stroke-linejoin="round"/>
<rect x="208.645" y="174.243" width="141.434" height="36.6306" fill="#F6F2E9" stroke="#366574" stroke-width="2" stroke-linecap="round" stroke-linejoin="round"/>
<path d="M247.163 150.416C247.008 150.597 246.922 150.829 246.922 151.068V156.248V165.745V175.242C246.922 175.794 247.37 176.242 247.922 176.242H311.715C312.267 176.242 312.715 175.794 312.715 175.242V165.745V156.248V151.068C312.715 150.84 312.638 150.62 312.495 150.442L305.572 141.808C305.382 141.572 305.095 141.434 304.792 141.434H255.34C255.048 141.434 254.771 141.561 254.581 141.782L247.163 150.416Z" fill="#F6F2E9" stroke="#366574" stroke-width="2" stroke-linecap="round" stroke-linejoin="round"/>
<path d="M247.922 153.723C247.37 153.723 246.922 154.171 246.922 154.723V159.903V169.4C246.922 169.953 247.37 170.4 247.922 170.4H256.329H266.961H277.346H287.731H298.363H307.512H311.715C312.267 170.4 312.715 169.953 312.715 169.4V159.903V154.723C312.715 154.171 312.267 153.723 311.715 153.723H305.905H300.094H295.396H289.956H285.011H279.819H275.121H270.175H264.488H259.296H253.609H247.922Z" fill="#F6F2E9" stroke="#366574" stroke-width="2" stroke-linecap="round" stroke-linejoin="round"/>
<path d="M259.768 146.992H262.502" stroke="#366574" stroke-width="2" stroke-linecap="round" stroke-linejoin="round"/>
<path d="M267.057 146.992H270.702" stroke="#366574" stroke-width="2" stroke-linecap="round" stroke-linejoin="round"/>
<path d="M273.438 146.992H277.083" stroke="#366574" stroke-width="2" stroke-linecap="round" stroke-linejoin="round"/>
<path d="M287.107 146.992H290.753" stroke="#366574" stroke-width="2" stroke-linecap="round" stroke-linejoin="round"/>
<path d="M294.396 146.992H298.042" stroke="#366574" stroke-width="2" stroke-linecap="round" stroke-linejoin="round"/>
<path d="M301.689 146.992H304.423" stroke="#366574" stroke-width="2" stroke-linecap="round" stroke-linejoin="round"/>
<path d="M280.729 146.992H283.463" stroke="#366574" stroke-width="2" stroke-linecap="round" stroke-linejoin="round"/>
<path d="M236.984 179.799H239.718" stroke="#366574" stroke-width="2" stroke-linecap="round" stroke-linejoin="round"/>
<path d="M236.984 185.267H239.718" stroke="#366574" stroke-width="2" stroke-linecap="round" stroke-linejoin="round"/>
<path d="M236.984 189.824H239.718" stroke="#366574" stroke-width="2" stroke-linecap="round" stroke-linejoin="round"/>
<path d="M236.984 195.292H239.718" stroke="#366574" stroke-width="2" stroke-linecap="round" stroke-linejoin="round"/>
<path d="M236.984 201.671H239.718" stroke="#366574" stroke-width="2" stroke-linecap="round" stroke-linejoin="round"/>
<path d="M226.049 179.799H228.783" stroke="#366574" stroke-width="2" stroke-linecap="round" stroke-linejoin="round"/>
<path d="M226.049 185.267H228.783" stroke="#366574" stroke-width="2" stroke-linecap="round" stroke-linejoin="round"/>
<path d="M226.049 189.824H228.783" stroke="#366574" stroke-width="2" stroke-linecap="round" stroke-linejoin="round"/>
<path d="M226.049 195.292H228.783" stroke="#366574" stroke-width="2" stroke-linecap="round" stroke-linejoin="round"/>
<path d="M226.049 201.671H228.783" stroke="#366574" stroke-width="2" stroke-linecap="round" stroke-linejoin="round"/>
<path d="M340.875 179.799H344.52" stroke="#366574" stroke-width="2" stroke-linecap="round" stroke-linejoin="round"/>
<path d="M340.875 185.267H344.52" stroke="#366574" stroke-width="2" stroke-linecap="round" stroke-linejoin="round"/>
<path d="M340.875 189.824H344.52" stroke="#366574" stroke-width="2" stroke-linecap="round" stroke-linejoin="round"/>
<path d="M340.875 195.292H344.52" stroke="#366574" stroke-width="2" stroke-linecap="round" stroke-linejoin="round"/>
<path d="M340.875 201.671H344.52" stroke="#366574" stroke-width="2" stroke-linecap="round" stroke-linejoin="round"/>
<path d="M329.941 179.799H333.587" stroke="#366574" stroke-width="2" stroke-linecap="round" stroke-linejoin="round"/>
<path d="M329.941 185.267H333.587" stroke="#366574" stroke-width="2" stroke-linecap="round" stroke-linejoin="round"/>
<path d="M329.941 189.824H333.587" stroke="#366574" stroke-width="2" stroke-linecap="round" stroke-linejoin="round"/>
<path d="M329.941 195.292H333.587" stroke="#366574" stroke-width="2" stroke-linecap="round" stroke-linejoin="round"/>
<path d="M329.941 201.671H333.587" stroke="#366574" stroke-width="2" stroke-linecap="round" stroke-linejoin="round"/>
<path d="M319.004 179.799H322.649" stroke="#366574" stroke-width="2" stroke-linecap="round" stroke-linejoin="round"/>
<path d="M319.004 185.267H322.649" stroke="#366574" stroke-width="2" stroke-linecap="round" stroke-linejoin="round"/>
<path d="M319.004 189.824H322.649" stroke="#366574" stroke-width="2" stroke-linecap="round" stroke-linejoin="round"/>
<path d="M319.004 195.292H322.649" stroke="#366574" stroke-width="2" stroke-linecap="round" stroke-linejoin="round"/>
<path d="M319.004 201.671H322.649" stroke="#366574" stroke-width="2" stroke-linecap="round" stroke-linejoin="round"/>
<path d="M71.123 28.4282C70.5708 28.4282 70.123 28.8759 70.123 29.4282V209.872C70.123 210.424 70.5708 210.872 71.123 210.872H109.399C109.951 210.872 110.399 210.424 110.399 209.872V113.734C110.399 113.182 109.951 112.734 109.399 112.734H97.9062V29.4282C97.9062 28.8759 97.4584 28.4282 96.9062 28.4282H71.123Z" fill="#F6F2E9" stroke="#366574" stroke-width="2" stroke-linecap="round" stroke-linejoin="round"/>
<path d="M32.8477 212.695C32.5819 212.695 32.327 212.59 32.1394 212.401C31.9518 212.213 31.8468 211.958 31.8477 211.692L32.3524 57.6769C32.3542 57.1259 32.8014 56.6802 33.3524 56.6802H65.6556C65.9214 56.6802 66.1763 56.786 66.3639 56.9742C66.5515 57.1625 66.6565 57.4176 66.6556 57.6834L66.1509 211.699C66.1491 212.25 65.7019 212.695 65.1509 212.695H32.8477Z" fill="#F6F2E9" stroke="#366574" stroke-width="2" stroke-linecap="round" stroke-linejoin="round"/>
<path d="M40.668 65.0601C40.3993 65.0601 40.142 64.952 39.9539 64.7601C39.7658 64.5683 39.6629 64.3089 39.6682 64.0403L39.7943 57.661C39.8051 57.1165 40.2496 56.6807 40.7942 56.6807H48.87C49.1386 56.6807 49.396 56.7888 49.584 56.9807C49.7721 57.1725 49.8751 57.4319 49.8698 57.7005L49.7436 64.0798C49.7328 64.6243 49.2884 65.0601 48.7438 65.0601H40.668Z" fill="#366574" stroke="#366574" stroke-width="2" stroke-linecap="round" stroke-linejoin="round"/>
<path d="M40.668 68.6792C40.3998 68.6792 40.1428 68.7869 39.9548 68.9782C39.7668 69.1695 39.6635 69.4283 39.6681 69.6965L39.7943 76.9872C39.8037 77.5326 40.2486 77.9699 40.7942 77.9699H48.87C49.1382 77.9699 49.3951 77.8621 49.5832 77.6708C49.7712 77.4795 49.8745 77.2207 49.8698 76.9526L49.7436 69.6619C49.7342 69.1164 49.2893 68.6792 48.7438 68.6792H40.668Z" fill="#366574" stroke="#366574" stroke-width="2" stroke-linecap="round" stroke-linejoin="round"/>
<path d="M40.668 91.7915C40.4001 91.7915 40.1434 91.684 39.9554 91.4932C39.7675 91.3023 39.664 91.044 39.6681 90.7761L39.7943 82.5741C39.8027 82.0279 40.2479 81.5895 40.7942 81.5895H48.87C49.1378 81.5895 49.3945 81.697 49.5825 81.8879C49.7704 82.0787 49.874 82.337 49.8698 82.6049L49.7437 90.8069C49.7353 91.3531 49.2901 91.7915 48.7438 91.7915H40.668Z" fill="#366574" stroke="#366574" stroke-width="2" stroke-linecap="round" stroke-linejoin="round"/>
<path d="M40.668 95.4106C40.4001 95.4106 40.1434 95.5181 39.9554 95.709C39.7675 95.8999 39.664 96.1582 39.6681 96.426L39.7943 104.628C39.8027 105.174 40.2479 105.613 40.7942 105.613H48.87C49.1378 105.613 49.3945 105.505 49.5825 105.314C49.7704 105.123 49.874 104.865 49.8698 104.597L49.7437 96.3953C49.7353 95.849 49.2901 95.4106 48.7438 95.4106H40.668Z" fill="#366574" stroke="#366574" stroke-width="2" stroke-linecap="round" stroke-linejoin="round"/>
<path d="M40.668 119.435C40.4001 119.435 40.1434 119.327 39.9554 119.136C39.7675 118.945 39.664 118.687 39.6681 118.419L39.7943 110.217C39.8027 109.671 40.2479 109.233 40.7942 109.233H48.87C49.1378 109.233 49.3945 109.34 49.5825 109.531C49.7704 109.722 49.874 109.98 49.8698 110.248L49.7437 118.45C49.7353 118.996 49.2901 119.435 48.7438 119.435H40.668Z" fill="#366574" stroke="#366574" stroke-width="2" stroke-linecap="round" stroke-linejoin="round"/>
<path d="M40.668 123.054C40.4004 123.054 40.1439 123.161 39.956 123.352C39.7681 123.542 39.6644 123.8 39.6681 124.068L39.7942 133.181C39.8018 133.728 40.2473 134.167 40.7942 134.167H48.87C49.1376 134.167 49.394 134.06 49.5819 133.869C49.7699 133.679 49.8736 133.421 49.8699 133.153L49.7437 124.04C49.7361 123.493 49.2907 123.054 48.7438 123.054H40.668Z" fill="#366574" stroke="#366574" stroke-width="2" stroke-linecap="round" stroke-linejoin="round"/>
<path d="M40.668 147.989C40.4001 147.989 40.1434 147.881 39.9554 147.69C39.7675 147.5 39.664 147.241 39.6681 146.973L39.7943 138.771C39.8027 138.225 40.2479 137.787 40.7942 137.787H48.87C49.1378 137.787 49.3945 137.894 49.5825 138.085C49.7704 138.276 49.874 138.534 49.8698 138.802L49.7437 147.004C49.7353 147.55 49.2901 147.989 48.7438 147.989H40.668Z" fill="#366574" stroke="#366574" stroke-width="2" stroke-linecap="round" stroke-linejoin="round"/>
<path d="M40.668 151.608C40.4001 151.608 40.1434 151.715 39.9554 151.906C39.7675 152.097 39.664 152.355 39.6681 152.623L39.7943 160.825C39.8027 161.372 40.2479 161.81 40.7942 161.81H48.87C49.1378 161.81 49.3945 161.702 49.5825 161.512C49.7704 161.321 49.874 161.062 49.8698 160.795L49.7437 152.593C49.7353 152.046 49.2901 151.608 48.7438 151.608H40.668Z" fill="#366574" stroke="#366574" stroke-width="2" stroke-linecap="round" stroke-linejoin="round"/>
<path d="M40.668 174.72C40.3998 174.72 40.1428 174.612 39.9548 174.421C39.7668 174.23 39.6635 173.971 39.6681 173.703L39.7943 166.412C39.8037 165.867 40.2486 165.43 40.7942 165.43H48.87C49.1382 165.43 49.3951 165.537 49.5832 165.729C49.7712 165.92 49.8745 166.179 49.8698 166.447L49.7436 173.738C49.7342 174.283 49.2893 174.72 48.7438 174.72H40.668Z" fill="#366574" stroke="#366574" stroke-width="2" stroke-linecap="round" stroke-linejoin="round"/>
<path d="M40.668 178.339C40.4001 178.339 40.1434 178.447 39.9554 178.638C39.7675 178.829 39.664 179.087 39.6681 179.355L39.7943 187.557C39.8027 188.103 40.2479 188.541 40.7942 188.541H48.87C49.1378 188.541 49.3945 188.434 49.5825 188.243C49.7704 188.052 49.874 187.794 49.8698 187.526L49.7437 179.324C49.7353 178.778 49.2901 178.339 48.7438 178.339H40.668Z" fill="#366574" stroke="#366574" stroke-width="2" stroke-linecap="round" stroke-linejoin="round"/>
<path d="M40.668 202.363C40.4001 202.363 40.1434 202.255 39.9554 202.064C39.7675 201.874 39.664 201.615 39.6681 201.347L39.7943 193.145C39.8027 192.599 40.2479 192.161 40.7942 192.161H48.87C49.1378 192.161 49.3945 192.268 49.5825 192.459C49.7704 192.65 49.874 192.908 49.8698 193.176L49.7437 201.378C49.7353 201.924 49.2901 202.363 48.7438 202.363H40.668Z" fill="#366574" stroke="#366574" stroke-width="2" stroke-linecap="round" stroke-linejoin="round"/>
<path d="M82.0586 211.784C82.6109 211.784 83.0586 211.336 83.0586 210.784V82.9523C83.0586 82.582 82.8539 82.2419 82.5266 82.0686L77.0359 79.1607V51.3011C77.0359 50.9514 76.8533 50.6272 76.5544 50.446C76.2554 50.2647 75.8835 50.2527 75.5735 50.4144L64.2809 56.303C63.9501 56.4755 63.7428 56.8178 63.7433 57.1909L63.9286 210.785C63.9293 211.337 64.3768 211.784 64.9286 211.784H82.0586Z" fill="#F6F2E9" stroke="#366574" stroke-width="2" stroke-linecap="round" stroke-linejoin="round"/>
<path d="M53.8086 63.1484H64.7446" stroke="#366574" stroke-width="2" stroke-linecap="round" stroke-linejoin="round"/>
<path d="M53.8086 71.3501H64.7446" stroke="#366574" stroke-width="2" stroke-linecap="round" stroke-linejoin="round"/>
<path d="M53.8086 79.5522H64.7446" stroke="#366574" stroke-width="2" stroke-linecap="round" stroke-linejoin="round"/>
<path d="M53.8086 87.7544H64.7446" stroke="#366574" stroke-width="2" stroke-linecap="round" stroke-linejoin="round"/>
<path d="M53.8086 95.0449H64.7446" stroke="#366574" stroke-width="2" stroke-linecap="round" stroke-linejoin="round"/>
<path d="M53.8086 103.247H64.7446" stroke="#366574" stroke-width="2" stroke-linecap="round" stroke-linejoin="round"/>
<path d="M53.8086 111.449H64.7446" stroke="#366574" stroke-width="2" stroke-linecap="round" stroke-linejoin="round"/>
<path d="M53.8086 119.651H64.7446" stroke="#366574" stroke-width="2" stroke-linecap="round" stroke-linejoin="round"/>
<path d="M53.8086 128.764H64.7446" stroke="#366574" stroke-width="2" stroke-linecap="round" stroke-linejoin="round"/>
<path d="M53.8086 136.055H64.7446" stroke="#366574" stroke-width="2" stroke-linecap="round" stroke-linejoin="round"/>
<path d="M45.1915 50.3008C45.0265 50.3008 44.864 50.3416 44.7187 50.4196L32.8299 56.7989C32.426 57.0157 32.2212 57.4793 32.3329 57.9239C32.4446 58.3684 32.8443 58.6801 33.3027 58.6801H64.2466C64.4172 58.6801 64.5849 58.6365 64.7339 58.5534L76.1669 52.174C76.5646 51.9522 76.7621 51.4897 76.6475 51.049C76.5329 50.6084 76.135 50.3008 75.6797 50.3008H45.1915Z" fill="#F6F2E9" stroke="#366574" stroke-width="2" stroke-linecap="round" stroke-linejoin="round"/>
<path d="M119.42 12.202C119.973 12.202 120.42 11.7543 120.42 11.202V3.91133C120.42 2.85573 119.565 2 118.509 2C117.453 2 116.598 2.85573 116.598 3.91133V11.202C116.598 11.7543 117.045 12.202 117.598 12.202H119.42Z" fill="#366574" stroke="#366574" stroke-width="2" stroke-linecap="round" stroke-linejoin="round"/>
<rect x="102.932" y="10.2021" width="32.074" height="15.67" rx="3" fill="#366574" stroke="#366574" stroke-width="2" stroke-linecap="round" stroke-linejoin="round"/>
<path d="M139.472 219.075C140.024 219.075 140.472 218.627 140.472 218.075V24.3648C140.472 23.1274 139.712 22.017 138.559 21.5687L119.598 14.1974C118.899 13.9255 118.124 13.9255 117.424 14.1974L98.4637 21.5687C97.3105 22.017 96.5508 23.1274 96.5508 24.3648V218.075C96.5508 218.627 96.9985 219.075 97.5508 219.075H139.472Z" fill="#F6F2E9" stroke="#366574" stroke-width="2" stroke-linecap="round" stroke-linejoin="round"/>
<path d="M139.472 218.163C139.755 218.163 140.024 218.044 140.213 217.834C140.403 217.625 140.495 217.345 140.467 217.064L121.497 26.5346C121.138 22.9308 115.885 22.9309 115.526 26.5346L96.5557 217.064C96.5277 217.345 96.6199 217.625 96.8095 217.834C96.999 218.044 97.2683 218.163 97.5508 218.163H139.472Z" fill="#F6F2E9" stroke="#366574" stroke-width="2" stroke-linecap="round" stroke-linejoin="round"/>
<line x1="102.195" y1="29.3398" x2="111.131" y2="29.3398" stroke="#366574" stroke-width="2" stroke-linecap="round" stroke-linejoin="round"/>
<line x1="102.195" y1="36.6309" x2="111.131" y2="36.6309" stroke="#366574" stroke-width="2" stroke-linecap="round" stroke-linejoin="round"/>
<line x1="102.195" y1="29.3398" x2="111.131" y2="29.3398" stroke="#366574" stroke-width="2" stroke-linecap="round" stroke-linejoin="round"/>
<line x1="102.195" y1="44.833" x2="111.131" y2="44.833" stroke="#366574" stroke-width="2" stroke-linecap="round" stroke-linejoin="round"/>
<line x1="102.195" y1="53.9458" x2="111.131" y2="53.9458" stroke="#366574" stroke-width="2" stroke-linecap="round" stroke-linejoin="round"/>
<line x1="127.711" y1="36.6309" x2="135.736" y2="36.6309" stroke="#366574" stroke-width="2" stroke-linecap="round" stroke-linejoin="round"/>
<line x1="127.711" y1="29.3398" x2="135.736" y2="29.3398" stroke="#366574" stroke-width="2" stroke-linecap="round" stroke-linejoin="round"/>
<line x1="127.711" y1="44.833" x2="135.736" y2="44.833" stroke="#366574" stroke-width="2" stroke-linecap="round" stroke-linejoin="round"/>
<line x1="127.711" y1="53.9458" x2="135.736" y2="53.9458" stroke="#366574" stroke-width="2" stroke-linecap="round" stroke-linejoin="round"/>
<path d="M103.018 219.075C102.744 219.075 102.483 218.963 102.294 218.766C102.106 218.568 102.006 218.302 102.019 218.029L102.145 215.295C102.169 214.761 102.609 214.341 103.144 214.341H111.22C111.493 214.341 111.754 214.453 111.943 214.651C112.131 214.848 112.231 215.114 112.219 215.387L112.092 218.121C112.068 218.655 111.628 219.075 111.093 219.075H103.018Z" fill="#F6F2E9" stroke="#366574" stroke-width="2" stroke-linecap="round" stroke-linejoin="round"/>
<path d="M113.043 111.904H123.979" stroke="#366574" stroke-width="2" stroke-linecap="round" stroke-linejoin="round"/>
<path d="M113.043 103.703H123.979" stroke="#366574" stroke-width="2" stroke-linecap="round" stroke-linejoin="round"/>
<path d="M113.043 119.195H123.979" stroke="#366574" stroke-width="2" stroke-linecap="round" stroke-linejoin="round"/>
<path d="M113.043 129.22H123.979" stroke="#366574" stroke-width="2" stroke-linecap="round" stroke-linejoin="round"/>
<path d="M115.777 150.636H126.713" stroke="#366574" stroke-width="2" stroke-linecap="round" stroke-linejoin="round"/>
<path d="M115.777 158.838H126.713" stroke="#366574" stroke-width="2" stroke-linecap="round" stroke-linejoin="round"/>
<path d="M115.777 167.04H126.713" stroke="#366574" stroke-width="2" stroke-linecap="round" stroke-linejoin="round"/>
<path d="M115.777 174.331H126.713" stroke="#366574" stroke-width="2" stroke-linecap="round" stroke-linejoin="round"/>
<path d="M115.777 182.533H126.713" stroke="#366574" stroke-width="2" stroke-linecap="round" stroke-linejoin="round"/>
<path d="M115.777 190.734H126.713" stroke="#366574" stroke-width="2" stroke-linecap="round" stroke-linejoin="round"/>
<path d="M115.777 199.848H126.713" stroke="#366574" stroke-width="2" stroke-linecap="round" stroke-linejoin="round"/>
<path d="M115.777 208.049H126.713" stroke="#366574" stroke-width="2" stroke-linecap="round" stroke-linejoin="round"/>
<path d="M115.777 216.252H126.713" stroke="#366574" stroke-width="2" stroke-linecap="round" stroke-linejoin="round"/>
<rect x="105.289" y="157.532" width="6.55592" height="53.3839" rx="2" fill="#366574"/>
<path d="M144.095 104.293C143.562 104.293 143.123 104.711 143.096 105.243L140.837 149.898C140.823 150.172 140.922 150.439 141.111 150.638C141.3 150.836 141.562 150.949 141.836 150.949H181.935C182.206 150.949 182.466 150.838 182.655 150.642C182.843 150.447 182.944 150.182 182.934 149.911L181.24 105.256C181.219 104.718 180.778 104.293 180.24 104.293H144.095Z" fill="#F6F2E9" stroke="#366574" stroke-width="2" stroke-linecap="round" stroke-linejoin="round"/>
<path d="M153.601 73.6729C153.593 73.9418 153.693 74.2028 153.879 74.3969C154.065 74.5911 154.322 74.702 154.591 74.7048L172.922 74.8899C173.196 74.8927 173.459 74.7826 173.65 74.5855C173.841 74.3884 173.943 74.1216 173.931 73.8475L173.246 57.7442C173.229 57.3483 173.447 56.9798 173.803 56.8046L181.92 52.8045C183.775 51.8905 183.193 49.1065 181.127 49.0126L174.101 48.6932L176.311 41.8532C176.956 39.8545 174.479 38.3389 172.993 39.8242L167.515 45.3033L165.471 37.88C164.924 35.8935 162.093 35.9319 161.6 37.9325L159.781 45.3195L153.95 39.8061C152.413 38.3532 149.967 39.9682 150.699 41.9521L153.193 48.7054L147.497 49.0052C145.487 49.111 144.875 51.7849 146.638 52.7549L153.6 56.5842C153.93 56.7654 154.13 57.1163 154.118 57.4923L153.601 73.6729Z" fill="#F6F2E9" stroke="#366574" stroke-width="2" stroke-linecap="round" stroke-linejoin="round"/>
<rect x="158.15" y="63.2837" width="11.1133" height="10.202" fill="#F6F2E9" stroke="#366574" stroke-width="2" stroke-linecap="round" stroke-linejoin="round"/>
<path d="M194.707 95.881C194.983 95.4038 194.821 94.7929 194.345 94.5155L179.451 85.8448C178.977 85.5687 178.368 85.7264 178.088 86.1982L166.359 105.938C166.223 106.167 166.184 106.44 166.25 106.698C166.317 106.956 166.483 107.176 166.712 107.311L181.792 116.166C182.022 116.301 182.296 116.339 182.553 116.271C182.811 116.203 183.031 116.036 183.164 115.805L194.707 95.881Z" fill="#F6F2E9" stroke="#366574" stroke-width="2" stroke-linecap="round" stroke-linejoin="round"/>
<path d="M186.877 108.587C186.791 108.544 186.699 108.498 186.603 108.451C185.665 107.987 184.319 107.322 183.465 106.242C182.963 105.608 182.617 104.824 182.577 103.868C182.538 102.928 182.797 101.898 183.37 100.758C183.922 99.6592 184.584 98.8623 185.356 98.345C186.138 97.8213 186.967 97.6271 187.77 97.6351C189.26 97.6499 190.698 98.3735 191.67 98.862C191.695 98.8749 191.72 98.8876 191.745 98.9001C192.369 99.2137 192.876 99.6194 193.232 100.134C193.592 100.655 193.76 101.231 193.789 101.821C193.845 102.949 193.39 104.146 192.828 105.263C192.263 106.389 191.536 107.536 190.587 108.254C190.097 108.624 189.523 108.899 188.868 108.976C188.206 109.053 187.537 108.918 186.877 108.587Z" fill="#F6F2E9" stroke="#366574" stroke-width="2" stroke-linecap="round" stroke-linejoin="round"/>
<path d="M143.865 10.9422C143.171 9.76547 141.469 9.76547 140.776 10.9422L137.455 16.5773C135.261 20.3016 138.005 24.9854 142.32 24.8985C146.636 24.9854 149.38 20.3016 147.185 16.5773L143.865 10.9422Z" fill="#F6F2E9" stroke="#366574" stroke-width="2" stroke-linecap="round" stroke-linejoin="round"/>
<path d="M138.621 21.6162C138.352 21.6162 138.095 21.7245 137.907 21.9166C137.718 22.1088 137.616 22.3686 137.621 22.6374L138.155 47.7957C138.19 49.4274 139.522 50.7321 141.154 50.7321H142.812C144.436 50.7321 145.765 49.4401 145.811 47.8169L146.523 22.6445C146.531 22.3745 146.429 22.1129 146.24 21.9192C146.052 21.7255 145.793 21.6162 145.523 21.6162H138.621Z" fill="#F6F2E9" stroke="#366574" stroke-width="2" stroke-linecap="round" stroke-linejoin="round"/>
<path d="M150.937 65.4137C151.182 65.2788 151.359 65.0476 151.425 64.776C151.492 64.5045 151.442 64.2174 151.287 63.9845C150.709 63.1132 149.809 61.6726 149.001 60.2012C148.174 58.6943 147.513 57.2754 147.323 56.4027C147.274 56.1781 147.234 55.7518 147.216 55.1145C147.198 54.4961 147.201 53.737 147.22 52.8798C147.258 51.1661 147.356 49.101 147.461 47.0623C147.485 46.6031 147.509 46.145 147.533 45.6928C147.614 44.1447 147.691 42.6653 147.739 41.4446C147.77 40.6561 147.789 39.9626 147.788 39.4203C147.787 39.1497 147.781 38.9056 147.769 38.7006C147.757 38.5185 147.736 38.2909 147.68 38.0959C147.513 37.5186 147.028 37.2106 146.724 37.0575C146.376 36.8824 145.96 36.7598 145.542 36.6706C144.697 36.4902 143.648 36.4067 142.634 36.4067C141.622 36.4067 140.582 36.49 139.755 36.672C139.348 36.7615 138.937 36.8869 138.596 37.0719C138.298 37.2335 137.793 37.5838 137.699 38.2308C137.643 38.6205 137.584 39.8558 137.524 41.4426C137.462 43.0684 137.398 45.1509 137.339 47.3062C137.223 51.6119 137.129 56.231 137.129 58.0889C137.129 58.8721 137.399 59.8216 137.738 60.754C138.087 61.7151 138.557 62.7775 139.042 63.8244C139.298 64.3752 139.554 64.9169 139.802 65.4395C140.523 66.9602 141.167 68.3187 141.472 69.2667C141.564 69.5508 141.778 69.7791 142.055 69.8892C142.333 69.9994 142.645 69.9797 142.906 69.8357L150.937 65.4137Z" fill="#F6F2E9" stroke="#366574" stroke-width="2" stroke-linecap="round" stroke-linejoin="round"/>
<path d="M139.131 68.6612C138.756 68.8645 138.551 69.2828 138.621 69.7033C138.747 70.4654 138.981 71.7036 139.279 72.9625C139.572 74.2023 139.943 75.5364 140.354 76.4476C141.065 78.0248 142.444 80.0999 143.199 81.1656L142.661 94.5568C142.648 94.8696 142.783 95.1703 143.025 95.3692C143.266 95.5681 143.587 95.6423 143.892 95.5696C147.494 94.71 153.268 92.5902 159.008 89.0095C164.748 85.4294 170.523 80.3446 174.022 73.5231C174.181 73.2131 174.167 72.8426 173.986 72.5453C173.804 72.248 173.481 72.0667 173.132 72.0667H161.69C160.33 70.986 158.359 69.3173 156.563 67.5821C155.604 66.6552 154.706 65.7204 153.982 64.8543C153.245 63.973 152.739 63.2221 152.503 62.6584C152.394 62.3974 152.18 62.1949 151.913 62.1008C151.646 62.0068 151.352 62.0301 151.104 62.165L139.131 68.6612Z" fill="#F6F2E9" stroke="#366574" stroke-width="2" stroke-linecap="round" stroke-linejoin="round"/>
<path d="M141.718 94.1476C141.284 94.2271 140.953 94.5823 140.904 95.0214L139.602 106.812C139.568 107.116 139.676 107.419 139.893 107.634C140.111 107.849 140.415 107.952 140.719 107.915C147.046 107.131 156.553 104.415 164.58 98.7824C172.634 93.1305 179.25 84.4965 179.558 71.9424C179.564 71.6731 179.462 71.4124 179.274 71.2196C179.085 71.0267 178.827 70.918 178.558 70.918H173.534C173.153 70.918 172.806 71.1335 172.637 71.4741C169.565 77.6763 159.029 90.9791 141.718 94.1476Z" fill="#366574" stroke="#366574" stroke-width="2" stroke-linecap="round" stroke-linejoin="round"/>
<path d="M141.076 115.237C141.058 115.516 141.157 115.79 141.35 115.993C141.542 116.195 141.811 116.308 142.09 116.304C149.961 116.177 169.452 111.92 185.362 95.9843C185.396 95.9508 185.427 95.915 185.455 95.8772C185.481 95.8426 185.532 95.7863 185.601 95.709C185.911 95.3637 186.597 94.5988 187.149 93.4728C187.853 92.0382 188.432 89.9355 188.432 86.7482C188.432 79.833 183.922 74.6229 181.176 72.5933C181.004 72.4661 180.796 72.3975 180.582 72.3975H178.545C178.039 72.3975 177.613 72.7758 177.552 73.2785C176.482 82.215 167.995 101.469 142.456 105.975C142.003 106.055 141.662 106.434 141.632 106.893L141.076 115.237Z" fill="#F6F2E9" stroke="#366574" stroke-width="2" stroke-linecap="round" stroke-linejoin="round"/>
<path d="M175.206 84.3531C174.992 84.1612 174.705 84.0709 174.42 84.1053C174.134 84.1397 173.877 84.2955 173.714 84.5327L168.707 91.8366C168.431 92.2395 168.486 92.7828 168.838 93.1219L173.108 97.2401C173.325 97.4492 173.625 97.5494 173.924 97.5129C174.223 97.4763 174.489 97.3068 174.649 97.0516L179.503 89.3141C179.761 88.9015 179.685 88.3625 179.322 88.0377L175.206 84.3531Z" fill="#F6F2E9" stroke="#366574" stroke-width="2" stroke-linecap="round" stroke-linejoin="round"/>
<path d="M173.639 52.2831C173.639 51.9919 173.512 51.7151 173.291 51.5251C170.096 48.7755 166.123 47.8856 162.591 48.1145C159.098 48.3409 155.85 49.6771 154.14 51.6229C153.979 51.8054 153.891 52.0401 153.891 52.2831V57.0531C153.891 57.4505 154.126 57.8103 154.49 57.9694C154.854 58.1286 155.278 58.0569 155.57 57.7868C158.638 54.9457 162.183 54.3426 165.264 54.7554C168.404 55.176 170.933 56.6328 171.89 57.7152C172.165 58.0267 172.604 58.1355 172.993 57.9883C173.382 57.8412 173.639 57.4688 173.639 57.0531V52.2831Z" fill="#366574" stroke="#366574" stroke-width="2" stroke-linecap="round" stroke-linejoin="round"/>
<rect x="139.102" y="183.819" width="13.8324" height="22.2136" fill="#F6F2E9" stroke="#366574" stroke-width="2" stroke-linecap="round" stroke-linejoin="round"/>
<rect x="128.748" y="180.86" width="69.0501" height="29.6089" fill="#F6F2E9" stroke="#366574" stroke-width="2" stroke-linecap="round" stroke-linejoin="round"/>
<rect x="156.738" y="186.502" width="13.2387" height="18.8581" fill="#366574" stroke="#366574" stroke-width="2" stroke-linecap="round" stroke-linejoin="round"/>
<rect x="174.533" y="186.502" width="13.2387" height="18.8581" fill="#366574" stroke="#366574" stroke-width="2" stroke-linecap="round" stroke-linejoin="round"/>
<path d="M154.823 56.9367C154.599 57.2048 154.49 57.55 154.519 57.8966C155.446 69.1586 171.966 69.1586 172.894 57.8966L171.897 57.8145L154.823 56.9367ZM154.823 56.9367C159.453 51.4042 167.959 51.4041 172.589 56.9367C172.589 56.9367 172.589 56.9367 172.589 56.9367L171.822 57.5785L154.823 56.9367Z" fill="#F6F2E9" stroke="#366574" stroke-width="2" stroke-linecap="round" stroke-linejoin="round"/>
<path d="M138.951 44.3216C139.029 44.3216 139.112 44.3222 139.2 44.3228C140.046 44.3291 141.318 44.3385 142.38 43.831C143.011 43.5292 143.578 43.0478 143.974 42.3162C144.362 41.6002 144.553 40.7072 144.553 39.6247C144.553 38.5799 144.359 37.7098 143.971 37.005C143.577 36.2892 143.017 35.8081 142.398 35.4966C141.265 34.9263 139.91 34.9271 139.032 34.9277C139.004 34.9277 138.977 34.9277 138.951 34.9277C138.354 34.9277 137.802 35.0465 137.319 35.3171C136.832 35.5904 136.477 35.9842 136.228 36.4356C135.756 37.2933 135.65 38.3903 135.65 39.4398C135.65 40.4979 135.759 41.6547 136.203 42.5788C136.432 43.057 136.766 43.5052 137.249 43.831C137.737 44.1608 138.314 44.3216 138.951 44.3216Z" fill="#F6F2E9" stroke="#366574" stroke-width="2" stroke-linecap="round" stroke-linejoin="round"/>
<path d="M144.538 24.0815H139.115C136.657 24.0815 134.664 26.0744 134.664 28.5327C134.664 30.9909 136.657 32.9838 139.115 32.9838H144.538C146.997 32.9838 148.989 30.9909 148.989 28.5327C148.989 26.0744 146.997 24.0815 144.538 24.0815Z" fill="#366574" stroke="#366574" stroke-width="2" stroke-linecap="round" stroke-linejoin="round"/>
<rect x="134.664" y="146.992" width="57.2178" height="12.8463" rx="3" fill="#F6F2E9" stroke="#366574" stroke-width="2" stroke-linecap="round" stroke-linejoin="round"/>
<rect x="128.254" y="157.345" width="69.5432" height="11.8603" rx="3" fill="#F6F2E9" stroke="#366574" stroke-width="2" stroke-linecap="round" stroke-linejoin="round"/>
<rect x="124.805" y="168.042" width="77.4314" height="15.3114" rx="3" fill="#F6F2E9" stroke="#366574" stroke-width="2" stroke-linecap="round" stroke-linejoin="round"/>
<path d="M341.944 68.169C341.779 67.8386 341.445 67.6261 341.076 67.6165C340.706 67.607 340.362 67.8018 340.18 68.1232L335.989 75.5184C335.907 75.6639 335.862 75.8277 335.859 75.9949L333.641 209.849C333.636 210.117 333.74 210.375 333.928 210.566C334.116 210.758 334.373 210.865 334.641 210.865H346.226C346.494 210.865 346.75 210.758 346.937 210.568C347.125 210.378 347.229 210.121 347.226 209.854L345.952 94.4885L345.747 76.0004C345.746 75.8489 345.71 75.6998 345.642 75.5642L341.944 68.169Z" fill="#F6F2E9" stroke="#366574" stroke-width="2" stroke-linecap="round" stroke-linejoin="round"/>
<path d="M367.581 68.169C367.416 67.8386 367.082 67.6261 366.712 67.6165C366.343 67.607 365.999 67.8018 365.817 68.1232L361.626 75.5184C361.543 75.6639 361.499 75.8277 361.496 75.9949L359.277 209.849C359.273 210.117 359.376 210.375 359.564 210.566C359.752 210.758 360.009 210.865 360.277 210.865H371.863C372.13 210.865 372.386 210.758 372.574 210.568C372.762 210.378 372.866 210.121 372.863 209.854L371.384 76.0004C371.382 75.8489 371.346 75.6998 371.279 75.5642L367.581 68.169Z" fill="#F6F2E9" stroke="#366574" stroke-width="2" stroke-linecap="round" stroke-linejoin="round"/>
<rect x="356.32" y="185.94" width="20.2416" height="13.8324" fill="#F6F2E9" stroke="#366574" stroke-width="2" stroke-linecap="round" stroke-linejoin="round"/>
<rect x="329.203" y="197.28" width="20.2416" height="13.8324" fill="#F6F2E9" stroke="#366574" stroke-width="2" stroke-linecap="round" stroke-linejoin="round"/>
<path d="M341.944 68.169C341.779 67.8386 341.445 67.6261 341.076 67.6165C340.706 67.607 340.362 67.8018 340.18 68.1232L335.989 75.5184C335.907 75.6639 335.862 75.8277 335.859 75.9949L333.641 209.849C333.636 210.117 333.74 210.375 333.928 210.566C334.116 210.758 334.373 210.865 334.641 210.865H346.226C346.494 210.865 346.75 210.758 346.937 210.568C347.125 210.378 347.229 210.121 347.226 209.854L345.952 94.4885L345.747 76.0004C345.746 75.8489 345.71 75.6998 345.642 75.5642L341.944 68.169Z" fill="#F6F2E9" stroke="#366574" stroke-width="2" stroke-linecap="round" stroke-linejoin="round"/>
<path d="M367.581 68.169C367.416 67.8386 367.082 67.6261 366.712 67.6165C366.343 67.607 365.999 67.8018 365.817 68.1232L361.626 75.5184C361.543 75.6639 361.499 75.8277 361.496 75.9949L359.277 209.849C359.273 210.117 359.376 210.375 359.564 210.566C359.752 210.758 360.009 210.865 360.277 210.865H371.863C372.13 210.865 372.386 210.758 372.574 210.568C372.762 210.378 372.866 210.121 372.863 209.854L371.384 76.0004C371.382 75.8489 371.346 75.6998 371.279 75.5642L367.581 68.169Z" fill="#F6F2E9" stroke="#366574" stroke-width="2" stroke-linecap="round" stroke-linejoin="round"/>
<rect x="356.32" y="185.94" width="20.2416" height="13.8324" fill="#366574" stroke="#366574" stroke-width="2" stroke-linecap="round" stroke-linejoin="round"/>
<rect x="329.369" y="185.94" width="20.2416" height="13.8324" fill="#366574" stroke="#366574" stroke-width="2" stroke-linecap="round" stroke-linejoin="round"/>
<rect x="323.9" y="197.025" width="25.6946" height="13.8473" fill="#F6F2E9" stroke="#366574" stroke-width="2" stroke-linecap="round" stroke-linejoin="round"/>
<path d="M344.256 94.5H362.744" stroke="#366574" stroke-width="2" stroke-linecap="round" stroke-linejoin="round"/>
<path d="M344.256 100.909H362.744" stroke="#366574" stroke-width="2" stroke-linecap="round" stroke-linejoin="round"/>
<path d="M344.256 109.29H362.744" stroke="#366574" stroke-width="2" stroke-linecap="round" stroke-linejoin="round"/>
<path d="M344.256 116.686H362.744" stroke="#366574" stroke-width="2" stroke-linecap="round" stroke-linejoin="round"/>
<path d="M344.256 123.095H362.744" stroke="#366574" stroke-width="2" stroke-linecap="round" stroke-linejoin="round"/>
<path d="M344.256 131.476H362.744" stroke="#366574" stroke-width="2" stroke-linecap="round" stroke-linejoin="round"/>
<path d="M498.231 68.6626C498.066 68.3322 497.732 68.1198 497.363 68.1102C496.994 68.1006 496.649 68.2954 496.467 68.6169L492.276 76.0121C492.194 76.1575 492.149 76.3214 492.146 76.4885L489.928 210.342C489.923 210.61 490.027 210.869 490.215 211.06C490.403 211.251 490.66 211.359 490.928 211.359H502.514C502.781 211.359 503.037 211.252 503.225 211.062C503.412 210.872 503.516 210.615 503.514 210.348L502.239 94.9821L502.034 76.4941C502.033 76.3425 501.997 76.1934 501.929 76.0579L498.231 68.6626Z" fill="#F6F2E9" stroke="#366574" stroke-width="2" stroke-linecap="round" stroke-linejoin="round"/>
<path d="M523.868 68.6626C523.703 68.3322 523.369 68.1198 523 68.1102C522.63 68.1006 522.286 68.2954 522.104 68.6169L517.913 76.0121C517.831 76.1575 517.786 76.3214 517.783 76.4885L515.565 210.342C515.56 210.61 515.664 210.869 515.852 211.06C516.04 211.251 516.296 211.359 516.564 211.359H528.15C528.417 211.359 528.673 211.252 528.861 211.062C529.049 210.872 529.153 210.615 529.15 210.348L527.671 76.4941C527.67 76.3425 527.633 76.1934 527.566 76.0579L523.868 68.6626Z" fill="#F6F2E9" stroke="#366574" stroke-width="2" stroke-linecap="round" stroke-linejoin="round"/>
<rect x="512.605" y="186.433" width="20.2416" height="13.8324" fill="#F6F2E9" stroke="#366574" stroke-width="2" stroke-linecap="round" stroke-linejoin="round"/>
<rect x="503.73" y="197.772" width="37.4971" height="13.8324" fill="#F6F2E9" stroke="#366574" stroke-width="2" stroke-linecap="round" stroke-linejoin="round"/>
<path d="M498.231 68.6626C498.066 68.3322 497.732 68.1198 497.363 68.1102C496.994 68.1006 496.649 68.2954 496.467 68.6169L492.276 76.0121C492.194 76.1575 492.149 76.3214 492.146 76.4885L489.928 210.342C489.923 210.61 490.027 210.869 490.215 211.06C490.403 211.251 490.66 211.359 490.928 211.359H502.514C502.781 211.359 503.037 211.252 503.225 211.062C503.412 210.872 503.516 210.615 503.514 210.348L502.239 94.9821L502.034 76.4941C502.033 76.3425 501.997 76.1934 501.929 76.0579L498.231 68.6626Z" fill="#F6F2E9" stroke="#366574" stroke-width="2" stroke-linecap="round" stroke-linejoin="round"/>
<path d="M523.868 68.6626C523.703 68.3322 523.369 68.1198 523 68.1102C522.63 68.1006 522.286 68.2954 522.104 68.6169L517.913 76.0121C517.831 76.1575 517.786 76.3214 517.783 76.4885L515.565 210.342C515.56 210.61 515.664 210.869 515.852 211.06C516.04 211.251 516.296 211.359 516.564 211.359H528.15C528.417 211.359 528.673 211.252 528.861 211.062C529.049 210.872 529.153 210.615 529.15 210.348L527.671 76.4941C527.67 76.3425 527.633 76.1934 527.566 76.0579L523.868 68.6626Z" fill="#F6F2E9" stroke="#366574" stroke-width="2" stroke-linecap="round" stroke-linejoin="round"/>
<rect x="512.605" y="186.433" width="20.2416" height="13.8324" fill="#366574" stroke="#366574" stroke-width="2" stroke-linecap="round" stroke-linejoin="round"/>
<rect x="513.592" y="197.772" width="27.6368" height="13.8324" fill="#F6F2E9" stroke="#366574" stroke-width="2" stroke-linecap="round" stroke-linejoin="round"/>
<rect x="486.969" y="186.433" width="20.2416" height="13.8324" fill="#F6F2E9" stroke="#366574" stroke-width="2" stroke-linecap="round" stroke-linejoin="round"/>
<rect x="478.094" y="197.772" width="37.4971" height="13.8324" fill="#F6F2E9" stroke="#366574" stroke-width="2" stroke-linecap="round" stroke-linejoin="round"/>
<rect x="486.969" y="186.433" width="20.2416" height="13.8324" fill="#366574" stroke="#366574" stroke-width="2" stroke-linecap="round" stroke-linejoin="round"/>
<rect x="478.094" y="197.772" width="37.4971" height="13.8324" fill="#F6F2E9" stroke="#366574" stroke-width="2" stroke-linecap="round" stroke-linejoin="round"/>
<path d="M500.539 94.9922H519.027" stroke="#366574" stroke-width="2" stroke-linecap="round" stroke-linejoin="round"/>
<path d="M500.539 101.402H519.027" stroke="#366574" stroke-width="2" stroke-linecap="round" stroke-linejoin="round"/>
<path d="M500.539 109.784H519.027" stroke="#366574" stroke-width="2" stroke-linecap="round" stroke-linejoin="round"/>
<path d="M500.539 117.179H519.027" stroke="#366574" stroke-width="2" stroke-linecap="round" stroke-linejoin="round"/>
<path d="M500.539 123.588H519.027" stroke="#366574" stroke-width="2" stroke-linecap="round" stroke-linejoin="round"/>
<path d="M500.539 131.969H519.027" stroke="#366574" stroke-width="2" stroke-linecap="round" stroke-linejoin="round"/>
<rect x="319.344" y="157.345" width="233.717" height="13.3394" fill="#366574" stroke="#366574" stroke-width="2" stroke-linecap="round" stroke-linejoin="round"/>
<rect x="347.447" y="197.28" width="37.4971" height="13.8324" fill="#F6F2E9" stroke="#366574" stroke-width="2" stroke-linecap="round" stroke-linejoin="round"/>
<rect y="210" width="579" height="43" rx="21.5" fill="#B4D2D4"/>
<circle cx="293.724" cy="189.9" r="10.1208" fill="#F6C0AB" stroke="#366574" stroke-width="2" stroke-linecap="round" stroke-linejoin="round"/>
<line x1="294.033" y1="199.937" x2="294.033" y2="209.132" stroke="#366574" stroke-width="2"/>
<circle cx="341.234" cy="189.9" r="10.1208" fill="#F6C0AB" stroke="#366574" stroke-width="2" stroke-linecap="round" stroke-linejoin="round"/>
<line x1="341.543" y1="199.937" x2="341.543" y2="209.132" stroke="#366574" stroke-width="2"/>
<circle cx="388.744" cy="189.9" r="10.1208" fill="#F6C0AB" stroke="#366574" stroke-width="2" stroke-linecap="round" stroke-linejoin="round"/>
<line x1="389.053" y1="199.937" x2="389.053" y2="209.132" stroke="#366574" stroke-width="2"/>
<circle cx="436.254" cy="189.9" r="10.1208" fill="#F6C0AB" stroke="#366574" stroke-width="2" stroke-linecap="round" stroke-linejoin="round"/>
<line x1="436.562" y1="199.937" x2="436.562" y2="209.132" stroke="#366574" stroke-width="2"/>
<circle cx="483.765" cy="189.9" r="10.1208" fill="#F6C0AB" stroke="#366574" stroke-width="2" stroke-linecap="round" stroke-linejoin="round"/>
<line x1="484.074" y1="199.937" x2="484.074" y2="209.132" stroke="#366574" stroke-width="2"/>
<path d="M334.8 13.44H339.48V31.24C339.48 33.72 340.053 35.5467 341.2 36.72C342.32 37.8933 344.147 38.48 346.68 38.48C349.16 38.48 350.987 37.8933 352.16 36.72C353.307 35.4933 353.88 33.6667 353.88 31.24V13.44H358.56V31.16C358.56 34.8667 357.52 37.7067 355.44 39.68C353.36 41.6 350.44 42.56 346.68 42.56C342.893 42.56 339.987 41.6133 337.96 39.72C335.853 37.72 334.8 34.8667 334.8 31.16V13.44ZM374.255 12.88C377.642 12.88 380.268 13.5733 382.135 14.96C384.135 16.4533 385.282 18.76 385.575 21.88H380.935C380.535 20.12 379.802 18.8533 378.735 18.08C377.722 17.3067 376.148 16.92 374.015 16.92C372.202 16.92 370.828 17.1733 369.895 17.68C368.722 18.2667 368.135 19.2533 368.135 20.64C368.135 21.8933 368.802 22.8667 370.135 23.56C370.775 23.9067 372.402 24.4933 375.015 25.32C376.962 25.9067 378.548 26.44 379.775 26.92C381.028 27.4 381.935 27.8 382.495 28.12C384.975 29.5867 386.215 31.64 386.215 34.28C386.215 36.84 385.215 38.8667 383.215 40.36C381.188 41.8267 378.362 42.56 374.735 42.56C371.215 42.56 368.468 41.88 366.495 40.52C364.068 38.84 362.762 36.1867 362.575 32.56H367.215C367.535 34.7467 368.308 36.2933 369.535 37.2C370.682 38.0267 372.415 38.44 374.735 38.44C376.815 38.44 378.468 38.0933 379.695 37.4C380.922 36.6533 381.535 35.7067 381.535 34.56C381.535 33.04 380.642 31.84 378.855 30.96C378.588 30.8267 377.988 30.6 377.055 30.28C376.122 29.96 374.868 29.56 373.295 29.08C369.748 27.96 367.562 27.16 366.735 26.68C364.548 25.3733 363.455 23.4533 363.455 20.92C363.455 18.36 364.522 16.3733 366.655 14.96C368.628 13.5733 371.162 12.88 374.255 12.88ZM398.35 13.44H403.67L414.59 42H409.59L406.99 34.84H395.03L392.43 42H387.43L398.35 13.44ZM396.43 31H405.59L401.11 18.48H400.95L396.43 31Z" fill="#B2D3D4"/>
<path d="M444.28 13.44H447.8V42H443.12V19.08C441.387 20.6533 439.213 21.8133 436.6 22.56V17.92C437.88 17.6 439.24 17.04 440.68 16.24C442.147 15.3333 443.347 14.4 444.28 13.44ZM466.126 13.44H470.406V32.16H474.646V35.88H470.406V42H465.966V35.88H452.166V31.44L466.126 13.44ZM465.846 19.36L455.966 32.16H465.966V19.36H465.846ZM505.671 26.36C507.937 26.36 509.657 27.1467 510.831 28.72C511.897 30.1067 512.431 31.9333 512.431 34.2C512.431 36.4133 511.897 38.24 510.831 39.68C509.604 41.2267 507.884 42 505.671 42C503.431 42 501.697 41.2267 500.471 39.68C499.377 38.2667 498.831 36.44 498.831 34.2C498.831 31.88 499.377 30.0533 500.471 28.72C501.644 27.1467 503.377 26.36 505.671 26.36ZM501.591 12.88H505.071L489.031 42.56H485.551L501.591 12.88ZM485.031 13.44C487.297 13.44 489.017 14.2267 490.191 15.8C491.257 17.1867 491.791 19.0133 491.791 21.28C491.791 23.4933 491.257 25.32 490.191 26.76C488.964 28.3067 487.244 29.08 485.031 29.08C482.791 29.08 481.057 28.3067 479.831 26.76C478.737 25.3467 478.191 23.52 478.191 21.28C478.191 18.96 478.737 17.1333 479.831 15.8C481.004 14.2267 482.737 13.44 485.031 13.44ZM505.671 29.28C504.657 29.28 503.951 29.8 503.551 30.84C503.231 31.64 503.071 32.76 503.071 34.2C503.071 35.6133 503.231 36.72 503.551 37.52C503.951 38.56 504.657 39.08 505.671 39.08C506.604 39.08 507.297 38.5333 507.751 37.44C508.044 36.6133 508.191 35.5333 508.191 34.2C508.191 32.7867 508.031 31.68 507.711 30.88C507.311 29.8133 506.631 29.28 505.671 29.28ZM485.031 16.36C484.017 16.36 483.311 16.88 482.911 17.92C482.591 18.72 482.431 19.84 482.431 21.28C482.431 22.6933 482.591 23.8 482.911 24.6C483.311 25.64 484.017 26.16 485.031 26.16C485.964 26.16 486.657 25.6133 487.111 24.52C487.404 23.6933 487.551 22.6133 487.551 21.28C487.551 19.8667 487.391 18.76 487.071 17.96C486.671 16.8933 485.991 16.36 485.031 16.36Z" fill="#B2D3D4"/>
</svg>
