<svg width="155" height="240" viewBox="0 0 155 240" fill="none" xmlns="http://www.w3.org/2000/svg">
<path d="M1.09961 6.1953C1.09961 3.43388 3.33818 1.19531 6.09961 1.19531H142.15C148.225 1.19531 153.15 6.12018 153.15 12.1953V190.805C153.15 196.88 148.225 201.805 142.15 201.805H6.09961C3.33819 201.805 1.09961 199.566 1.09961 196.805V6.1953Z" fill="#F6F2E9" stroke="#3A6F7E" stroke-width="2"/>
<circle cx="77.1004" cy="108.198" r="36.0008" fill="#B4D2D4" stroke="#3A6F7E" stroke-width="2"/>
<path d="M71.2401 73.8716C63.6586 83.7973 53.0445 111.424 71.2401 142.524" stroke="#3A6F7E" stroke-width="2" stroke-linecap="round"/>
<path d="M82.9611 73.8716C90.5426 83.7973 101.157 111.424 82.9611 142.524" stroke="#3A6F7E" stroke-width="2" stroke-linecap="round"/>
<path d="M111.846 101.919C101.799 93.826 73.8355 82.4955 42.3558 101.919" stroke="#3A6F7E" stroke-width="2" stroke-linecap="round"/>
<path d="M111.846 113.64C101.799 121.733 73.8355 133.064 42.3558 113.64" stroke="#3A6F7E" stroke-width="2" stroke-linecap="round"/>
<path d="M58.0726 46.5986H55.4277L58.8631 36.4168H62.1394L65.5748 46.5986H62.9299L60.5385 38.9822H60.459L58.0726 46.5986ZM57.7196 42.5915H63.248V44.4608H57.7196V42.5915ZM70.8198 38.9623V40.752H65.9078V38.9623H70.8198ZM66.932 46.5986V38.5745C66.932 37.9845 67.043 37.4956 67.2651 37.1079C67.4872 36.7168 67.7954 36.4251 68.1898 36.2329C68.5842 36.0373 69.04 35.9395 69.557 35.9395C69.8951 35.9395 70.2132 35.9661 70.5115 36.0191C70.8132 36.0688 71.0369 36.1135 71.1827 36.1533L70.7949 37.9331C70.7054 37.9033 70.5961 37.8785 70.4668 37.8586C70.3408 37.8387 70.2215 37.8287 70.1088 37.8287C69.8238 37.8287 69.6283 37.8917 69.5222 38.0177C69.4161 38.1436 69.3631 38.316 69.3631 38.5347V46.5986H66.932ZM71.9893 46.5986V38.9623H74.3509V40.3543H74.4304C74.5696 39.8505 74.7966 39.476 75.1115 39.2307C75.4264 38.9822 75.7926 38.8579 76.2102 38.8579C76.3229 38.8579 76.4389 38.8662 76.5582 38.8827C76.6776 38.896 76.7886 38.9175 76.8913 38.9474V41.0603C76.7753 41.0205 76.6229 40.989 76.4339 40.9658C76.2483 40.9426 76.0826 40.931 75.9368 40.931C75.6484 40.931 75.3883 40.9956 75.1562 41.1249C74.9276 41.2509 74.7469 41.4282 74.6143 41.6569C74.4851 41.8822 74.4205 42.1474 74.4205 42.4523V46.5986H71.9893ZM77.8819 46.5986V38.9623H80.313V46.5986H77.8819ZM79.1 38.0724C78.7586 38.0724 78.4653 37.9597 78.22 37.7343C77.9747 37.5056 77.8521 37.2305 77.8521 36.909C77.8521 36.5908 77.9747 36.319 78.22 36.0937C78.4653 35.865 78.7586 35.7506 79.1 35.7506C79.4447 35.7506 79.738 35.865 79.9799 36.0937C80.2252 36.319 80.3478 36.5908 80.3478 36.909C80.3478 37.2305 80.2252 37.5056 79.9799 37.7343C79.738 37.9597 79.4447 38.0724 79.1 38.0724ZM85.4251 46.7428C84.6197 46.7428 83.9286 46.5771 83.3519 46.2456C82.7785 45.9142 82.3377 45.4535 82.0295 44.8635C81.7212 44.2703 81.5671 43.5842 81.5671 42.8053C81.5671 42.0231 81.7212 41.337 82.0295 40.7471C82.341 40.1538 82.7835 39.6914 83.3569 39.36C83.9336 39.0286 84.6213 38.8628 85.4201 38.8628C86.1261 38.8628 86.7409 38.9904 87.2646 39.2456C87.7915 39.5009 88.2025 39.8621 88.4975 40.3295C88.7958 40.7935 88.9532 41.3387 88.9698 41.9651H86.6978C86.6514 41.574 86.5188 41.2674 86.3001 41.0454C86.0846 40.8233 85.8029 40.7123 85.4549 40.7123C85.1732 40.7123 84.9263 40.7918 84.7141 40.9509C84.502 41.1067 84.3363 41.3387 84.217 41.6469C84.101 41.9519 84.043 42.3297 84.043 42.7805C84.043 43.2312 84.101 43.6124 84.217 43.9239C84.3363 44.2322 84.502 44.4658 84.7141 44.6249C84.9263 44.7807 85.1732 44.8586 85.4549 44.8586C85.6803 44.8586 85.8791 44.8105 86.0515 44.7144C86.2272 44.6183 86.3713 44.4774 86.484 44.2918C86.5967 44.1029 86.668 43.8742 86.6978 43.6057H88.9698C88.9466 44.2355 88.7892 44.7857 88.4975 45.2563C88.2092 45.7269 87.8031 46.0932 87.2795 46.355C86.7591 46.6135 86.141 46.7428 85.4251 46.7428ZM92.3667 46.7279C91.8794 46.7279 91.4469 46.6467 91.0691 46.4843C90.6945 46.3186 90.3979 46.07 90.1792 45.7385C89.9637 45.4038 89.856 44.9845 89.856 44.4807C89.856 44.0565 89.9306 43.6985 90.0797 43.4069C90.2289 43.1152 90.4344 42.8782 90.6962 42.6959C90.958 42.5136 91.2596 42.3761 91.601 42.2833C91.9424 42.1872 92.307 42.1225 92.6948 42.0894C93.129 42.0496 93.4786 42.0082 93.7438 41.9651C94.0089 41.9187 94.2012 41.8541 94.3205 41.7712C94.4431 41.685 94.5044 41.5641 94.5044 41.4083V41.3834C94.5044 41.1282 94.4166 40.931 94.2409 40.7918C94.0653 40.6526 93.8283 40.583 93.53 40.583C93.2085 40.583 92.95 40.6526 92.7544 40.7918C92.5589 40.931 92.4346 41.1233 92.3816 41.3685L90.1394 41.289C90.2057 40.825 90.3764 40.4107 90.6515 40.0461C90.9299 39.6782 91.311 39.3898 91.7949 39.181C92.2821 38.9689 92.8671 38.8628 93.5499 38.8628C94.0371 38.8628 94.4862 38.9208 94.8972 39.0368C95.3082 39.1495 95.6661 39.3153 95.9711 39.534C96.276 39.7494 96.5113 40.0146 96.677 40.3295C96.8461 40.6443 96.9306 41.0039 96.9306 41.4083V46.5986H94.6436V45.5347H94.584C94.4481 45.7932 94.2741 46.012 94.062 46.191C93.8532 46.3699 93.6062 46.5042 93.3212 46.5937C93.0395 46.6831 92.7213 46.7279 92.3667 46.7279ZM93.1174 45.137C93.3792 45.137 93.6145 45.084 93.8233 44.9779C94.0355 44.8718 94.2045 44.726 94.3304 44.5404C94.4564 44.3515 94.5194 44.1327 94.5194 43.8841V43.1583C94.4498 43.1948 94.3652 43.2279 94.2658 43.2577C94.1697 43.2876 94.0636 43.3157 93.9476 43.3422C93.8316 43.3688 93.7123 43.392 93.5897 43.4118C93.467 43.4317 93.3494 43.45 93.2367 43.4665C93.008 43.503 92.8124 43.5593 92.65 43.6356C92.4909 43.7118 92.3683 43.8112 92.2821 43.9339C92.1993 44.0532 92.1578 44.1957 92.1578 44.3614C92.1578 44.6133 92.2473 44.8055 92.4263 44.9381C92.6086 45.0707 92.839 45.137 93.1174 45.137Z" fill="#3A6F7E"/>
<rect x="32.0996" y="162.618" width="90.4207" height="6.69783" rx="3.34891" fill="#3A6F7E"/>
<rect x="51.0996" y="172.665" width="51.9082" height="5.02337" rx="2.51168" fill="#3A6F7E"/>
<path d="M78.7129 216.097H80.9129V226.481H83.2889V228.395H80.9129V231.805H78.6249V228.395H70.9689V226.129L78.7129 216.097ZM78.5589 219.133L72.9269 226.481H78.6249V219.133H78.5589Z" fill="black"/>
</svg>
