<svg width="155" height="240" viewBox="0 0 155 240" fill="none" xmlns="http://www.w3.org/2000/svg">
<path d="M1.15039 6.1953C1.15039 3.43388 3.38897 1.19531 6.15039 1.19531H142.2C148.276 1.19531 153.2 6.12018 153.2 12.1953V190.805C153.2 196.88 148.276 201.805 142.2 201.805H6.15039C3.38897 201.805 1.15039 199.566 1.15039 196.805V6.1953Z" fill="#F6F2E9" stroke="#3A6F7E" stroke-width="2"/>
<circle cx="77.1512" cy="108.198" r="36.0008" fill="#B4D2D4" stroke="#3A6F7E" stroke-width="2"/>
<path d="M71.2909 73.8716C63.7094 83.7973 53.0953 111.424 71.2909 142.524" stroke="#3A6F7E" stroke-width="2" stroke-linecap="round"/>
<path d="M83.0119 73.8716C90.5934 83.7973 101.207 111.424 83.0119 142.524" stroke="#3A6F7E" stroke-width="2" stroke-linecap="round"/>
<path d="M111.896 101.919C101.85 93.826 73.8863 82.4955 42.4065 101.919" stroke="#3A6F7E" stroke-width="2" stroke-linecap="round"/>
<path d="M111.896 113.64C101.85 121.733 73.8863 133.064 42.4065 113.64" stroke="#3A6F7E" stroke-width="2" stroke-linecap="round"/>
<path d="M65.1234 46.5986H62.4785L65.9139 36.4168H69.1902L72.6255 46.5986H69.9806L67.5893 38.9822H67.5098L65.1234 46.5986ZM64.7704 42.5915H70.2988V44.4608H64.7704V42.5915ZM80.1562 41.2939L77.924 41.3536C77.9008 41.1945 77.8378 41.0537 77.7351 40.931C77.6323 40.8051 77.4981 40.7073 77.3324 40.6377C77.17 40.5648 76.9811 40.5283 76.7656 40.5283C76.4839 40.5283 76.2436 40.5847 76.0447 40.6974C75.8492 40.81 75.7531 40.9625 75.7564 41.1547C75.7531 41.3039 75.8127 41.4331 75.9354 41.5425C76.0613 41.6519 76.285 41.7397 76.6065 41.806L78.0781 42.0844C78.8404 42.2303 79.4072 42.4722 79.7784 42.8103C80.1529 43.1483 80.3419 43.5958 80.3452 44.1526C80.3419 44.6763 80.1861 45.132 79.8778 45.5198C79.5729 45.9076 79.1553 46.2092 78.625 46.4246C78.0947 46.6367 77.4882 46.7428 76.8054 46.7428C75.715 46.7428 74.8549 46.5191 74.2251 46.0716C73.5987 45.6209 73.2408 45.0177 73.1513 44.262L75.5526 44.2023C75.6056 44.4807 75.7431 44.6929 75.9652 44.8387C76.1873 44.9845 76.4706 45.0574 76.8153 45.0574C77.1269 45.0574 77.3804 44.9994 77.576 44.8834C77.7715 44.7674 77.871 44.6133 77.8743 44.4211C77.871 44.2487 77.7947 44.1112 77.6456 44.0084C77.4964 43.9024 77.2628 43.8195 76.9446 43.7599L75.6122 43.5063C74.8466 43.3671 74.2765 43.1102 73.902 42.7357C73.5275 42.3579 73.3419 41.8773 73.3452 41.2939C73.3419 40.7835 73.4777 40.3477 73.7528 39.9864C74.0279 39.6218 74.419 39.3434 74.9261 39.1512C75.4332 38.959 76.0315 38.8628 76.7209 38.8628C77.755 38.8628 78.5703 39.0799 79.1669 39.5141C79.7635 39.945 80.0933 40.5383 80.1562 41.2939ZM81.5421 46.5986V38.9623H83.9732V46.5986H81.5421ZM82.7601 38.0724C82.4187 38.0724 82.1254 37.9597 81.8801 37.7343C81.6349 37.5056 81.5123 37.2305 81.5123 36.909C81.5123 36.5908 81.6349 36.319 81.8801 36.0937C82.1254 35.865 82.4187 35.7506 82.7601 35.7506C83.1048 35.7506 83.3981 35.865 83.6401 36.0937C83.8854 36.319 84.008 36.5908 84.008 36.909C84.008 37.2305 83.8854 37.5056 83.6401 37.7343C83.3981 37.9597 83.1048 38.0724 82.7601 38.0724ZM87.6733 46.7279C87.1861 46.7279 86.7536 46.6467 86.3757 46.4843C86.0012 46.3186 85.7045 46.07 85.4858 45.7385C85.2704 45.4038 85.1626 44.9845 85.1626 44.4807C85.1626 44.0565 85.2372 43.6985 85.3864 43.4069C85.5355 43.1152 85.741 42.8782 86.0028 42.6959C86.2647 42.5136 86.5663 42.3761 86.9077 42.2833C87.2491 42.1872 87.6136 42.1225 88.0014 42.0894C88.4356 42.0496 88.7853 42.0082 89.0504 41.9651C89.3156 41.9187 89.5078 41.8541 89.6271 41.7712C89.7498 41.685 89.8111 41.5641 89.8111 41.4083V41.3834C89.8111 41.1282 89.7232 40.931 89.5476 40.7918C89.3719 40.6526 89.1349 40.583 88.8366 40.583C88.5152 40.583 88.2566 40.6526 88.0611 40.7918C87.8655 40.931 87.7412 41.1233 87.6882 41.3685L85.446 41.289C85.5123 40.825 85.683 40.4107 85.9581 40.0461C86.2365 39.6782 86.6177 39.3898 87.1016 39.181C87.5888 38.9689 88.1738 38.8628 88.8565 38.8628C89.3438 38.8628 89.7929 38.9208 90.2038 39.0368C90.6148 39.1495 90.9728 39.3153 91.2777 39.534C91.5826 39.7494 91.8179 40.0146 91.9837 40.3295C92.1527 40.6443 92.2372 41.0039 92.2372 41.4083V46.5986H89.9503V45.5347H89.8906C89.7547 45.7932 89.5807 46.012 89.3686 46.191C89.1598 46.3699 88.9129 46.5042 88.6278 46.5937C88.3461 46.6831 88.0279 46.7279 87.6733 46.7279ZM88.424 45.137C88.6858 45.137 88.9212 45.084 89.13 44.9779C89.3421 44.8718 89.5111 44.726 89.6371 44.5404C89.763 44.3515 89.826 44.1327 89.826 43.8841V43.1583C89.7564 43.1948 89.6719 43.2279 89.5724 43.2577C89.4763 43.2876 89.3703 43.3157 89.2543 43.3422C89.1383 43.3688 89.0189 43.392 88.8963 43.4118C88.7737 43.4317 88.656 43.45 88.5433 43.4665C88.3146 43.503 88.1191 43.5593 87.9567 43.6356C87.7976 43.7118 87.675 43.8112 87.5888 43.9339C87.5059 44.0532 87.4645 44.1957 87.4645 44.3614C87.4645 44.6133 87.554 44.8055 87.733 44.9381C87.9152 45.0707 88.1456 45.137 88.424 45.137Z" fill="#3A6F7E"/>
<rect x="32.1504" y="162.618" width="90.4207" height="6.69783" rx="3.34891" fill="#3A6F7E"/>
<rect x="51.1504" y="172.665" width="51.9082" height="5.02337" rx="2.51168" fill="#3A6F7E"/>
<path d="M78.7637 216.097H80.9637V226.481H83.3397V228.395H80.9637V231.805H78.6757V228.395H71.0197V226.129L78.7637 216.097ZM78.6097 219.133L72.9777 226.481H78.6757V219.133H78.6097Z" fill="black"/>
</svg>
