<svg width="155" height="240" viewBox="0 0 155 240" fill="none" xmlns="http://www.w3.org/2000/svg">
<path d="M1 6.1953C1 3.43388 3.23857 1.19531 6 1.19531H142.05C148.125 1.19531 153.05 6.12018 153.05 12.1953V190.805C153.05 196.88 148.125 201.805 142.05 201.805H6C3.23858 201.805 1 199.566 1 196.805V6.1953Z" fill="#F6F2E9" stroke="#3A6F7E" stroke-width="2"/>
<circle cx="77.0008" cy="108.198" r="36.0008" fill="#538F93" stroke="#3A6F7E" stroke-width="2"/>
<path d="M71.1405 73.8716C63.559 83.7973 52.9449 111.424 71.1405 142.524" stroke="#3A6F7E" stroke-width="2" stroke-linecap="round"/>
<path d="M82.8615 73.8716C90.443 83.7973 101.057 111.424 82.8615 142.524" stroke="#3A6F7E" stroke-width="2" stroke-linecap="round"/>
<path d="M111.746 101.919C101.699 93.826 73.7359 82.4955 42.2561 101.919" stroke="#3A6F7E" stroke-width="2" stroke-linecap="round"/>
<path d="M111.746 113.64C101.699 121.733 73.7359 133.064 42.2562 113.64" stroke="#3A6F7E" stroke-width="2" stroke-linecap="round"/>
<path d="M52.7706 46.0103V35.8284H59.87V37.827H55.2315V39.9151H59.5071V41.9186H55.2315V44.0117H59.87V46.0103H52.7706ZM66.3381 42.7141V38.3739H68.7642V46.0103H66.4474V44.5884H66.3679C66.1989 45.0557 65.9105 45.4269 65.5028 45.702C65.0985 45.9738 64.6096 46.1097 64.0362 46.1097C63.5159 46.1097 63.0585 45.9904 62.6641 45.7517C62.2696 45.5131 61.9631 45.18 61.7443 44.7524C61.5256 44.3216 61.4145 43.8178 61.4112 43.2411V38.3739H63.8423V42.7638C63.8456 43.1781 63.955 43.5046 64.1705 43.7432C64.3859 43.9818 64.6792 44.1012 65.0504 44.1012C65.2924 44.1012 65.5095 44.0481 65.7017 43.9421C65.8973 43.8327 66.0514 43.6753 66.1641 43.4698C66.2801 43.261 66.3381 43.0091 66.3381 42.7141ZM70.3116 46.0103V38.3739H72.6731V39.7659H72.7527C72.8919 39.2621 73.1189 38.8876 73.4338 38.6424C73.7486 38.3938 74.1149 38.2695 74.5325 38.2695C74.6452 38.2695 74.7612 38.2778 74.8805 38.2943C74.9998 38.3076 75.1109 38.3291 75.2136 38.359V40.4719C75.0976 40.4321 74.9451 40.4006 74.7562 40.3774C74.5706 40.3542 74.4049 40.3426 74.2591 40.3426C73.9707 40.3426 73.7105 40.4073 73.4785 40.5365C73.2498 40.6625 73.0692 40.8398 72.9366 41.0685C72.8074 41.2939 72.7427 41.559 72.7427 41.8639V46.0103H70.3116ZM79.3723 46.1544C78.5703 46.1544 77.8809 45.9904 77.3042 45.6622C76.7308 45.3308 76.2883 44.8701 75.9767 44.2801C75.6685 43.6869 75.5144 42.9991 75.5144 42.2169C75.5144 41.4314 75.6685 40.7437 75.9767 40.1537C76.2883 39.5604 76.7308 39.0997 77.3042 38.7716C77.8809 38.4402 78.5703 38.2745 79.3723 38.2745C80.1744 38.2745 80.8622 38.4402 81.4355 38.7716C82.0123 39.0997 82.4547 39.5604 82.763 40.1537C83.0745 40.7437 83.2303 41.4314 83.2303 42.2169C83.2303 42.9991 83.0745 43.6869 82.763 44.2801C82.4547 44.8701 82.0123 45.3308 81.4355 45.6622C80.8622 45.9904 80.1744 46.1544 79.3723 46.1544ZM79.3873 44.3199C79.6789 44.3199 79.9258 44.2304 80.128 44.0514C80.3302 43.8725 80.4843 43.6239 80.5904 43.3057C80.6998 42.9875 80.7544 42.6196 80.7544 42.202C80.7544 41.7778 80.6998 41.4066 80.5904 41.0884C80.4843 40.7702 80.3302 40.5216 80.128 40.3426C79.9258 40.1637 79.6789 40.0742 79.3873 40.0742C79.0856 40.0742 78.8304 40.1637 78.6216 40.3426C78.4161 40.5216 78.2587 40.7702 78.1493 41.0884C78.0433 41.4066 77.9902 41.7778 77.9902 42.202C77.9902 42.6196 78.0433 42.9875 78.1493 43.3057C78.2587 43.6239 78.4161 43.8725 78.6216 44.0514C78.8304 44.2304 79.0856 44.3199 79.3873 44.3199ZM84.4757 48.8739V38.3739H86.8819V39.6814H86.9565C87.0559 39.4494 87.1968 39.2257 87.3791 39.0103C87.5647 38.7948 87.8 38.6192 88.085 38.4833C88.3734 38.3441 88.7181 38.2745 89.1191 38.2745C89.6494 38.2745 90.1449 38.4137 90.6056 38.6921C91.0697 38.9705 91.4442 39.3997 91.7292 39.9797C92.0143 40.5597 92.1568 41.2988 92.1568 42.197C92.1568 43.0621 92.0192 43.7863 91.7441 44.3696C91.4724 44.953 91.1045 45.3905 90.6404 45.6821C90.1797 45.9738 89.6677 46.1196 89.1042 46.1196C88.7198 46.1196 88.3867 46.0567 88.1049 45.9307C87.8232 45.8048 87.5862 45.639 87.394 45.4335C87.2051 45.2281 87.0592 45.0076 86.9565 44.7723H86.9068V48.8739H84.4757ZM86.8571 42.1921C86.8571 42.6031 86.9118 42.961 87.0211 43.2659C87.1338 43.5709 87.2946 43.8078 87.5034 43.9769C87.7155 44.1426 87.969 44.2255 88.264 44.2255C88.5623 44.2255 88.8159 44.1426 89.0247 43.9769C89.2335 43.8078 89.3909 43.5709 89.497 43.2659C89.6064 42.961 89.661 42.6031 89.661 42.1921C89.661 41.7811 89.6064 41.4248 89.497 41.1232C89.3909 40.8216 89.2335 40.5879 89.0247 40.4222C88.8192 40.2565 88.5656 40.1736 88.264 40.1736C87.9657 40.1736 87.7122 40.2548 87.5034 40.4172C87.2946 40.5796 87.1338 40.8116 87.0211 41.1132C86.9118 41.4148 86.8571 41.7745 86.8571 42.1921ZM97.0004 46.1544C96.2016 46.1544 95.5122 45.997 94.9322 45.6821C94.3555 45.3639 93.9113 44.9115 93.5998 44.3249C93.2915 43.7349 93.1374 43.0339 93.1374 42.2219C93.1374 41.4331 93.2932 40.7437 93.6048 40.1537C93.9163 39.5604 94.3555 39.0997 94.9222 38.7716C95.489 38.4402 96.1568 38.2745 96.9258 38.2745C97.4693 38.2745 97.9665 38.359 98.4173 38.528C98.868 38.697 99.2575 38.9473 99.5856 39.2787C99.9137 39.6102 100.169 40.0195 100.351 40.5067C100.533 40.9906 100.625 41.5458 100.625 42.1722V42.7787H93.9876V41.3668H98.3626C98.3593 41.1083 98.2979 40.8779 98.1786 40.6757C98.0593 40.4736 97.8952 40.3161 97.6864 40.2034C97.4809 40.0874 97.244 40.0294 96.9755 40.0294C96.7037 40.0294 96.4601 40.0907 96.2447 40.2134C96.0292 40.3327 95.8585 40.4968 95.7326 40.7056C95.6067 40.9111 95.5404 41.1447 95.5337 41.4066V42.8434C95.5337 43.1549 95.5951 43.4283 95.7177 43.6637C95.8403 43.8957 96.0143 44.0763 96.2397 44.2056C96.4651 44.3348 96.7335 44.3995 97.0451 44.3995C97.2605 44.3995 97.4561 44.3696 97.6317 44.31C97.8074 44.2503 97.9582 44.1625 98.0842 44.0465C98.2101 43.9305 98.3046 43.788 98.3675 43.6189L100.6 43.6835C100.507 44.184 100.303 44.6199 99.9883 44.9911C99.6767 45.359 99.2674 45.6457 98.7603 45.8512C98.2532 46.0533 97.6665 46.1544 97.0004 46.1544Z" fill="#3A6F7E"/>
<rect x="32" y="162.618" width="90.4207" height="6.69783" rx="3.34891" fill="#3A6F7E"/>
<rect x="51" y="172.665" width="51.9082" height="5.02337" rx="2.51168" fill="#3A6F7E"/>
<path d="M71.0431 216.097H72.8471V231.805H70.4491V218.979C69.5104 219.873 68.3077 220.533 66.8411 220.959V218.583C67.5157 218.407 68.2564 218.099 69.0631 217.659C69.4591 217.409 69.8184 217.16 70.1411 216.911C70.4784 216.647 70.7791 216.375 71.0431 216.097ZM81.5195 215.789C83.1915 215.789 84.5189 216.229 85.5015 217.109C86.3815 217.901 86.8215 218.883 86.8215 220.057C86.8215 220.863 86.6455 221.545 86.2935 222.103C85.8975 222.689 85.3035 223.137 84.5115 223.445V223.511C85.2742 223.687 85.9195 224.127 86.4475 224.831C87.0635 225.579 87.3715 226.444 87.3715 227.427C87.3715 228.805 86.8655 229.935 85.8535 230.815C84.8122 231.68 83.3675 232.113 81.5195 232.113C79.6569 232.113 78.2122 231.68 77.1855 230.815C76.1735 229.935 75.6675 228.805 75.6675 227.427C75.6675 226.444 75.9755 225.579 76.5915 224.831C77.1195 224.127 77.7649 223.687 78.5275 223.511V223.445C77.7355 223.137 77.1415 222.689 76.7455 222.103C76.3935 221.545 76.2175 220.863 76.2175 220.057C76.2175 218.883 76.6575 217.901 77.5375 217.109C78.5055 216.229 79.8329 215.789 81.5195 215.789ZM81.5195 217.703C80.5369 217.703 79.7669 217.959 79.2095 218.473C78.7109 218.913 78.4615 219.47 78.4615 220.145C78.4615 220.907 78.6669 221.501 79.0775 221.927C79.5909 222.455 80.4049 222.719 81.5195 222.719C82.6195 222.719 83.4335 222.455 83.9615 221.927C84.3722 221.472 84.5775 220.878 84.5775 220.145C84.5775 219.485 84.3282 218.927 83.8295 218.473C83.2722 217.959 82.5022 217.703 81.5195 217.703ZM81.5195 224.501C80.3462 224.501 79.4809 224.779 78.9235 225.337C78.3369 225.865 78.0435 226.561 78.0435 227.427C78.0435 228.248 78.3442 228.908 78.9455 229.407C79.5469 229.92 80.4049 230.177 81.5195 230.177C82.6195 230.177 83.4922 229.92 84.1375 229.407C84.7095 228.893 84.9955 228.233 84.9955 227.427C84.9955 226.547 84.7095 225.857 84.1375 225.359C83.5215 224.787 82.6489 224.501 81.5195 224.501Z" fill="black"/>
</svg>
