<svg width="155" height="240" viewBox="0 0 155 240" fill="none" xmlns="http://www.w3.org/2000/svg">
<path d="M1.05078 6.1953C1.05078 3.43388 3.28936 1.19531 6.05078 1.19531H142.101C148.176 1.19531 153.101 6.12018 153.101 12.1953V190.805C153.101 196.88 148.176 201.805 142.101 201.805H6.05079C3.28936 201.805 1.05078 199.566 1.05078 196.805V6.1953Z" fill="#F6F2E9" stroke="#3A6F7E" stroke-width="2"/>
<circle cx="77.5418" cy="108.198" r="36.0008" fill="#75AFB2" stroke="#3A6F7E" stroke-width="2"/>
<path d="M71.6815 73.8716C64.1 83.7973 53.4859 111.424 71.6815 142.524" stroke="#3A6F7E" stroke-width="2" stroke-linecap="round"/>
<path d="M83.4025 73.8716C90.984 83.7973 101.598 111.424 83.4025 142.524" stroke="#3A6F7E" stroke-width="2" stroke-linecap="round"/>
<path d="M112.287 101.919C102.24 93.826 74.2769 82.4955 42.7972 101.919" stroke="#3A6F7E" stroke-width="2" stroke-linecap="round"/>
<path d="M112.287 113.64C102.24 121.733 74.2769 133.064 42.7972 113.64" stroke="#3A6F7E" stroke-width="2" stroke-linecap="round"/>
<path d="M46.0238 46.208H43.3789L46.8143 36.0262H50.0906L53.5259 46.208H50.881L48.4897 38.5915H48.4102L46.0238 46.208ZM45.6708 42.2009H51.1992V44.0702H45.6708V42.2009ZM54.6222 46.208V38.5716H56.9339V39.9736H57.0185C57.1776 39.5096 57.446 39.1434 57.8239 38.8749C58.2017 38.6064 58.6525 38.4722 59.1761 38.4722C59.7064 38.4722 60.1605 38.6081 60.5384 38.8799C60.9162 39.1517 61.1565 39.5162 61.2592 39.9736H61.3388C61.4813 39.5196 61.7597 39.1566 62.174 38.8849C62.5883 38.6098 63.0772 38.4722 63.6406 38.4722C64.3632 38.4722 64.9498 38.7042 65.4006 39.1682C65.8513 39.6289 66.0767 40.262 66.0767 41.0674V46.208H63.6456V41.6242C63.6456 41.243 63.5478 40.953 63.3523 40.7542C63.1567 40.552 62.9032 40.4509 62.5916 40.4509C62.2569 40.4509 61.9934 40.5603 61.8011 40.779C61.6122 40.9945 61.5178 41.2845 61.5178 41.6491V46.208H59.1811V41.5993C59.1811 41.2447 59.085 40.9646 58.8928 40.7591C58.7005 40.5537 58.447 40.4509 58.1321 40.4509C57.92 40.4509 57.7327 40.5023 57.5703 40.605C57.4079 40.7045 57.2803 40.847 57.1875 41.0326C57.098 41.2182 57.0533 41.4369 57.0533 41.6888V46.208H54.6222ZM71.1527 46.3522C70.3539 46.3522 69.6645 46.1948 69.0845 45.8799C68.5078 45.5617 68.0637 45.1093 67.7521 44.5226C67.4439 43.9327 67.2898 43.2317 67.2898 42.4197C67.2898 41.6308 67.4455 40.9414 67.7571 40.3515C68.0687 39.7582 68.5078 39.2975 69.0746 38.9694C69.6413 38.6379 70.3092 38.4722 71.0781 38.4722C71.6217 38.4722 72.1188 38.5567 72.5696 38.7258C73.0204 38.8948 73.4098 39.145 73.7379 39.4765C74.0661 39.8079 74.3213 40.2172 74.5036 40.7045C74.6858 41.1884 74.777 41.7435 74.777 42.3699V42.9765H68.1399V41.5645H72.5149C72.5116 41.306 72.4503 41.0757 72.331 40.8735C72.2116 40.6713 72.0476 40.5139 71.8388 40.4012C71.6333 40.2852 71.3963 40.2272 71.1278 40.2272C70.8561 40.2272 70.6125 40.2885 70.397 40.4111C70.1816 40.5305 70.0109 40.6945 69.8849 40.9033C69.759 41.1088 69.6927 41.3425 69.6861 41.6043V43.0411C69.6861 43.3527 69.7474 43.6261 69.87 43.8614C69.9927 44.0934 70.1667 44.2741 70.392 44.4033C70.6174 44.5326 70.8859 44.5972 71.1974 44.5972C71.4129 44.5972 71.6084 44.5674 71.7841 44.5077C71.9598 44.4481 72.1106 44.3602 72.2365 44.2442C72.3625 44.1282 72.4569 43.9857 72.5199 43.8167L74.7521 43.8813C74.6593 44.3818 74.4555 44.8176 74.1406 45.1888C73.8291 45.5567 73.4197 45.8434 72.9126 46.0489C72.4055 46.2511 71.8189 46.3522 71.1527 46.3522ZM76.0186 46.208V38.5716H78.3801V39.9637H78.4597C78.5989 39.4599 78.8259 39.0854 79.1408 38.8401C79.4557 38.5915 79.8219 38.4672 80.2395 38.4672C80.3522 38.4672 80.4682 38.4755 80.5875 38.4921C80.7069 38.5054 80.8179 38.5269 80.9206 38.5567V40.6697C80.8046 40.6299 80.6522 40.5984 80.4632 40.5752C80.2776 40.552 80.1119 40.5404 79.9661 40.5404C79.6777 40.5404 79.4176 40.605 79.1855 40.7343C78.9569 40.8602 78.7762 41.0376 78.6436 41.2662C78.5144 41.4916 78.4498 41.7568 78.4498 42.0617V46.208H76.0186ZM81.9112 46.208V38.5716H84.3423V46.208H81.9112ZM83.1293 37.6817C82.7879 37.6817 82.4946 37.569 82.2493 37.3437C82.004 37.115 81.8814 36.8399 81.8814 36.5184C81.8814 36.2002 82.004 35.9284 82.2493 35.703C82.4946 35.4743 82.7879 35.36 83.1293 35.36C83.474 35.36 83.7673 35.4743 84.0092 35.703C84.2545 35.9284 84.3771 36.2002 84.3771 36.5184C84.3771 36.8399 84.2545 37.115 84.0092 37.3437C83.7673 37.569 83.474 37.6817 83.1293 37.6817ZM89.4544 46.3522C88.649 46.3522 87.9579 46.1865 87.3812 45.855C86.8078 45.5236 86.367 45.0629 86.0588 44.4729C85.7505 43.8796 85.5964 43.1936 85.5964 42.4147C85.5964 41.6325 85.7505 40.9464 86.0588 40.3564C86.3703 39.7632 86.8128 39.3008 87.3862 38.9694C87.9629 38.6379 88.6506 38.4722 89.4494 38.4722C90.1554 38.4722 90.7702 38.5998 91.2939 38.855C91.8208 39.1102 92.2318 39.4715 92.5268 39.9388C92.8251 40.4028 92.9825 40.9481 92.9991 41.5745H90.7271C90.6807 41.1834 90.5481 40.8768 90.3294 40.6547C90.1139 40.4327 89.8322 40.3216 89.4842 40.3216C89.2025 40.3216 88.9556 40.4012 88.7434 40.5603C88.5313 40.7161 88.3656 40.9481 88.2463 41.2563C88.1303 41.5612 88.0723 41.9391 88.0723 42.3898C88.0723 42.8406 88.1303 43.2217 88.2463 43.5333C88.3656 43.8415 88.5313 44.0752 88.7434 44.2343C88.9556 44.3901 89.2025 44.468 89.4842 44.468C89.7096 44.468 89.9084 44.4199 90.0808 44.3238C90.2565 44.2277 90.4006 44.0868 90.5133 43.9012C90.626 43.7123 90.6973 43.4836 90.7271 43.2151H92.9991C92.9759 43.8448 92.8185 44.395 92.5268 44.8657C92.2385 45.3363 91.8324 45.7026 91.3088 45.9644C90.7884 46.2229 90.1703 46.3522 89.4544 46.3522ZM96.396 46.3373C95.9087 46.3373 95.4762 46.2561 95.0984 46.0937C94.7238 45.9279 94.4272 45.6794 94.2085 45.3479C93.993 45.0132 93.8853 44.5939 93.8853 44.0901C93.8853 43.6659 93.9599 43.3079 94.109 43.0162C94.2582 42.7246 94.4637 42.4876 94.7255 42.3053C94.9873 42.123 95.2889 41.9855 95.6303 41.8927C95.9717 41.7965 96.3363 41.7319 96.7241 41.6988C97.1583 41.659 97.5079 41.6176 97.7731 41.5745C98.0382 41.5281 98.2305 41.4635 98.3498 41.3806C98.4724 41.2944 98.5337 41.1734 98.5337 41.0177V40.9928C98.5337 40.7376 98.4459 40.5404 98.2702 40.4012C98.0946 40.262 97.8576 40.1924 97.5593 40.1924C97.2378 40.1924 96.9793 40.262 96.7837 40.4012C96.5882 40.5404 96.4639 40.7326 96.4109 40.9779L94.1687 40.8983C94.235 40.4343 94.4057 40.02 94.6808 39.6555C94.9592 39.2876 95.3403 38.9992 95.8242 38.7904C96.3114 38.5783 96.8964 38.4722 97.5792 38.4722C98.0664 38.4722 98.5155 38.5302 98.9265 38.6462C99.3375 38.7589 99.6954 38.9246 100 39.1434C100.305 39.3588 100.541 39.624 100.706 39.9388C100.875 40.2537 100.96 40.6133 100.96 41.0177V46.208H98.6729V45.1441H98.6133C98.4774 45.4026 98.3034 45.6214 98.0913 45.8003C97.8825 45.9793 97.6355 46.1135 97.3505 46.203C97.0688 46.2925 96.7506 46.3373 96.396 46.3373ZM97.1467 44.7464C97.4085 44.7464 97.6438 44.6933 97.8526 44.5873C98.0647 44.4812 98.2338 44.3354 98.3597 44.1498C98.4857 43.9608 98.5487 43.7421 98.5487 43.4935V42.7677C98.479 42.8041 98.3945 42.8373 98.2951 42.8671C98.199 42.8969 98.0929 42.9251 97.9769 42.9516C97.8609 42.9781 97.7416 43.0013 97.619 43.0212C97.4963 43.0411 97.3787 43.0593 97.266 43.0759C97.0373 43.1124 96.8417 43.1687 96.6793 43.2449C96.5202 43.3212 96.3976 43.4206 96.3114 43.5432C96.2286 43.6626 96.1871 43.8051 96.1871 43.9708C96.1871 44.2227 96.2766 44.4149 96.4556 44.5475C96.6379 44.6801 96.8683 44.7464 97.1467 44.7464ZM109.113 40.9033L106.881 40.963C106.858 40.8039 106.795 40.663 106.692 40.5404C106.589 40.4144 106.455 40.3167 106.289 40.2471C106.127 40.1742 105.938 40.1377 105.723 40.1377C105.441 40.1377 105.201 40.194 105.002 40.3067C104.806 40.4194 104.71 40.5719 104.713 40.7641C104.71 40.9133 104.77 41.0425 104.892 41.1519C105.018 41.2613 105.242 41.3491 105.564 41.4154L107.035 41.6938C107.797 41.8396 108.364 42.0816 108.735 42.4197C109.11 42.7577 109.299 43.2052 109.302 43.762C109.299 44.2857 109.143 44.7414 108.835 45.1292C108.53 45.517 108.112 45.8186 107.582 46.034C107.052 46.2461 106.445 46.3522 105.762 46.3522C104.672 46.3522 103.812 46.1285 103.182 45.681C102.556 45.2303 102.198 44.627 102.108 43.8714L104.51 43.8117C104.563 44.0901 104.7 44.3022 104.922 44.4481C105.144 44.5939 105.428 44.6668 105.772 44.6668C106.084 44.6668 106.337 44.6088 106.533 44.4928C106.729 44.3768 106.828 44.2227 106.831 44.0305C106.828 43.8581 106.752 43.7206 106.603 43.6178C106.453 43.5117 106.22 43.4289 105.902 43.3692L104.569 43.1157C103.804 42.9765 103.234 42.7196 102.859 42.3451C102.484 41.9672 102.299 41.4867 102.302 40.9033C102.299 40.3929 102.435 39.9571 102.71 39.5958C102.985 39.2312 103.376 38.9528 103.883 38.7606C104.39 38.5683 104.989 38.4722 105.678 38.4722C106.712 38.4722 107.527 38.6893 108.124 39.1235C108.721 39.5544 109.05 40.1476 109.113 40.9033Z" fill="#3A6F7E"/>
<rect x="31.541" y="162.618" width="90.4207" height="6.69783" rx="3.34891" fill="#3A6F7E"/>
<rect x="51.543" y="172.665" width="51.9082" height="5.02337" rx="2.51168" fill="#3A6F7E"/>
<path d="M71.0938 216.097H72.8978V231.805H70.4998V218.979C69.5612 219.873 68.3585 220.533 66.8918 220.959V218.583C67.5665 218.407 68.3072 218.099 69.1138 217.659C69.5098 217.409 69.8692 217.16 70.1918 216.911C70.5292 216.647 70.8298 216.375 71.0938 216.097ZM81.7903 215.789C84.841 215.789 86.5643 217.211 86.9603 220.057H84.6283C84.3056 218.531 83.3523 217.769 81.7683 217.769C80.6683 217.769 79.803 218.304 79.1723 219.375C78.5416 220.372 78.2263 221.641 78.2263 223.181C78.2263 223.21 78.2263 223.247 78.2263 223.291C78.2263 223.335 78.2336 223.393 78.2483 223.467H78.3363C78.7763 222.763 79.3336 222.249 80.0083 221.927C80.6096 221.604 81.3356 221.443 82.1863 221.443C83.7263 221.443 84.9583 221.927 85.8823 222.895C86.7916 223.892 87.2463 225.161 87.2463 226.701C87.2463 228.27 86.7256 229.561 85.6843 230.573C84.6136 231.599 83.3083 232.113 81.7683 232.113C79.847 232.113 78.3803 231.409 77.3683 230.001C76.4003 228.651 75.9163 226.781 75.9163 224.391C75.9163 221.809 76.437 219.741 77.4783 218.187C78.5343 216.588 79.9716 215.789 81.7903 215.789ZM81.7023 223.379C80.7196 223.379 79.9423 223.687 79.3703 224.303C78.7983 224.919 78.5123 225.74 78.5123 226.767C78.5123 227.793 78.8056 228.607 79.3923 229.209C79.9643 229.825 80.727 230.133 81.6803 230.133C82.6483 230.133 83.4183 229.81 83.9903 229.165C84.5916 228.49 84.8923 227.669 84.8923 226.701C84.8923 225.674 84.6063 224.875 84.0343 224.303C83.4623 223.687 82.685 223.379 81.7023 223.379Z" fill="black"/>
</svg>
