<svg width="1920" height="846" viewBox="0 0 1920 846" fill="none" xmlns="http://www.w3.org/2000/svg">
<path d="M640.5 754.097H1143.5V219.097H640.5V754.097Z" fill="white" stroke="#386676"/>
<path d="M776.5 780.579H-27.3887C-30.1325 780.579 -32.3637 778.368 -32.3885 775.624L-38.9544 48.6409C-38.9795 45.8619 -36.7337 43.5957 -33.9546 43.5957L1954.96 43.5958C1957.73 43.5958 1959.98 45.8613 1959.96 48.6399L1953.54 775.623C1953.52 778.367 1951.29 780.579 1948.54 780.579H1128L1100.98 757.177C1099.89 756.227 1099.26 754.848 1099.26 753.398V236.811H786.5C783.739 236.811 781.5 239.049 781.5 241.811V775.579C781.5 778.341 779.261 780.579 776.5 780.579Z" fill="#FCEECA"/>
<path d="M1128 780.579V241.811C1128 239.049 1125.76 236.811 1123 236.811H1099.26M1128 780.579H1948.54C1951.29 780.579 1953.52 778.367 1953.54 775.623L1959.96 48.6399C1959.98 45.8613 1957.73 43.5958 1954.96 43.5958L-33.9546 43.5957C-36.7337 43.5957 -38.9795 45.8619 -38.9544 48.6409L-32.3885 775.624C-32.3637 778.368 -30.1325 780.579 -27.3887 780.579H776.5C779.261 780.579 781.5 778.341 781.5 775.579V241.811C781.5 239.049 783.739 236.811 786.5 236.811H1099.26M1128 780.579L1100.98 757.177C1099.89 756.227 1099.26 754.848 1099.26 753.398V236.811" stroke="#386676" stroke-width="1.5"/>
<rect x="-1.5" y="1.09668" width="1927" height="43" fill="#FFF9EA" stroke="#386676"/>
<path d="M1352 638.997H1364V822.997C1364 825.758 1361.76 827.997 1359 827.997H1357C1354.24 827.997 1352 825.758 1352 822.997V638.997Z" fill="#386676"/>
<path d="M1308 628.997H1298.86V816.162C1298.4 817.33 1296.26 819.565 1291.48 819.165C1285.51 818.665 1285.5 824.92 1291.48 824.92C1298.86 824.92 1308 826.421 1308 816.162V628.997Z" fill="#386676"/>
<path d="M1405 628.997H1413.7V816.162C1414.15 817.33 1416.18 819.565 1420.73 819.165C1426.42 818.665 1426.43 824.92 1420.73 824.92C1413.71 824.92 1405 826.421 1405 816.162V628.997Z" fill="#386676"/>
<path d="M1282.86 624.214V604.113C1333.61 625.712 1422.99 612.554 1427.78 604.113V624.363C1427.78 627.389 1425.84 630.086 1422.94 630.943C1372.29 645.901 1315.1 637.912 1287.89 630.831C1284.89 630.05 1282.86 627.311 1282.86 624.214Z" fill="#386676"/>
<path d="M1282.86 624.214V604.113C1333.61 625.712 1422.99 612.554 1427.78 604.113V624.363C1427.78 627.389 1425.84 630.086 1422.94 630.943C1372.29 645.901 1315.1 637.912 1287.89 630.831C1284.89 630.05 1282.86 627.311 1282.86 624.214Z" fill="#386676"/>
<ellipse cx="1355.32" cy="604.114" rx="72.4602" ry="12.0767" fill="#B4D2D4"/>
<path d="M1314 578.11V528C1347.97 546.11 1379.39 540.612 1390 528V579.651C1390 590.159 1384 600.095 1373.89 602.976C1357.66 607.606 1344.61 606.394 1331.79 602.864C1320.91 599.869 1314 589.395 1314 578.11Z" fill="#386676"/>
<path d="M1399.04 513.683C1399.04 519.188 1378.66 523.651 1353.52 523.651C1328.38 523.651 1308 519.188 1308 513.683C1308 508.178 1328.38 506 1353.52 506C1378.66 506 1399.04 508.178 1399.04 513.683Z" fill="#B4D2D4"/>
<path d="M1408.5 744.997V744.997C1408.5 745.008 1408.5 745.238 1408.06 745.714C1407.6 746.208 1406.8 746.804 1405.56 747.45C1403.09 748.74 1399.34 749.975 1394.5 751.041C1384.86 753.163 1371.42 754.497 1356.5 754.497C1341.58 754.497 1328.14 753.163 1318.5 751.041C1313.66 749.975 1309.91 748.74 1307.44 747.45C1306.2 746.804 1305.4 746.208 1304.94 745.714C1304.5 745.238 1304.5 745.008 1304.5 744.997L1304.5 744.997L1304.5 744.997C1304.5 744.986 1304.5 744.756 1304.94 744.281C1305.4 743.787 1306.2 743.19 1307.44 742.544C1309.91 741.255 1313.66 740.019 1318.5 738.953C1328.14 736.831 1341.58 735.497 1356.5 735.497C1371.42 735.497 1384.86 736.831 1394.5 738.953C1399.34 740.019 1403.09 741.255 1405.56 742.544C1406.8 743.19 1407.6 743.787 1408.06 744.281C1408.51 744.762 1408.5 744.992 1408.5 744.997Z" stroke="#386676" stroke-width="5"/>
<path d="M1408.5 674.997V674.997C1408.5 675.008 1408.5 675.238 1408.06 675.714C1407.6 676.208 1406.8 676.804 1405.56 677.45C1403.09 678.74 1399.34 679.975 1394.5 681.041C1384.86 683.163 1371.42 684.497 1356.5 684.497C1341.58 684.497 1328.14 683.163 1318.5 681.041C1313.66 679.975 1309.91 678.74 1307.44 677.45C1306.2 676.804 1305.4 676.208 1304.94 675.714C1304.5 675.238 1304.5 675.008 1304.5 674.997L1304.5 674.997L1304.5 674.997C1304.5 674.986 1304.5 674.756 1304.94 674.281C1305.4 673.787 1306.2 673.19 1307.44 672.544C1309.91 671.255 1313.66 670.019 1318.5 668.953C1328.14 666.831 1341.58 665.497 1356.5 665.497C1371.42 665.497 1384.86 666.831 1394.5 668.953C1399.34 670.019 1403.09 671.255 1405.56 672.544C1406.8 673.19 1407.6 673.787 1408.06 674.281C1408.51 674.762 1408.5 674.992 1408.5 674.997Z" stroke="#386676" stroke-width="5"/>
<path d="M1364.52 485.458C1372.45 486.29 1374.77 490.483 1374.94 492.476L1358.42 500.793C1354.02 496.981 1345.87 488.941 1348.52 487.278C1351.82 485.199 1354.61 484.419 1364.52 485.458Z" fill="#F7BEAF" stroke="#386676" stroke-width="2"/>
<path d="M1288.33 472.672C1322.19 469.817 1333.06 475.519 1346 500.296C1339.86 500.88 1309.61 513.51 1313.12 509.562C1332.22 488.095 1297.36 480.231 1287.48 475.081C1285.9 474.257 1286.55 472.821 1288.33 472.672Z" fill="#F7BEAF" stroke="#386676" stroke-width="2"/>
<path d="M1408.23 486.584C1386.02 480.526 1368.05 493.239 1358 501.244L1364.38 516.22C1374.42 509.156 1389.51 499.011 1402.44 499.708C1415.87 500.431 1447.26 539.264 1451.61 540.96C1455.96 542.655 1422.86 490.571 1408.23 486.584Z" fill="#F7BEAF" stroke="#386676" stroke-width="2"/>
<path d="M1303.54 490.445C1313.94 486.41 1337.04 491.389 1346.11 498.421L1340.35 511.576C1331.28 505.371 1321.39 504.292 1314.27 504.292C1295.16 504.292 1273.56 524.613 1269.63 526.102C1265.71 527.591 1280.36 499.446 1303.54 490.445Z" fill="#F7BEAF" stroke="#386676" stroke-width="2"/>
<path d="M1340.23 462.311C1347.08 467.107 1359 484.671 1359 498.953L1346.49 512C1338.34 492.984 1338 479.93 1330.85 471.005C1314.73 450.891 1288.73 465.754 1299.56 457.34C1313.95 446.161 1329.59 454.859 1340.23 462.311Z" fill="#F7BEAF" stroke="#386676" stroke-width="2"/>
<path d="M1307.95 530.384V513.085C1339.83 531.841 1395.97 520.415 1398.99 513.085V530.562C1398.99 533.31 1397.39 535.828 1394.83 536.832C1364.03 548.921 1329.66 542.676 1312.33 536.716C1309.64 535.793 1307.95 533.222 1307.95 530.384Z" fill="#386676"/>
<path d="M1368.87 504.338C1359.13 506.808 1361.43 508.126 1365.52 509.826C1370.22 511.78 1373.18 515.976 1376.64 519.712C1380.85 524.246 1386.11 526.634 1392.14 531.659C1399.76 538.011 1415.57 555.957 1425.11 566.028C1426.92 567.941 1429.79 566.659 1429.35 564.06C1426.79 548.968 1417.27 528.486 1410.46 519.915C1404.1 511.92 1390.87 498.761 1368.87 504.338Z" fill="#F7BEAF" stroke="#386676" stroke-width="2"/>
<path d="M1312.68 504.327C1320.9 499.5 1339.35 496.49 1346.82 504.327C1359.29 512.925 1354.3 518.74 1352.06 517.728C1349.82 516.717 1332.62 514.947 1320.9 521.522C1315.79 524.391 1293.98 551.808 1282.92 570.199C1282.39 571.082 1281.46 570.773 1281.66 569.765C1284.32 556.861 1294.9 514.759 1312.68 504.327Z" fill="#F7BEAF" stroke="#386676" stroke-width="2"/>
<path d="M1357.08 500C1350.51 500 1347.13 502.577 1345.47 505.692C1342.69 510.897 1346.16 516.74 1349.11 521.848C1350.34 523.967 1351.75 526.869 1353.66 531.643C1355.48 536.184 1359.51 554.915 1361.89 568.215C1362.38 570.931 1365.53 571.432 1366.35 568.798C1369.91 557.391 1371 539.762 1371 529.1C1371 521.472 1368.69 500 1357.08 500Z" fill="#F7BEAF" stroke="#386676" stroke-width="2"/>
<rect x="566" y="596.704" width="224.378" height="23.153" transform="rotate(90 566 596.704)" fill="#F6F2E9" stroke="#386676" stroke-width="2"/>
<path d="M634.5 827C641.404 827 647 821.404 647 814.5C647 807.596 641.404 802 634.5 802L473.5 802C466.596 802 461 807.596 461 814.5C461 821.404 466.596 827 473.5 827L634.5 827Z" fill="#F6F2E9" stroke="#386676" stroke-width="2"/>
<rect x="354" y="585" width="400" height="26" rx="13" fill="#F6F2E9" stroke="#386676" stroke-width="2"/>
<path d="M666.952 560.51C670.467 560.791 674.666 559.209 678.133 556.145C680.961 553.645 682.866 550.533 683.664 547.604C684.468 544.656 684.122 542.047 682.712 540.346L682.712 540.346C681.449 538.823 679.593 538.34 678.152 538.224M666.952 560.51L661.285 551.791C661.98 548.551 664.038 545.181 666.971 542.589C670.437 539.525 674.637 537.943 678.152 538.224M666.952 560.51C665.51 560.395 663.655 559.912 662.392 558.389L666.952 560.51ZM678.152 538.224L678.232 537.228L678.152 538.224ZM687.991 535.764C685.136 532.322 680.793 530.848 676.181 531.15C671.573 531.451 666.643 533.52 662.445 537.231C658.247 540.941 655.517 545.642 654.523 550.273C653.53 554.902 654.264 559.535 657.113 562.97C659.968 566.412 664.311 567.886 668.923 567.585C673.531 567.283 678.46 565.214 682.659 561.504C686.857 557.793 689.587 553.093 690.58 548.461C691.574 543.832 690.84 539.199 687.991 535.764ZM662.392 558.389C660.693 556.34 660.923 553.478 661.285 551.791L662.392 558.389Z" fill="white" stroke="#386676" stroke-width="2"/>
<path d="M636.001 574.948H636.002C658.097 574.948 675.955 556.468 675.955 533.738V531.521C675.955 529.688 674.507 528.146 672.654 528.146H599.349C597.497 528.146 596.049 529.688 596.049 531.521V533.738C596.049 556.468 613.906 574.948 636.001 574.948Z" fill="white" stroke="#386676" stroke-width="2"/>
<path d="M601.65 532.896H600.646L600.65 533.9C600.735 553.901 616.53 570.199 636.001 570.199H636.003C655.474 570.199 671.269 553.901 671.354 533.9L671.358 532.896H670.354H601.65Z" fill="#386676" stroke="#386676" stroke-width="2"/>
<path d="M599.799 574.451H598.799V575.451V580.438C598.799 582.927 600.762 585 603.249 585H668.763C671.251 585 673.214 582.927 673.214 580.438V575.451V574.451H672.214H599.799Z" fill="#F7BEAF" stroke="#386676" stroke-width="2"/>
<path d="M682.3 573.315L682.3 573.315L678.611 577.708L678.611 577.708C677.638 578.866 676.219 579.54 674.716 579.54H596.362C594.673 579.54 593.102 578.69 592.145 577.283L682.3 573.315ZM682.3 573.315C683.322 572.097 682.539 570.1 680.839 570.1H590.922C589.316 570.1 588.495 571.912 589.341 573.157C589.341 573.157 589.341 573.157 589.341 573.157L592.145 577.283L682.3 573.315Z" fill="#F7BEAF" stroke="#386676" stroke-width="2"/>
<path d="M616.414 517C609.48 517 603.912 522.794 603.912 529.873C603.912 532.264 605.798 534.257 608.19 534.257H663.007C665.399 534.257 667.285 532.264 667.285 529.873C667.285 522.794 661.717 517 654.783 517H616.414Z" fill="#FFEACF" stroke="#386676" stroke-width="2"/>
<path d="M3 599V433L266.11 700.495C270.526 704.984 273 711.029 273 717.325V834C273 838.971 268.971 843 264 843H-47" stroke="#386676" stroke-width="2"/>
<path d="M234.75 840.75L2 608V553H28.8603C35.1695 553 39.5205 559.323 37.2662 565.216L27.9489 589.571C26.947 592.19 28.8808 595 31.6848 595H73.9976C80.1364 595 84.4737 601.011 82.5389 606.837L72.6083 636.739C71.7484 639.329 73.676 642 76.4044 642H116.576C122.876 642 127.227 648.307 124.989 654.196L115.156 680.079C114.161 682.697 116.095 685.5 118.895 685.5H160.85C167.094 685.5 171.441 691.703 169.309 697.573L159.116 725.634C158.169 728.243 160.101 731 162.876 731H203.085C209.329 731 213.676 737.203 211.544 743.073L201.351 771.134C200.404 773.743 202.335 776.5 205.111 776.5H247.937C253.956 776.5 258.279 782.294 256.565 788.063L241.413 839.061C240.55 841.967 236.894 842.894 234.75 840.75Z" fill="#EFE2C1" stroke="#386676" stroke-width="2"/>
</svg>
